<svg xmlns="http://www.w3.org/2000/svg" viewBox="0 0 500 500"><g id="freepik--background-simple--inject-2"><path d="M50.8,197.43s-18,76.92,32.14,143.94,137.54,93.07,207.8,116,136.06-3.55,160.74-62.59-25.17-90.84-36.17-168-2.22-99.32-53.5-158-156.51-57.32-227.66,3S50.8,197.43,50.8,197.43Z" style="fill:#434343"></path><path d="M50.8,197.43s-18,76.92,32.14,143.94,137.54,93.07,207.8,116,136.06-3.55,160.74-62.59-25.17-90.84-36.17-168-2.22-99.32-53.5-158-156.51-57.32-227.66,3S50.8,197.43,50.8,197.43Z" style="fill:#fff;opacity:0.7000000000000001"></path></g><g id="freepik--Plant--inject-2"><path d="M99.75,193s.6,74.37.6,94-.6,137.27-.6,137.27" style="fill:none;stroke:#263238;stroke-linecap:round;stroke-linejoin:round;stroke-width:3px"></path><polygon points="144.38 212.08 125.93 196.61 177.7 202.56 131.88 187.68 178.89 179.35 125.93 179.35 166.99 148.41 120.58 171.62 147.35 125.8 111.65 166.86 124.15 106.76 100.94 162.69 98.56 100.22 93.8 163.88 68.48 107.64 86.07 169.24 48.2 127.92 81.31 178.76 34.43 145.31 78.33 187.68 28.63 160.53 74.17 191.25 32.98 185.88 72.98 197.2 40.95 202.55 74.17 201.37 54.53 214.46 100.94 201.96 144.38 212.08" style="fill:#434343"></polygon><path d="M81.9,268s-1.78,15.47-.59,21.42a108.7,108.7,0,0,1,1.78,20.82c0,7.74.6,40.61.6,46s-.6,50.85-.6,55v14.28" style="fill:none;stroke:#263238;stroke-linecap:round;stroke-linejoin:round;stroke-width:3px"></path><path d="M83.69,350.27S86.07,304.9,88.45,299s4.16-4.17,4.76-11.31.59-10.11,1.78-12.49a48.75,48.75,0,0,0,2.38-6.55l1.19-4.76" style="fill:none;stroke:#263238;stroke-linecap:round;stroke-linejoin:round;stroke-width:3px"></path><polygon points="125.93 283.48 107.49 268.01 159.25 273.96 113.44 259.08 160.44 250.75 107.49 250.75 148.54 219.81 102.13 243.02 128.91 197.2 93.21 238.26 105.7 178.16 82.5 234.09 80.12 171.62 75.36 235.28 56.91 177.57 67.62 240.64 34.9 193.63 62.86 250.16 19.94 222.11 59.89 259.08 15.59 240.95 55.72 262.65 14.14 259.06 54.53 268.6 26.46 275 55.72 272.77 36.09 285.86 82.5 273.36 125.93 283.48" style="fill:#434343"></polygon><polygon points="117.2 376.69 103.4 365.12 142.13 369.57 107.85 358.44 143.02 352.21 103.4 352.21 134.12 329.06 99.4 346.42 119.43 312.14 92.72 342.86 102.07 297.9 84.7 339.74 82.92 293 79.36 340.63 65.56 297.45 73.58 344.64 49.09 309.47 70.02 351.76 37.9 330.78 67.79 358.44 34.65 344.87 64.67 361.11 33.56 358.43 63.78 365.56 42.78 370.35 64.67 368.68 49.98 378.47 84.7 369.12 117.2 376.69" style="fill:#434343"></polygon><path d="M65.6,408.65,52.87,429.88a14,14,0,0,0-1.52,10.84L57,461.81A7,7,0,0,0,63.8,467h58a7,7,0,0,0,6.78-5.2l5.66-21.09a14,14,0,0,0-1.51-10.84L120,408.65a4.81,4.81,0,0,0-4.12-2.33H69.73A4.81,4.81,0,0,0,65.6,408.65Z" style="fill:#fff;stroke:#263238;stroke-linejoin:round"></path></g><g id="freepik--Picture--inject-2"><rect x="279.83" y="55.66" width="119.43" height="169.46" style="fill:none;stroke:#263238;stroke-linecap:round;stroke-linejoin:round"></rect><rect x="284.38" y="62.11" width="110.33" height="156.55" style="fill:none;stroke:#263238;stroke-linecap:round;stroke-linejoin:round"></rect><path d="M284.54,206.1c12.9-17.95,32.63-28,53.21-35.2,17.62-6.15,30.06-14.57,39.1-31.47,13.13-24.54,6.38-56.71,0-77.22" style="fill:none;stroke:#263238;stroke-linecap:round;stroke-linejoin:round"></path><path d="M339,62.35c8.47,11.6,18.45,31.42,10.8,54.09-6,17.69-17.49,24.64-33.37,13.27-9.53-6.82-20-18.9-31.91-24.39" style="fill:none;stroke:#263238;stroke-linecap:round;stroke-linejoin:round"></path><path d="M339.8,218.68c5.54-3.34,12.9-9.36,21.27-20.18,3.79-4.89,10.86-13.7,18.2-11.49,8.27,2.49,8.75,15.29,6.82,21.92a41.68,41.68,0,0,1-4.35,9.68" style="fill:none;stroke:#263238;stroke-linecap:round;stroke-linejoin:round"></path><circle cx="310.12" cy="156.57" r="13.08" style="fill:none;stroke:#263238;stroke-linecap:round;stroke-linejoin:round"></circle><path d="M334,75.18a4.73,4.73,0,1,1-4.73-4.74A4.73,4.73,0,0,1,334,75.18Z" style="fill:none;stroke:#263238;stroke-linecap:round;stroke-linejoin:round"></path><circle cx="381.81" cy="166.49" r="5.41" style="fill:none;stroke:#263238;stroke-linecap:round;stroke-linejoin:round"></circle></g><g id="freepik--Ruler--inject-2"><path d="M416.15,85.15V259.49H427.7V85.15Zm5.78,8.08a1.51,1.51,0,1,1,0-3,1.51,1.51,0,0,1,0,3Z" style="fill:#434343;stroke:#263238;stroke-linecap:round;stroke-linejoin:round"></path><path d="M424.46,246H382.19c1.24,2.22,4.5,7,9.95,7.89,7.14,1.13,15-1.5,21.8,5.64h16c6.76-7.14,14.65-4.51,21.79-5.64,5.46-.86,8.72-5.67,10-7.89Z" style="fill:#263238;stroke:#263238;stroke-linecap:round;stroke-linejoin:round"></path></g><g id="freepik--Desk--inject-2"><rect x="153.01" y="286.33" width="61.33" height="80.67" style="fill:#263238;stroke:#263238;stroke-linecap:round;stroke-linejoin:round"></rect><rect x="182.34" y="286.33" width="61.33" height="80.67" style="fill:#fff;stroke:#263238;stroke-linecap:round;stroke-linejoin:round"></rect><rect x="187.01" y="327.8" width="52" height="30.53" style="fill:#fff;stroke:#263238;stroke-linecap:round;stroke-linejoin:round"></rect><rect x="187.01" y="292.47" width="52" height="30.53" style="fill:#fff;stroke:#263238;stroke-linecap:round;stroke-linejoin:round"></rect><rect x="203.81" y="305" width="18.4" height="5.47" style="fill:#263238;stroke:#263238;stroke-linecap:round;stroke-linejoin:round"></rect><rect x="203.81" y="338.33" width="18.4" height="5.47" style="fill:#263238;stroke:#263238;stroke-linecap:round;stroke-linejoin:round"></rect><path d="M129.59,285.5H117.24c48.13,31,85.41,121.73,86.31,181.51h7c-.43-31.68-10.13-70.21-26.78-106.15C168.48,327.74,149.52,301.5,129.59,285.5Z" style="fill:#263238"></path><path d="M163.15,285.5c-19.93,16-38.89,42.24-54.23,75.36C92.27,396.8,82.57,435.33,82.14,467h7c.9-59.78,38.18-150.55,86.31-181.51Z" style="fill:#263238"></path><path d="M290.86,286.45H278.51c48.12,31,85.41,121.73,86.31,181.51h7.05c-.43-31.68-10.13-70.21-26.78-106.15C329.75,328.69,310.78,302.45,290.86,286.45Z" style="fill:#263238"></path><path d="M324.42,286.45c-19.93,16-38.89,42.24-54.24,75.36C253.54,397.75,243.83,436.28,243.4,468h7.06c.89-59.78,38.18-150.55,86.31-181.51Z" style="fill:#263238"></path><polygon points="295.31 167.82 298.51 160.71 123.83 160.71 123.62 161.17 120.62 167.82 159.49 283.79 334.18 283.79 295.31 167.82" style="fill:#263238;stroke:#263238;stroke-linecap:round;stroke-linejoin:round"></polygon><polygon points="340.18 283.79 165.49 283.79 123.83 160.71 298.51 160.71 340.18 283.79" style="fill:#fff;stroke:#263238;stroke-linecap:round;stroke-linejoin:round"></polygon><polygon points="320.91 272.83 177.33 272.83 143.09 171.67 286.67 171.67 320.91 272.83" style="fill:#fff;stroke:#263238;stroke-linecap:round;stroke-linejoin:round"></polygon><polygon points="234.24 225.97 284.52 225.97 277.63 205.59 227.34 205.59 234.24 225.97" style="fill:#fff;stroke:#263238;stroke-linecap:round;stroke-linejoin:round;stroke-width:0.5px"></polygon><polygon points="228 207.54 278.29 207.54 277.63 205.59 227.34 205.59 228 207.54" style="fill:#fff;stroke:#263238;stroke-linecap:round;stroke-linejoin:round;stroke-width:0.5px"></polygon><polygon points="279.21 203.86 226.98 203.86 222.65 191.07 266.87 191.07 279.21 203.86" style="fill:#fff;stroke:#263238;stroke-linecap:round;stroke-linejoin:round;stroke-width:0.5px"></polygon><polygon points="227.35 206.25 280.02 206.25 279.21 203.86 226.54 203.86 227.35 206.25" style="fill:#fff;stroke:#263238;stroke-linecap:round;stroke-linejoin:round;stroke-width:0.5px"></polygon><polygon points="234 198.88 198.76 198.88 204.53 215.93 239.77 215.93 234 198.88" style="fill:#fff;stroke:#263238;stroke-linecap:round;stroke-linejoin:round;stroke-width:0.5px"></polygon><polygon points="234 198.88 198.76 198.88 199.35 200.61 234.59 200.61 234 198.88" style="fill:#fff;stroke:#263238;stroke-linecap:round;stroke-linejoin:round;stroke-width:0.5px"></polygon><polygon points="210.1 181.51 195.8 195.93 234.15 195.93 210.1 181.51" style="fill:#fff;stroke:#263238;stroke-linecap:round;stroke-linejoin:round;stroke-width:0.5px"></polygon><polygon points="210.76 183.48 199.39 194.95 229.9 194.95 210.76 183.48" style="fill:#fff;stroke:#263238;stroke-linecap:round;stroke-linejoin:round;stroke-width:0.5px"></polygon><polygon points="190.14 249.47 187.84 249.47 178.83 222.82 181.12 222.82 190.14 249.47" style="fill:#fff;stroke:#263238;stroke-linecap:round;stroke-linejoin:round;stroke-width:0.5px"></polygon><polygon points="299.6 249.39 193.39 249.39 184.4 222.82 290.62 222.82 299.6 249.39" style="fill:#fff;stroke:#263238;stroke-linecap:round;stroke-linejoin:round;stroke-width:0.5px"></polygon><polygon points="291.61 225.75 185.39 225.75 184.4 222.82 290.62 222.82 291.61 225.75" style="fill:#fff;stroke:#263238;stroke-linecap:round;stroke-linejoin:round;stroke-width:0.5px"></polygon><polygon points="247.56 222 175.6 222 179 214.13 244.9 214.13 247.56 222" style="fill:#fff;stroke:#263238;stroke-linecap:round;stroke-linejoin:round;stroke-width:0.5px"></polygon><polygon points="234.67 223.64 176.15 223.64 175.6 222 234.12 222 234.67 223.64" style="fill:#fff;stroke:#263238;stroke-linecap:round;stroke-linejoin:round;stroke-width:0.5px"></polygon><polygon points="290.34 222 231 222 240.27 249.39 299.6 249.39 290.34 222" style="fill:#fff;stroke:#263238;stroke-linecap:round;stroke-linejoin:round;stroke-width:0.5px"></polygon><polygon points="289.35 223.59 233.06 223.59 241.79 249.39 298.08 249.39 289.35 223.59" style="fill:#fff;stroke:#263238;stroke-linecap:round;stroke-linejoin:round;stroke-width:0.5px"></polygon><polygon points="285.88 227.24 239 227.24 246.5 249.39 293.38 249.39 285.88 227.24" style="fill:#fff;stroke:#263238;stroke-linecap:round;stroke-linejoin:round;stroke-width:0.5px"></polygon><polygon points="254.58 238.36 243.99 238.36 242.58 234.19 253.16 234.19 254.58 238.36" style="fill:#fff;stroke:#263238;stroke-linecap:round;stroke-linejoin:round;stroke-width:0.5px"></polygon><polygon points="265.88 238.36 255.29 238.36 253.88 234.19 264.46 234.19 265.88 238.36" style="fill:#fff;stroke:#263238;stroke-linecap:round;stroke-linejoin:round;stroke-width:0.5px"></polygon><polygon points="256.26 243.35 245.68 243.35 244.26 239.18 254.85 239.18 256.26 243.35" style="fill:#fff;stroke:#263238;stroke-linecap:round;stroke-linejoin:round;stroke-width:0.5px"></polygon><polygon points="267.56 243.35 256.98 243.35 255.56 239.18 266.15 239.18 267.56 243.35" style="fill:#fff;stroke:#263238;stroke-linecap:round;stroke-linejoin:round;stroke-width:0.5px"></polygon><polygon points="257.95 248.34 247.36 248.34 245.95 244.17 256.54 244.17 257.95 248.34" style="fill:#fff;stroke:#263238;stroke-linecap:round;stroke-linejoin:round;stroke-width:0.5px"></polygon><polygon points="269.25 248.34 258.66 248.34 257.25 244.17 267.84 244.17 269.25 248.34" style="fill:#fff;stroke:#263238;stroke-linecap:round;stroke-linejoin:round;stroke-width:0.5px"></polygon><polygon points="277.18 238.36 266.59 238.36 265.18 234.19 275.77 234.19 277.18 238.36" style="fill:#fff;stroke:#263238;stroke-linecap:round;stroke-linejoin:round;stroke-width:0.5px"></polygon><polygon points="288.48 238.36 277.89 238.36 276.48 234.19 287.07 234.19 288.48 238.36" style="fill:#fff;stroke:#263238;stroke-linecap:round;stroke-linejoin:round;stroke-width:0.5px"></polygon><polygon points="278.87 243.35 268.28 243.35 266.87 239.18 277.45 239.18 278.87 243.35" style="fill:#fff;stroke:#263238;stroke-linecap:round;stroke-linejoin:round;stroke-width:0.5px"></polygon><polygon points="290.17 243.35 279.58 243.35 278.17 239.18 288.75 239.18 290.17 243.35" style="fill:#fff;stroke:#263238;stroke-linecap:round;stroke-linejoin:round;stroke-width:0.5px"></polygon><polygon points="280.55 248.34 269.96 248.34 268.55 244.17 279.14 244.17 280.55 248.34" style="fill:#fff;stroke:#263238;stroke-linecap:round;stroke-linejoin:round;stroke-width:0.5px"></polygon><polygon points="291.85 248.34 281.27 248.34 279.85 244.17 290.44 244.17 291.85 248.34" style="fill:#fff;stroke:#263238;stroke-linecap:round;stroke-linejoin:round;stroke-width:0.5px"></polygon><polygon points="251.09 195.59 228.82 222.32 291.43 222.32 251.09 195.59" style="fill:#fff;stroke:#263238;stroke-linecap:round;stroke-linejoin:round;stroke-width:0.5px"></polygon><polygon points="252.32 199.24 234.61 220.5 284.41 220.5 252.32 199.24" style="fill:#fff;stroke:#263238;stroke-linecap:round;stroke-linejoin:round;stroke-width:0.5px"></polygon><polygon points="235.7 199.05 196.85 199.05 195.8 195.93 234.65 195.93 235.7 199.05" style="fill:#fff;stroke:#263238;stroke-linecap:round;stroke-linejoin:round;stroke-width:0.5px"></polygon><polygon points="232.6 213.15 209.65 213.15 205.16 199.87 228.11 199.87 232.6 213.15" style="fill:#fff;stroke:#263238;stroke-linecap:round;stroke-linejoin:round;stroke-width:0.5px"></polygon><polygon points="229.32 213.15 212.93 213.15 208.44 199.87 224.83 199.87 229.32 213.15" style="fill:#fff;stroke:#263238;stroke-linecap:round;stroke-linejoin:round;stroke-width:0.5px"></polygon><polygon points="221.78 213.15 220.47 213.15 215.98 199.87 217.29 199.87 221.78 213.15" style="fill:#fff;stroke:#263238;stroke-linecap:round;stroke-linejoin:round;stroke-width:0.5px"></polygon><polygon points="210.96 207.08 210.57 205.93 226.8 205.93 227.19 207.08 210.96 207.08" style="fill:#fff;stroke:#263238;stroke-linecap:round;stroke-linejoin:round;stroke-width:0.5px"></polygon><polygon points="219.81 245.11 196.86 245.11 191.31 228.72 214.26 228.72 219.81 245.11" style="fill:#fff;stroke:#263238;stroke-linecap:round;stroke-linejoin:round;stroke-width:0.5px"></polygon><polygon points="216.53 245.11 200.13 245.11 194.59 228.72 210.98 228.72 216.53 245.11" style="fill:#fff;stroke:#263238;stroke-linecap:round;stroke-linejoin:round;stroke-width:0.5px"></polygon><polygon points="208.99 245.11 207.68 245.11 202.13 228.72 203.44 228.72 208.99 245.11" style="fill:#fff;stroke:#263238;stroke-linecap:round;stroke-linejoin:round;stroke-width:0.5px"></polygon><polygon points="197.69 237.62 197.21 236.2 213.49 236.2 213.97 237.62 197.69 237.62" style="fill:#fff;stroke:#263238;stroke-linecap:round;stroke-linejoin:round;stroke-width:0.5px"></polygon><polygon points="230.6 229.04 221.75 229.04 228.57 249.21 237.42 249.21 230.6 229.04" style="fill:#fff;stroke:#263238;stroke-linecap:round;stroke-linejoin:round;stroke-width:0.5px"></polygon><polygon points="229.55 230.3 223.65 230.3 228.93 245.93 234.83 245.93 229.55 230.3" style="fill:#fff;stroke:#263238;stroke-linecap:round;stroke-linejoin:round;stroke-width:0.5px"></polygon><polygon points="242.72 230.41 242.43 229.54 240.88 229.54 241.18 230.41 242.72 230.41" style="fill:#fff;stroke:#263238;stroke-linecap:round;stroke-linejoin:round;stroke-width:0.5px"></polygon><polygon points="243.4 230.41 244.95 230.41 244.65 229.54 243.11 229.54 243.4 230.41" style="fill:#fff;stroke:#263238;stroke-linecap:round;stroke-linejoin:round;stroke-width:0.5px"></polygon><polygon points="242.88 230.88 241.34 230.88 241.71 231.97 243.25 231.97 242.88 230.88" style="fill:#fff;stroke:#263238;stroke-linecap:round;stroke-linejoin:round;stroke-width:0.5px"></polygon><polygon points="243.56 230.88 243.93 231.97 245.48 231.97 245.11 230.88 243.56 230.88" style="fill:#fff;stroke:#263238;stroke-linecap:round;stroke-linejoin:round;stroke-width:0.5px"></polygon><polygon points="248.54 230.41 248.24 229.54 246.7 229.54 246.99 230.41 248.54 230.41" style="fill:#fff;stroke:#263238;stroke-linecap:round;stroke-linejoin:round;stroke-width:0.5px"></polygon><polygon points="249.22 230.41 250.76 230.41 250.47 229.54 248.93 229.54 249.22 230.41" style="fill:#fff;stroke:#263238;stroke-linecap:round;stroke-linejoin:round;stroke-width:0.5px"></polygon><polygon points="248.7 230.88 247.15 230.88 247.52 231.97 249.07 231.97 248.7 230.88" style="fill:#fff;stroke:#263238;stroke-linecap:round;stroke-linejoin:round;stroke-width:0.5px"></polygon><polygon points="249.38 230.88 249.75 231.97 251.29 231.97 250.92 230.88 249.38 230.88" style="fill:#fff;stroke:#263238;stroke-linecap:round;stroke-linejoin:round;stroke-width:0.5px"></polygon><polygon points="254.35 230.41 254.06 229.54 252.51 229.54 252.81 230.41 254.35 230.41" style="fill:#fff;stroke:#263238;stroke-linecap:round;stroke-linejoin:round;stroke-width:0.5px"></polygon><polygon points="255.03 230.41 256.58 230.41 256.28 229.54 254.74 229.54 255.03 230.41" style="fill:#fff;stroke:#263238;stroke-linecap:round;stroke-linejoin:round;stroke-width:0.5px"></polygon><polygon points="254.51 230.88 252.97 230.88 253.34 231.97 254.88 231.97 254.51 230.88" style="fill:#fff;stroke:#263238;stroke-linecap:round;stroke-linejoin:round;stroke-width:0.5px"></polygon><polygon points="255.19 230.88 255.56 231.97 257.11 231.97 256.74 230.88 255.19 230.88" style="fill:#fff;stroke:#263238;stroke-linecap:round;stroke-linejoin:round;stroke-width:0.5px"></polygon><polygon points="260.17 230.41 259.87 229.54 258.33 229.54 258.62 230.41 260.17 230.41" style="fill:#fff;stroke:#263238;stroke-linecap:round;stroke-linejoin:round;stroke-width:0.5px"></polygon><polygon points="260.85 230.41 262.39 230.41 262.1 229.54 260.56 229.54 260.85 230.41" style="fill:#fff;stroke:#263238;stroke-linecap:round;stroke-linejoin:round;stroke-width:0.5px"></polygon><polygon points="260.33 230.88 258.78 230.88 259.15 231.97 260.7 231.97 260.33 230.88" style="fill:#fff;stroke:#263238;stroke-linecap:round;stroke-linejoin:round;stroke-width:0.5px"></polygon><polygon points="261.01 230.88 261.38 231.97 262.92 231.97 262.55 230.88 261.01 230.88" style="fill:#fff;stroke:#263238;stroke-linecap:round;stroke-linejoin:round;stroke-width:0.5px"></polygon><polygon points="265.98 230.41 265.69 229.54 264.14 229.54 264.44 230.41 265.98 230.41" style="fill:#fff;stroke:#263238;stroke-linecap:round;stroke-linejoin:round;stroke-width:0.5px"></polygon><polygon points="266.66 230.41 268.21 230.41 267.91 229.54 266.37 229.54 266.66 230.41" style="fill:#fff;stroke:#263238;stroke-linecap:round;stroke-linejoin:round;stroke-width:0.5px"></polygon><polygon points="266.14 230.88 264.6 230.88 264.97 231.97 266.51 231.97 266.14 230.88" style="fill:#fff;stroke:#263238;stroke-linecap:round;stroke-linejoin:round;stroke-width:0.5px"></polygon><polygon points="266.82 230.88 267.19 231.97 268.74 231.97 268.37 230.88 266.82 230.88" style="fill:#fff;stroke:#263238;stroke-linecap:round;stroke-linejoin:round;stroke-width:0.5px"></polygon><polygon points="271.8 230.41 271.5 229.54 269.96 229.54 270.25 230.41 271.8 230.41" style="fill:#fff;stroke:#263238;stroke-linecap:round;stroke-linejoin:round;stroke-width:0.5px"></polygon><polygon points="272.48 230.41 274.02 230.41 273.73 229.54 272.19 229.54 272.48 230.41" style="fill:#fff;stroke:#263238;stroke-linecap:round;stroke-linejoin:round;stroke-width:0.5px"></polygon><polygon points="271.96 230.88 270.42 230.88 270.78 231.97 272.33 231.97 271.96 230.88" style="fill:#fff;stroke:#263238;stroke-linecap:round;stroke-linejoin:round;stroke-width:0.5px"></polygon><polygon points="272.64 230.88 273.01 231.97 274.55 231.97 274.19 230.88 272.64 230.88" style="fill:#fff;stroke:#263238;stroke-linecap:round;stroke-linejoin:round;stroke-width:0.5px"></polygon><polygon points="277.61 230.41 277.32 229.54 275.77 229.54 276.07 230.41 277.61 230.41" style="fill:#fff;stroke:#263238;stroke-linecap:round;stroke-linejoin:round;stroke-width:0.5px"></polygon><polygon points="278.29 230.41 279.84 230.41 279.55 229.54 278 229.54 278.29 230.41" style="fill:#fff;stroke:#263238;stroke-linecap:round;stroke-linejoin:round;stroke-width:0.5px"></polygon><polygon points="277.77 230.88 276.23 230.88 276.6 231.97 278.14 231.97 277.77 230.88" style="fill:#fff;stroke:#263238;stroke-linecap:round;stroke-linejoin:round;stroke-width:0.5px"></polygon><polygon points="278.46 230.88 278.82 231.97 280.37 231.97 280 230.88 278.46 230.88" style="fill:#fff;stroke:#263238;stroke-linecap:round;stroke-linejoin:round;stroke-width:0.5px"></polygon><polygon points="283.43 230.41 283.13 229.54 281.59 229.54 281.88 230.41 283.43 230.41" style="fill:#fff;stroke:#263238;stroke-linecap:round;stroke-linejoin:round;stroke-width:0.5px"></polygon><polygon points="284.11 230.41 285.65 230.41 285.36 229.54 283.82 229.54 284.11 230.41" style="fill:#fff;stroke:#263238;stroke-linecap:round;stroke-linejoin:round;stroke-width:0.5px"></polygon><polygon points="283.59 230.88 282.05 230.88 282.41 231.97 283.96 231.97 283.59 230.88" style="fill:#fff;stroke:#263238;stroke-linecap:round;stroke-linejoin:round;stroke-width:0.5px"></polygon><polygon points="284.27 230.88 284.64 231.97 286.18 231.97 285.81 230.88 284.27 230.88" style="fill:#fff;stroke:#263238;stroke-linecap:round;stroke-linejoin:round;stroke-width:0.5px"></polygon><line x1="191.5" y1="196.53" x2="164.09" y2="196.53" style="fill:none;stroke:#263238;stroke-linecap:round;stroke-linejoin:round;stroke-width:0.5px"></line><line x1="159.93" y1="185.81" x2="170.05" y2="216.78" style="fill:none;stroke:#263238;stroke-linecap:round;stroke-linejoin:round;stroke-width:0.5px"></line><line x1="271.31" y1="190.57" x2="286.21" y2="190.57" style="fill:none;stroke:#263238;stroke-linecap:round;stroke-linejoin:round;stroke-width:0.5px"></line><line x1="282.04" y1="186.4" x2="299.91" y2="235.84" style="fill:none;stroke:#263238;stroke-linecap:round;stroke-linejoin:round;stroke-width:0.5px"></line><polygon points="196.81 186.01 165.31 186.01 163.61 180.17 195.1 180.17 196.81 186.01" style="fill:#fff;stroke:#263238;stroke-linecap:round;stroke-linejoin:round"></polygon><line x1="170.25" y1="180.62" x2="171.81" y2="185.81" style="fill:none;stroke:#263238;stroke-linecap:round;stroke-linejoin:round"></line><line x1="171.29" y1="183.47" x2="195.68" y2="183.47" style="fill:none;stroke:#263238;stroke-linecap:round;stroke-linejoin:round"></line><path d="M150.85,213.21,174.13,282h67.34Zm18.83,25.19,44.72,33.94H181.16Z" style="fill:#434343;stroke:#263238;stroke-linecap:round;stroke-linejoin:round"></path><rect x="99.43" y="281.17" width="221.97" height="7.51" style="fill:#263238;stroke:#263238;stroke-linecap:round;stroke-linejoin:round"></rect><rect x="167.78" y="281.17" width="177.82" height="7.51" style="fill:#fff;stroke:#263238;stroke-linecap:round;stroke-linejoin:round"></rect></g><g id="freepik--Lamp--inject-2"><path d="M159.68,156.34a2.5,2.5,0,0,1-2.47-2.19L146.77,71.31a2.5,2.5,0,0,1,5-.62l10.44,82.83a2.5,2.5,0,0,1-2.17,2.79A1.73,1.73,0,0,1,159.68,156.34Z" style="fill:#263238"></path><path d="M149.9,75.76a1.5,1.5,0,0,1-.25-3L214.22,61.7a1.5,1.5,0,0,1,.51,3L150.16,75.74A1.14,1.14,0,0,1,149.9,75.76Z" style="fill:#263238"></path><path d="M151.21,83.59a1.5,1.5,0,0,1-.26-3l64.58-11.09a1.5,1.5,0,1,1,.5,3L151.46,83.57Z" style="fill:#263238"></path><polygon points="215.13 61.22 206.65 74.91 221.65 76.22 222.95 72.96 215.13 61.22" style="fill:#263238"></polygon><path d="M221.65,76.72h0l-15-1.31a.5.5,0,0,1-.38-.76L214.7,61a.5.5,0,0,1,.42-.23.54.54,0,0,1,.42.22l7.83,11.74a.5.5,0,0,1,0,.46l-1.31,3.26A.48.48,0,0,1,221.65,76.72ZM207.5,74.49l13.82,1.2L222.39,73l-7.25-10.88Z" style="fill:#263238"></path><path d="M250.47,97.1l-8.6-18.92c0-2.22-4.67-4-10.44-4S221,76,221,78.18L212.39,97.1a3.88,3.88,0,0,0-1.18,2.6c0,4.29,9.06,7.78,20.22,7.78s20.22-3.49,20.22-7.78A3.88,3.88,0,0,0,250.47,97.1Z" style="fill:#263238"></path><path d="M231.43,108c-11.62,0-20.72-3.64-20.72-8.28A4.33,4.33,0,0,1,212,96.82l8.53-18.76c.14-2.52,4.79-4.4,10.93-4.4s10.8,1.88,10.94,4.4l8.52,18.76a4.28,4.28,0,0,1,1.26,2.88C252.15,104.34,243.05,108,231.43,108Zm0-33.32c-5.85,0-9.93,1.85-9.93,3.52a.46.46,0,0,1-.05.2l-8.6,18.93a.38.38,0,0,1-.09.13,3.4,3.4,0,0,0-1,2.26c0,3.94,9,7.28,19.72,7.28s19.72-3.34,19.72-7.28a3.36,3.36,0,0,0-1.05-2.26.57.57,0,0,1-.08-.13l-8.61-18.93a.45.45,0,0,1,0-.2C241.37,76.51,237.29,74.66,231.43,74.66Z" style="fill:#263238"></path><polygon points="222.95 59.91 221 78.18 241.87 78.18 239.91 59.91 222.95 59.91" style="fill:#263238"></polygon><path d="M241.87,78.68H221a.5.5,0,0,1-.38-.17.51.51,0,0,1-.12-.39l2-18.26a.5.5,0,0,1,.49-.45h17a.51.51,0,0,1,.5.45l2,18.26a.52.52,0,0,1-.13.39A.48.48,0,0,1,241.87,78.68Zm-20.32-1h19.76l-1.85-17.27H223.4Z" style="fill:#263238"></path><path d="M239.91,59.91c0,1.8-3.79,3.26-8.48,3.26S223,61.71,223,59.91s3.8-3.26,8.48-3.26S239.91,58.11,239.91,59.91Z" style="fill:#636363"></path><path d="M231.43,63.67c-4.35,0-9-1.31-9-3.76s4.63-3.76,9-3.76,9,1.32,9,3.76S235.79,63.67,231.43,63.67Zm0-6.52c-4.7,0-8,1.46-8,2.76s3.28,2.76,8,2.76,8-1.45,8-2.76S236.13,57.15,231.43,57.15Z" style="fill:#263238"></path><path d="M162.6,145.62l-7.94,14.21,4.08,2.92a6.82,6.82,0,0,0,3.95,1.26h0a6.8,6.8,0,0,0,5.3-2.55l1.3-1.63-4.18-13.38Z" style="fill:#263238"></path><path d="M162.69,164.51a7.26,7.26,0,0,1-4.24-1.36l-4.08-2.91a.5.5,0,0,1-.15-.65l7.95-14.22a.49.49,0,0,1,.59-.23l2.51.84a.51.51,0,0,1,.32.32l4.18,13.38a.48.48,0,0,1-.09.46l-1.3,1.64A7.28,7.28,0,0,1,162.69,164.51Zm-7.37-4.83,3.72,2.66a6.28,6.28,0,0,0,8.56-1.19l1.14-1.42-4-12.89-1.87-.62Z" style="fill:#263238"></path><path d="M164.25,151.42a1.49,1.49,0,0,1-1.46-1.18l-9.13-41.74a1.5,1.5,0,1,1,2.93-.64l9.13,41.74a1.51,1.51,0,0,1-1.15,1.79A1.66,1.66,0,0,1,164.25,151.42Z" style="fill:#263238"></path><path d="M214.47,64.67a1.5,1.5,0,0,1-1.32-.78c-.11-.21-2.75-5.2-1.28-9.24a6.64,6.64,0,0,1,4-4,7,7,0,0,1,6,.06c3.35,1.71,4.46,6,4.51,6.19a1.5,1.5,0,0,1-2.91.73s-.84-3.17-3-4.26a4.09,4.09,0,0,0-3.5.07,3.74,3.74,0,0,0-2.3,2.19c-.84,2.3.51,5.69,1.11,6.8a1.51,1.51,0,0,1-.62,2A1.49,1.49,0,0,1,214.47,64.67Z" style="fill:#263238"></path></g><g id="freepik--Character--inject-2"><path d="M354.2,307.38s-4.36,6.38-7.92,9.62a125.67,125.67,0,0,0-23.53,28.66c-9,15.32-15.33,31-21.31,44.52s-16.77,38.57-22.24,46.19-9.08,11.69-9.08,11.69-8.95.2-19.55-.73-15-2.86-15.11-.1,7.16,10.36,12.42,11.67,12,3.35,13.6,4.92,3.67,3.37,6.28,2.22,10.59-12.26,19.48-19.92S306.71,430.88,316.3,413s10.08-28,16.79-34.73,13.82-17.22,22.39-22.76,34.19-15.8,42.37-26.48,3.91-23.65-4-28.29S360.35,294.48,354.2,307.38Z" style="fill:#263238;stroke:#263238;stroke-linecap:round;stroke-linejoin:round"></path><path d="M285.53,425.11a92.74,92.74,0,0,1-6.33,11.26c-5.48,7.61-9.08,11.69-9.08,11.69s-8.95.2-19.55-.73-15-2.86-15.11-.1,7.16,10.36,12.42,11.67,12,3.35,13.6,4.92,3.67,3.37,6.28,2.22,10.59-12.26,19.48-19.92c4.13-3.56,8.64-7.12,13.24-11.69A28.74,28.74,0,0,1,285.53,425.11Z" style="fill:#fff;stroke:#263238;stroke-linecap:round;stroke-linejoin:round"></path><path d="M267.76,466a16.89,16.89,0,0,0,3.78-3.48c-7.18-1.43-10.9-5.05-14.18-6a35.56,35.56,0,0,1-8.55-3.82l3.58-5.3-1.82-.15c-10.6-.94-15-2.86-15.11-.1s7.16,10.36,12.42,11.67,12,3.35,13.6,4.92S265.15,467.19,267.76,466Z" style="fill:#434343;stroke:#263238;stroke-linecap:round;stroke-linejoin:round"></path><path d="M280.2,341.2a83.63,83.63,0,0,0,6.17,17.44c4.25,8.5,13.61,17.43,20.41,22.54s28.71,24.66,39.55,40.18c1.36,1.95-3.83,8.51-10.21,14.25s-9.14,7.86-5.74,8.93,11.48.64,19.56-6.17,13.4-11.27,15.95-16.8c1.28-2.76-5.74-6.16-10-9.78s-20-27.42-24.88-38.48S313.8,346.52,304.66,341" style="fill:#263238;stroke:#263238;stroke-linecap:round;stroke-linejoin:round"></path><path d="M365.89,421.57c1.28-2.76-5.74-6.16-10-9.78-3.58-3-15.27-20.35-21.81-32.36l-14.47,12.79c9,8.32,20,19.51,26.71,29.14,1.36,1.95-3.83,8.51-10.21,14.25s-9.14,7.86-5.74,8.93,11.48.64,19.56-6.17S363.34,427.1,365.89,421.57Z" style="fill:#fff;stroke:#263238;stroke-linecap:round;stroke-linejoin:round"></path><path d="M361.52,415.93c-1.14,1.71-2.63,4-4.35,6.92-4,6.8-15.09,15.52-16.58,14a14.91,14.91,0,0,1-2.24-3.36c-.72.7-1.46,1.4-2.23,2.09-6.37,5.74-9.14,7.86-5.74,8.93s11.48.64,19.56-6.17,13.4-11.27,15.95-16.8C366.66,419.9,364.38,418,361.52,415.93Z" style="fill:#434343;stroke:#263238;stroke-linecap:round;stroke-linejoin:round"></path><rect x="346.97" y="435.39" width="72.29" height="3.4" style="fill:#fff;stroke:#263238;stroke-linecap:round;stroke-linejoin:round"></rect><path d="M353.56,344.18,340.91,465.12a1,1,0,0,0,1,1.07h0a1,1,0,0,0,1-.84l18.8-121.17Z" style="fill:#fff;stroke:#263238;stroke-linecap:round;stroke-linejoin:round"></path><path d="M411.39,344.18,424,465.12a1,1,0,0,1-1,1.07h0a1,1,0,0,1-1-.84l-18.8-121.17Z" style="fill:#fff;stroke:#263238;stroke-linecap:round;stroke-linejoin:round"></path><path d="M388.43,344.18l.63,121a1,1,0,0,1-1,1h0a1,1,0,0,1-1-.93l-6.75-121.08Z" style="fill:#fff;stroke:#263238;stroke-linecap:round;stroke-linejoin:round"></path><rect x="342.5" y="325.89" width="78.88" height="19.56" rx="4.97" style="fill:#434343;stroke:#263238;stroke-linecap:round;stroke-linejoin:round"></rect><path d="M281.91,348.86c-1.49-4.89-7.66-14.67,21.9-35.09,15.66-10.82,49.54-19.13,49.54-19.13l3.19-3.62s9.14,9.57,27,8.93,28.91-8.5,31-7.86,2.34,6.16,1.49,16.58-1.91,15.74-10.21,18.29-26.57,3.4-39.76,3.19a190.82,190.82,0,0,1-19.56-1.07s-28.28,17.86-45.92,19.14" style="fill:#263238;stroke:#263238;stroke-linecap:round;stroke-linejoin:round"></path><path d="M347.39,231.7c-1.28.41-40.18,8.08-43.58,7.44s-12.34-8.29-15.53-8.07-9.56,1.27-10.2,3,1.49,7.44,1.49,7.44-2.13,3.19-1.07,4.68,7.23-2.12,7.23-2.12,7,5.1,10.21,4,6.59-2.33,6.59-2.33,50,3,50.6,3.19,6.81,1.48,7.45-7.45S354.83,229.36,347.39,231.7Z" style="fill:#fff;stroke:#263238;stroke-linecap:round;stroke-linejoin:round"></path><line x1="279.57" y1="241.48" x2="288.28" y2="234.25" style="fill:none;stroke:#263238;stroke-linecap:round;stroke-linejoin:round"></line><polygon points="282.76 238.29 287.43 223.62 289.35 224.05 287.01 234.68 282.76 238.29" style="fill:#263238"></polygon><path d="M360.58,195.13s-9.24,8.28-11.52,15.52c-3.13,9.9-7.62,23.18-3.79,32.75a19.52,19.52,0,0,0,12.12,11.69s-3,28.07-2.13,35.51,12.33,16.16,29.55,16.8,32.11-5.53,32.11-11.49-12.12-37.63-12.12-44.22,1.06-27.22-4.68-45.71S374.18,181.52,360.58,195.13Z" style="fill:#434343;stroke:#263238;stroke-linecap:round;stroke-linejoin:round"></path><path d="M363.19,246.73s15.62,25.23,38.44,32.43" style="fill:none;stroke:#263238;stroke-linecap:round;stroke-linejoin:round"></path><path d="M361.39,250.93s6,19.82,21.62,29.43" style="fill:none;stroke:#263238;stroke-linecap:round;stroke-linejoin:round"></path><path d="M359.3,198.32a45.63,45.63,0,0,0-8.93,7.44c-4.89,5.11-28.49,40.83-28.49,40.83s7,14.67,9.14,15.09,39.12-31.25,42.53-35.08,5.52-10.84,4.46-13.82" style="fill:#434343;stroke:#263238;stroke-linecap:round;stroke-linejoin:round"></path><path d="M316.52,249s-12.22,3.18-19.21,4.7c-13,2.83-32.55,4.31-32.55,4.31a27.28,27.28,0,0,0-.78-6.27c-.79-2.74-2-2.74-3.53-6.27s-4.32-2.36-4.32-.79a30.59,30.59,0,0,0,1.18,5.49l-15.57-5.77a1.43,1.43,0,0,0-1.62.43h0a1.41,1.41,0,0,0,.28,2l7.5,4.5L236,248.2a1.46,1.46,0,0,0-1.65.77h0a1.48,1.48,0,0,0,.65,2L245.55,256l-9.85-.61a1.22,1.22,0,0,0-1.27,1h0a1.23,1.23,0,0,0,.94,1.39l11.35,2.53L238,262.21a1.19,1.19,0,0,0-.93,1.33h0a1.21,1.21,0,0,0,1.15,1c3.71.1,20.26,1.53,21.6,1.53,1.57,0,11.55,1.16,11.55,1.16s32.14,3.27,53.5-2.51Z" style="fill:#fff;stroke:#263238;stroke-linecap:round;stroke-linejoin:round"></path><path d="M313.8,248.71s6.59,15.74,8.08,17.44,9.35.64,11.9-1.28,2.13-5.74,2.13-5.74-9.78-17.22-10.84-18.07-1.49,1.06-6,2.55S313,245.74,313.8,248.71Z" style="fill:#fff;stroke:#263238;stroke-linecap:round;stroke-linejoin:round"></path><path d="M350.27,185.48a74.66,74.66,0,0,1,6,7.26,58.24,58.24,0,0,1,4.57,7.24l23.62-9.91s-12.19-10.29-14.1-17.91a79.1,79.1,0,0,0-3-10.28Z" style="fill:#fff;stroke:#263238;stroke-linecap:round;stroke-linejoin:round"></path><path d="M324.43,155s-.43,6.16.64,8.08,4,3.82,4,6.37-2.13,6-1.49,7.87,4,2.13,4,2.13S338,187.27,340,190s2.77,1.7,5.74.85,9.36-6.38,13-10.63-2.34-17.22-10.2-25.94-19.57-8.51-22.12-5.95S324.43,155,324.43,155Z" style="fill:#fff;stroke:#263238;stroke-linecap:round;stroke-linejoin:round"></path><path d="M328.36,163.61s.75-2.71,4.57-.58" style="fill:none;stroke:#263238;stroke-linecap:round;stroke-linejoin:round"></path><path d="M333.18,167.63c.66,1.19.85,2.35.43,2.58s-1.28-.56-1.94-1.75-.85-2.34-.43-2.57S332.53,166.44,333.18,167.63Z" style="fill:#263238"></path><path d="M326.21,166.83,329,171a4,4,0,0,0,4.91,1.4l.1,0a4,4,0,0,0,2.08-5.13l-1.53-3.82" style="fill:none;stroke:#263238;stroke-linecap:round;stroke-linejoin:round"></path><line x1="335.75" y1="162.63" x2="325.82" y2="167.04" style="fill:none;stroke:#263238;stroke-linecap:round;stroke-linejoin:round;stroke-width:2px"></line><line x1="335.75" y1="162.63" x2="349.06" y2="157.45" style="fill:none;stroke:#263238;stroke-linecap:round;stroke-linejoin:round;stroke-width:2px"></line><path d="M353.25,202.65s.33-5.73,3.05-9.91,11.43-11.05,20.57-12.57,11.81,8,11.81,11.05S368.49,193.88,353.25,202.65Z" style="fill:#fff;stroke:#263238;stroke-linecap:round;stroke-linejoin:round"></path><path d="M391,163.53s-4.67-9.88-7.24-17.08-7.72-15.94-19.54-22.11-27.82-1.59-27.82-1.59l3.6,3.09s-3.6-2.06-11.31,1-12.34,6.68-14.4,9.76a90,90,0,0,0-5.14,10.29l9.77-5.14s-5.14,5.14-6.17,9.77a68.61,68.61,0,0,0-1,11.82A24.41,24.41,0,0,1,323,156.69a31.25,31.25,0,0,0,10.8-4.63l-3.09,6.17H339c5.66,0,8.74-1.54,8.74-1.54v4.62s.51,6.17-1,10.29-6.17,8.22-6.17,8.22a39.38,39.38,0,0,0,5.14.52c2.06,0,6.69-2.57,6.69-2.57s-1,5.65-2.06,7.71-4.58,5.4-4.58,5.4,4.58,1.28,13.32-2.32c1.56-.64,3.37,3.2,5.05,2.62a40.72,40.72,0,0,0,5.71-1.26c8-2.29,12.44-12,12.44-12l1.9,4.57s3.43-4.57,3.43-9.9c0-3.06-1.74-6.73-3.24-9.31C388.9,162.21,391,163.53,391,163.53Z" style="fill:#263238;stroke:#263238;stroke-linecap:round;stroke-linejoin:round"></path><path d="M347.7,247.87a19,19,0,0,0,9.69,7.22s-.66,6.18-1.27,13.51l5.29-13.75,7.32,11.32-5.5-16.05.5-1.3,8.55,9.71-6.68-14.59,6.62-17.2Z" style="fill:#263238;stroke:#263238;stroke-linecap:round;stroke-linejoin:round"></path></g><g id="freepik--Floor--inject-2"><line x1="36.88" y1="467.01" x2="476.52" y2="467.01" style="fill:none;stroke:#263238;stroke-miterlimit:10"></line></g><g id="freepik--Papers--inject-2"><rect x="118.1" y="304.27" width="14.88" height="143.06" transform="translate(64.77 -15.73) rotate(9.65)" style="fill:#fff;stroke:#263238;stroke-linecap:round;stroke-linejoin:round"></rect><rect x="104.87" y="304.27" width="14.88" height="143.06" transform="translate(-92.11 41.06) rotate(-14.77)" style="fill:#fff;stroke:#263238;stroke-linecap:round;stroke-linejoin:round"></rect><rect x="131.33" y="308.4" width="14.88" height="143.06" transform="translate(75.23 -19.53) rotate(11.03)" style="fill:#fff;stroke:#263238;stroke-linecap:round;stroke-linejoin:round"></rect><rect x="93.29" y="371.92" width="57.06" height="95.1" style="fill:#434343;stroke:#263238;stroke-linecap:round;stroke-linejoin:round"></rect></g></svg>