<svg xmlns="http://www.w3.org/2000/svg" viewBox="0 0 500 500"><g id="freepik--background-complete--inject-1"><g><g><g><path d="M443.92,330.2h-180.75c-3.23,0-5.86-2.63-5.86-5.86V61.06c0-3.23,2.63-5.86,5.86-5.86h180.75c3.23,0,5.86,2.63,5.86,5.86V324.34c0,3.23-2.63,5.86-5.86,5.86ZM263.17,55.45c-3.09,0-5.61,2.52-5.61,5.61V324.34c0,3.09,2.52,5.61,5.61,5.61h180.75c3.09,0,5.61-2.52,5.61-5.61V61.06c0-3.09-2.52-5.61-5.61-5.61h-180.75Z" style="fill:#e0e0e0;"></path><path d="M235.49,330.2H54.75c-3.23,0-5.86-2.63-5.86-5.86V61.06c0-3.23,2.63-5.86,5.86-5.86H235.49c3.23,0,5.86,2.63,5.86,5.86V324.34c0,3.23-2.63,5.86-5.86,5.86ZM54.75,55.45c-3.09,0-5.61,2.52-5.61,5.61V324.34c0,3.09,2.52,5.61,5.61,5.61H235.49c3.09,0,5.61-2.52,5.61-5.61V61.06c0-3.09-2.52-5.61-5.61-5.61H54.75Z" style="fill:#e0e0e0;"></path></g><rect x="0" y="391.27" width="500" height=".25" style="fill:#e0e0e0;"></rect></g><rect x="51.67" y="405.53" width="16.06" height=".25" style="fill:#e0e0e0;"></rect><rect x="170.35" y="402.82" width="53.53" height=".25" style="fill:#e0e0e0;"></rect><rect x="68.73" y="414.82" width="36.25" height=".25" style="fill:#e0e0e0;"></rect><rect x="378.35" y="402.69" width="43.19" height=".25" style="fill:#e0e0e0;"></rect><rect x="430.45" y="402.69" width="6.33" height=".25" style="fill:#e0e0e0;"></rect><rect x="316.21" y="408.92" width="53.89" height=".25" style="fill:#e0e0e0;"></rect></g><rect x="227.62" y="250.54" width="56.13" height="18.17" style="fill:#f5f5f5;"></rect><rect x="394.31" y="137.65" width="56.13" height="18.17" style="fill:#f5f5f5;"></rect><rect x="402.08" y="332.43" width="56.13" height="18.17" style="fill:#f5f5f5;"></rect><rect x="140.09" y="29.49" width="56.13" height="18.17" style="fill:#f5f5f5;"></rect><g><rect x="327.38" y="215.15" width="56.13" height="18.17" style="fill:#ebebeb;"></rect><rect x="349.87" y="232.8" width="56.13" height="18.17" style="fill:#f5f5f5;"></rect></g><g><rect x="394.31" y="42.5" width="56.13" height="18.17" style="fill:#ebebeb;"></rect><rect x="416.79" y="60.16" width="56.13" height="18.17" style="fill:#f5f5f5;"></rect></g><g><rect x="112.03" y="349.19" width="56.13" height="18.17" style="fill:#ebebeb;"></rect><rect x="134.51" y="366.84" width="56.13" height="18.17" style="fill:#f5f5f5;"></rect></g><g><rect x="41.3" y="203.68" width="56.13" height="18.17" style="fill:#f0f0f0;"></rect><rect x="63.78" y="221.33" width="56.13" height="18.17" style="fill:#f5f5f5;"></rect></g><g><g><rect x="58.98" y="154.26" width="174.66" height="9.77" style="fill:#e6e6e6;"></rect><rect x="76.9" y="161.68" width="8.55" height="15.12" style="fill:#e6e6e6;"></rect><rect x="205.55" y="161.68" width="8.55" height="15.12" style="fill:#e6e6e6;"></rect></g><g><g><path d="M146.06,145.84l-11.96-58.16h-45.07l-11.96,58.16c-.88,4.3,1.96,8.42,5.82,8.42h57.36c3.86,0,6.7-4.12,5.82-8.42Z" style="fill:#ebebeb;"></path><g><path d="M87.89,82.78h24.86v4.9h-24.86c-1.35,0-2.45-1.1-2.45-2.45h0c0-1.35,1.1-2.45,2.45-2.45Z" style="fill:#e6e6e6;"></path><path d="M112.83,82.78h24.86v4.9h-24.86c-1.35,0-2.45-1.1-2.45-2.45h0c0-1.35,1.1-2.45,2.45-2.45Z" transform="translate(248.06 170.46) rotate(180)" style="fill:#e6e6e6;"></path></g><path d="M131.49,87.68h-39.7l-11.1,57.57c-.49,2.56,1.21,4.99,3.5,4.99h54.91c2.29,0,3.99-2.43,3.5-4.99l-11.1-57.57Z" style="fill:#ebebeb;"></path><path d="M98.37,85.55h-8.92c-.45,0-.81-.36-.81-.81h0c0-.45,.36-.81,.81-.81h8.92c.45,0,.81,.36,.81,.81h0c0,.45-.36,.81-.81,.81Z" style="fill:#fff; opacity:.3;"></path><path d="M101.54,85.55h-.91c-.45,0-.81-.36-.81-.81h0c0-.45,.36-.81,.81-.81h.91c.45,0,.81,.36,.81,.81h0c0,.45-.36,.81-.81,.81Z" style="fill:#fff; opacity:.3;"></path><path d="M142.6,145.25l-5.29-27.42-51.39,.31-5.23,27.11c-.49,2.56,1.21,4.99,3.5,4.99h54.91c2.29,0,3.99-2.43,3.5-4.99Z" style="fill:#e0e0e0;"></path><path d="M111.67,116.73c-14.22,0-25.75,.63-25.75,1.41s11.53,1.41,25.75,1.41,25.75-.63,25.75-1.41-11.53-1.41-25.75-1.41Z" style="fill:#f5f5f5;"></path></g><g style="opacity:.3;"><path d="M100.06,97.23c1.54,.79,1.11,2.9,.98,3.74-.94,6.07-1.23,10.55-2.51,16.59-.39,1.86-1.07,3.75-2.39,5.12-1.32,1.38-3.65,1.98-5.14,.81-1.62-1.27-1.46-3.74-1.13-5.78,.67-4.22,1.34-8.43,2.01-12.65,.27-1.7,.55-3.44,1.33-4.97,.78-1.54,2.16-2.87,3.86-3.15,0,0,2.06-.2,2.99,.28Z" style="fill:#fff;"></path></g><path d="M95.26,136.41c-.61,2.8-2.68,4.72-4.62,4.3s-3.01-3.04-2.4-5.84,2.68-4.72,4.62-4.3,3.01,3.04,2.4,5.84Z" style="fill:#fff; opacity:.3;"></path></g><g><g><path d="M220.49,145.84l-11.96-58.16h-45.07l-11.96,58.16c-.88,4.3,1.96,8.42,5.82,8.42h57.36c3.86,0,6.7-4.12,5.82-8.42Z" style="fill:#f0f0f0;"></path><g><path d="M162.32,82.78h24.86v4.9h-24.86c-1.35,0-2.45-1.1-2.45-2.45h0c0-1.35,1.1-2.45,2.45-2.45Z" style="fill:#f0f0f0;"></path><path d="M187.26,82.78h24.86v4.9h-24.86c-1.35,0-2.45-1.1-2.45-2.45h0c0-1.35,1.1-2.45,2.45-2.45Z" transform="translate(396.93 170.46) rotate(180)" style="fill:#f0f0f0;"></path></g><path d="M205.93,87.68h-39.7l-11.1,57.57c-.49,2.56,1.21,4.99,3.5,4.99h54.91c2.29,0,3.99-2.43,3.5-4.99l-11.1-57.57Z" style="fill:#f5f5f5;"></path><path d="M172.8,85.55h-8.92c-.45,0-.81-.36-.81-.81h0c0-.45,.36-.81,.81-.81h8.92c.45,0,.81,.36,.81,.81h0c0,.45-.36,.81-.81,.81Z" style="fill:#fff; opacity:.3;"></path><path d="M175.98,85.55h-.91c-.45,0-.81-.36-.81-.81h0c0-.45,.36-.81,.81-.81h.91c.45,0,.81,.36,.81,.81h0c0,.45-.36,.81-.81,.81Z" style="fill:#fff; opacity:.3;"></path></g><path d="M174.5,97.23c1.54,.79,1.11,2.9,.98,3.74-.94,6.07-1.23,10.55-2.51,16.59-.39,1.86-1.07,3.75-2.39,5.12-1.32,1.38-3.65,1.98-5.14,.81-1.62-1.27-1.46-3.74-1.13-5.78,.67-4.22,1.34-8.43,2.01-12.65,.27-1.7,.55-3.44,1.33-4.97,.78-1.54,2.16-2.87,3.86-3.15,0,0,2.06-.2,2.99,.28Z" style="fill:#fafafa;"></path><path d="M167.61,134.8c-.61,2.8-2.68,4.72-4.62,4.3s-3.01-3.04-2.4-5.84,2.68-4.72,4.62-4.3,3.01,3.04,2.4,5.84Z" style="fill:#fafafa;"></path></g></g></g><g id="freepik--Shadow--inject-1"><path d="M462.17,453.92c0,3.39-93.52,6.13-208.87,6.13s-208.87-2.75-208.87-6.13,93.52-6.13,208.87-6.13,208.87,2.75,208.87,6.13Z" style="fill:#f5f5f5;"></path></g><g id="freepik--Picture--inject-1"><g><rect x="286.59" y="44.54" width="137.31" height="143.01" style="fill:#263238;"></rect><g><rect x="292.92" y="51.29" width="124.65" height="129.51" style="fill:#fff;"></rect><g><rect x="363.59" y="107.27" width="27.97" height=".75" transform="translate(8.08 240.41) rotate(-35.68)" style="fill:#263238;"></rect><rect x="376.33" y="113.12" width=".75" height="27.36" transform="translate(72.87 383.06) rotate(-58.75)" style="fill:#263238;"></rect><rect x="355.24" y="129.6" width=".75" height="15.39" style="fill:#263238;"></rect><circle cx="355.61" cy="146.74" r="7.26" style="fill:#282828;"></circle><circle cx="355.61" cy="146.74" r="7.26" style="opacity:.3;"></circle><circle cx="388.59" cy="135.75" r="9.24" style="fill:#282828;"></circle><path d="M393.48,99.52c0,2.81-2.27,5.08-5.08,5.08s-5.08-2.27-5.08-5.08,2.27-5.08,5.08-5.08,5.08,2.27,5.08,5.08Z" style="fill:#282828;"></path><path d="M393.48,99.52c0,2.81-2.27,5.08-5.08,5.08s-5.08-2.27-5.08-5.08,2.27-5.08,5.08-5.08,5.08,2.27,5.08,5.08Z" style="opacity:.3;"></path><rect x="328.18" y="126.14" width="27.56" height=".75" transform="translate(-6.27 234.57) rotate(-37.54)" style="fill:#263238;"></rect><polygon points="356.2 115.19 327.23 95.99 327.64 95.37 355.29 113.69 352.16 83.66 352.9 83.58 356.2 115.19" style="fill:#263238;"></polygon><circle cx="352.53" cy="83.62" r="5.54" style="fill:#282828;"></circle><circle cx="327.43" cy="134.92" r="8.13" transform="translate(.5 271.05) rotate(-45)" style="fill:#282828;"></circle><circle cx="323.75" cy="93.52" r="11.08" transform="translate(158.02 386.94) rotate(-76.65)" style="fill:#282828;"></circle><circle cx="357.26" cy="115.67" r="16.15" style="fill:#282828;"></circle><circle cx="357.26" cy="115.67" r="16.15" style="fill:#fff; opacity:.3;"></circle></g></g><polygon points="286.59 187.54 292.92 180.79 417.57 180.79 423.9 187.62 286.59 187.54" style="opacity:.4;"></polygon><polygon points="286.59 44.54 292.92 51.29 417.57 51.29 423.9 44.54 286.59 44.54" style="opacity:.4;"></polygon><polygon points="423.9 44.54 417.57 51.29 417.57 180.79 423.9 187.62 423.9 44.54" style="fill:#fff; opacity:.2;"></polygon><polygon points="286.59 44.54 292.92 51.29 292.92 180.79 286.59 187.62 286.59 44.54" style="fill:#fff; opacity:.2;"></polygon><g style="opacity:.2;"><path d="M328.56,86.07c-.59-.82-2.64-2.47-6.81-1.37-2.5,.87-3.93,2.01-5.44,4.19-1.51,2.17-1.91,5.73-.68,8.08,.38,.74,.94,1.41,1.68,1.78,.74,.37,1.68,.41,2.38-.05,1.33-.87,1.17-2.86,1.93-4.26,.75-1.37,2.32-2.03,3.76-2.63,1.44-.61,2.99-1.4,3.55-2.86,.36-.94,.22-2.06-.37-2.88Z" style="fill:#fff;"></path></g><g style="opacity:.2;"><path d="M353.72,80.21c-.23-.33-1.05-.98-2.71-.55-.99,.35-1.56,.8-2.16,1.66-.6,.86-.76,2.28-.27,3.21,.15,.29,.37,.56,.67,.71s.67,.16,.94-.02c.53-.35,.46-1.14,.77-1.69,.3-.54,.92-.8,1.49-1.05,.57-.24,1.19-.56,1.41-1.13,.14-.37,.09-.82-.15-1.14Z" style="fill:#fff;"></path></g><g style="opacity:.2;"><path d="M390.2,96.14c-.23-.33-1.05-.98-2.71-.55-.99,.35-1.56,.8-2.16,1.66-.6,.86-.76,2.28-.27,3.21,.15,.29,.37,.56,.67,.71,.29,.15,.67,.16,.94-.02,.53-.35,.46-1.14,.77-1.69,.3-.54,.92-.8,1.49-1.05,.57-.24,1.19-.56,1.41-1.13,.14-.37,.09-.82-.15-1.14Z" style="fill:#fff;"></path></g><g style="opacity:.2;"><path d="M391.01,130.12c-.4-.55-1.78-1.66-4.59-.93-1.68,.59-2.65,1.36-3.66,2.82-1.01,1.46-1.28,3.86-.46,5.44,.26,.5,.63,.95,1.13,1.2,.5,.25,1.13,.27,1.6-.03,.9-.59,.79-1.93,1.3-2.87,.51-.92,1.56-1.36,2.53-1.77,.97-.41,2.01-.94,2.39-1.92,.24-.63,.15-1.39-.25-1.94Z" style="fill:#fff;"></path></g><g style="opacity:.2;"><path d="M358.3,141.86c-.37-.51-1.65-1.54-4.26-.86-1.56,.54-2.46,1.26-3.4,2.62-.94,1.36-1.19,3.58-.43,5.05,.24,.46,.59,.88,1.05,1.11s1.05,.25,1.49-.03c.83-.54,.73-1.79,1.21-2.66,.47-.86,1.45-1.27,2.35-1.65s1.87-.87,2.22-1.78c.23-.59,.14-1.29-.23-1.8Z" style="fill:#fff;"></path></g><g style="opacity:.2;"><path d="M329.96,130.09c-.37-.51-1.65-1.54-4.26-.86-1.56,.54-2.46,1.26-3.4,2.62-.94,1.36-1.19,3.58-.43,5.05,.24,.46,.59,.88,1.05,1.11s1.05,.25,1.49-.03c.83-.54,.73-1.79,1.21-2.66,.47-.86,1.45-1.27,2.35-1.65s1.87-.87,2.22-1.78c.23-.59,.14-1.29-.23-1.8Z" style="fill:#fff;"></path></g><g style="opacity:.2;"><path d="M361.35,104.3c-.76-1.06-3.41-3.19-8.82-1.78-3.23,1.12-5.09,2.61-7.03,5.42-1.95,2.81-2.46,7.42-.88,10.45,.5,.95,1.22,1.82,2.18,2.3,.96,.48,2.18,.53,3.07-.06,1.72-1.12,1.51-3.7,2.5-5.51,.97-1.77,3.01-2.62,4.87-3.41,1.86-.79,3.86-1.81,4.59-3.69,.47-1.22,.28-2.66-.48-3.72Z" style="fill:#fff;"></path></g></g></g><g id="freepik--Microscope--inject-1"><g><path d="M321.88,309.71l-10.38,15.67,9.43,6.47,12.54-15.46s-4.81-8.41-11.59-6.69Z" style="fill:#263238;"></path><path d="M315.91,288.03l-24.02,8.37,2.96,10.98,23.07-5.04s3.79-8.56-2.01-14.3Z" style="fill:#263238;"></path><polygon points="324.55 294.27 327.56 303.93 338.86 312.61 352.02 313.6 386.96 267.07 389.8 263.26 386.92 254.57 413.95 217.95 397.6 205.66 371.29 243.24 361.47 244.09 359.13 247.26 324.55 294.27" style="fill:#263238;"></polygon><polygon points="359.13 247.26 386.96 267.07 389.8 263.26 386.92 254.57 413.95 217.95 397.6 205.66 371.29 243.24 361.47 244.09 359.13 247.26" style="fill:#263238;"></polygon><polygon points="329.26 311.78 320.04 310.31 315.58 303.86 319.37 290.37 329.26 311.78" style="fill:#263238;"></polygon><polygon points="341.2 315.14 320.62 280.03 312.41 284.94 333.18 321.25 341.2 315.14" style="fill:#263238;"></polygon><polygon points="341.2 315.14 320.62 280.03 312.41 284.94 333.18 321.25 341.2 315.14" style="fill:#fff; isolation:isolate; opacity:.2;"></polygon><polygon points="317.76 424.25 266.75 394.98 263.83 400.43 313.55 429.24 317.76 424.25" style="fill:#263238;"></polygon><polygon points="317.76 424.25 266.75 394.98 263.83 400.43 313.55 429.24 317.76 424.25" style="fill:#fff; isolation:isolate; opacity:.1;"></polygon><polygon points="292.59 352.97 287.5 362.23 311.97 375.66 318.5 366.65 292.59 352.97" style="fill:#263238;"></polygon><polygon points="292.59 352.97 287.5 362.23 311.97 375.66 318.5 366.65 292.59 352.97" style="fill:#fff; isolation:isolate; opacity:.05;"></polygon><polygon points="351.19 372.26 343.67 384.95 259.74 338.46 268.53 325.83 351.19 372.26" style="fill:#263238;"></polygon><polygon points="317.09 376.39 286.06 359.35 282.09 366.52 312.45 383.47 317.09 376.39" style="fill:#263238;"></polygon><polygon points="351.19 372.26 343.67 384.95 259.74 338.46 268.53 325.83 351.19 372.26" style="fill:#fff; isolation:isolate; opacity:.2;"></polygon><polygon points="317.09 376.39 286.06 359.35 282.09 366.52 312.45 383.47 317.09 376.39" style="fill:#fff; isolation:isolate; opacity:.1;"></polygon><path d="M397.99,295.8l-27.21-12.93-26.01,48.81,23.88,13.85,.77-.41c4.19-2.25,9.25-2.17,13.37,.21l4.5,2.61c2.86,1.65,4.22,5.04,3.28,8.21h0c-4.75,16.01-14.25,30.19-27.24,40.67h0c-1.98,1.62-4.77,1.82-6.96,.48l-6.7-4.44c-3.12-2.11-5.02-5.6-5.1-9.37h0l-36.19-19.82-2.57,4.7,17.29,9.8v21.62l-15.11,30.63,15.03,8.58s57-10.38,77.95-53.66c20.95-43.28-2.99-89.54-2.99-89.54Z" style="fill:#263238;"></path><path d="M397.99,295.8l-27.21-12.93-26.01,48.81,23.88,13.85,.77-.41c4.19-2.25,9.25-2.17,13.37,.21l4.5,2.61c2.86,1.65,4.22,5.04,3.28,8.21h0c-4.75,16.01-14.25,30.19-27.24,40.67h0c-1.98,1.62-4.77,1.82-6.96,.48l-6.7-4.44c-3.12-2.11-5.02-5.6-5.1-9.37h0l-36.19-19.82-2.57,4.7,17.29,9.8v21.62l-15.11,30.63,15.03,8.58s57-10.38,77.95-53.66c20.95-43.28-2.99-89.54-2.99-89.54Z" style="fill:#fff; isolation:isolate; opacity:.7;"></path><polygon points="360.28 340.68 407.13 323.28 407.78 326.69 364.3 343.01 360.28 340.68" style="fill:#fff; isolation:isolate; opacity:.2;"></polygon><path d="M344.78,331.68l57.96-24.31c1.43,3.93,2.6,7.99,3.55,12.15l-48.59,19.65-12.92-7.5Z" style="fill:#fff; isolation:isolate; opacity:.2;"></path><path d="M357.22,326.28c-.64,4.39,2.41,8.47,6.8,9.11,4.39,.64,8.47-2.41,9.11-6.8,.64-4.39-2.4-8.46-6.79-9.1-4.39-.63-8.47,2.41-9.12,6.8Z" style="fill:#263238;"></path><polygon points="297.57 409.86 291.58 418.86 261.26 401.67 266.81 392.86 297.57 409.86" style="fill:#263238;"></polygon><path d="M355.5,292.53c-1.11,7.51,4.08,14.49,11.59,15.59,7.51,1.11,14.49-4.08,15.6-11.59,1.11-7.51-4.08-14.49-11.59-15.6h-.04c-7.49-1.09-14.45,4.1-15.55,11.59Z" style="fill:#263238;"></path><polygon points="297.57 409.86 291.58 418.86 261.26 401.67 266.81 392.86 297.57 409.86" style="fill:#fff; isolation:isolate; opacity:.2;"></polygon><path d="M362.3,293.56c-.55,3.75,2.04,7.23,5.79,7.78,3.75,.55,7.23-2.04,7.78-5.79s-2.04-7.23-5.79-7.78h-.06c-3.73-.51-7.17,2.07-7.73,5.79Z" style="fill:#fff; isolation:isolate; opacity:.5;"></path><path d="M416.02,448.58H253.29c0-4.81,7.69-8.71,17.18-8.71h136.83c4.81,0,8.71,3.9,8.71,8.71h0Z" style="fill:#263238;"></path><path d="M376.5,448.6l-23.07-40.13c-2.54-4.41-7.33-7.02-12.4-6.76h0c-6.98,.36-12.53,5.98-12.81,12.97l-1.35,33.89,49.64,.04Z" style="fill:#263238;"></path><path d="M376.5,448.6l-23.07-40.13c-2.54-4.41-7.33-7.02-12.4-6.76h0c-6.98,.36-12.53,5.98-12.81,12.97l-1.35,33.89,49.64,.04Z" style="fill:#fff; isolation:isolate; opacity:.5;"></path><path d="M334.38,416.53c0,4.45,3.61,8.06,8.06,8.06,4.45,0,8.06-3.61,8.06-8.06,0-4.45-3.61-8.06-8.06-8.06h-.02c-4.44,.01-8.04,3.61-8.04,8.06Z" style="fill:#263238;"></path><rect x="294.56" y="310.68" width="8.91" height="54.76" transform="translate(-141.55 435.99) rotate(-61.04)" style="fill:#282828;"></rect></g></g><g id="freepik--Tubes_and_flasks--inject-1"><g><path d="M180.98,236.71c1.48-6.25,6.53-11.3,12.69-13.01s12.59,.44,17.06,4.8c3.99,3.89,6.07,9.04,6.35,14.56,.16,3.06,.21,6.13,.25,9.19,.14,9.23,.11,18.46,.08,27.68s-.12,18.99-.22,28.48c-.05,4.96-.32,9.96-.18,14.91,0,.07,0,.15,0,.22-.03,1.93,2.97,1.93,3,0,.06-4.4,.11-8.8,.16-13.2,.11-9.67,.19-19.35,.23-29.02s.07-19.25-.07-28.87c-.05-3.19-.1-6.39-.26-9.58-.32-5.95-2.49-11.53-6.62-15.89-4.48-4.72-11.06-7.55-17.6-6.76s-12.89,5.06-16.03,11.05c-.77,1.47-1.36,3.02-1.74,4.63-.45,1.88,2.45,2.68,2.89,.8h0Z" style="fill:#282828;"></path><path d="M179.89,236.41c1.57-6.62,6.95-11.98,13.48-13.8s13.4,.45,18.16,5.09c4.21,4.1,6.39,9.54,6.68,15.35,.16,3.06,.21,6.13,.25,9.19,.14,9.23,.11,18.46,.08,27.68s-.12,18.99-.22,28.48c-.04,3.34-.07,6.68-.11,10.01-.02,1.6-.22,3.31-.06,4.9,0,.07,0,.15,0,.22,0,.48,.74,.48,.75,0,.06-4.4,.11-8.8,.16-13.2,.11-9.67,.19-19.35,.23-29.02s.07-19.25-.07-28.87c-.05-3.19-.1-6.39-.26-9.58-.3-5.65-2.37-10.96-6.29-15.09-4.29-4.52-10.54-7.2-16.81-6.43s-12.11,4.88-15.06,10.49c-.73,1.38-1.27,2.85-1.63,4.37-.11,.47,.61,.67,.72,.2h0Z" style="fill:#fff;"></path></g><g><g><path d="M459.91,440.18l-13.87-67.41h-52.23l-13.87,67.41c-1.02,4.98,2.28,9.76,6.74,9.76h66.48c4.47,0,7.77-4.77,6.74-9.76Z" style="fill:#282828;"></path><g><path d="M421.29,372.78h-28.81c-1.57,0-2.84-1.27-2.84-2.84h0c0-1.57,1.27-2.84,2.84-2.84h28.81v5.68Z" style="fill:#282828;"></path><path d="M418.55,372.78h28.81c1.57,0,2.84-1.27,2.84-2.84h0c0-1.57-1.27-2.84-2.84-2.84h-28.81v5.68Z" style="fill:#282828;"></path></g><g style="opacity:.3;"><path d="M421.29,372.78h-28.81c-1.57,0-2.84-1.27-2.84-2.84h0c0-1.57,1.27-2.84,2.84-2.84h28.81v5.68Z" style="fill:#fff;"></path><path d="M418.55,372.78h28.81c1.57,0,2.84-1.27,2.84-2.84h0c0-1.57-1.27-2.84-2.84-2.84h-28.81v5.68Z" style="fill:#fff;"></path></g><path d="M459.91,440.18l-13.87-67.41h-52.23l-13.87,67.41c-1.02,4.98,2.28,9.76,6.74,9.76h66.48c4.47,0,7.77-4.77,6.74-9.76Z" style="fill:#fff; opacity:.3;"></path><path d="M443.02,372.78h-46.01l-12.87,66.72c-.57,2.97,1.4,5.78,4.05,5.78h63.64c2.65,0,4.63-2.81,4.05-5.78l-12.87-66.72Z" style="fill:#fff; opacity:.3;"></path><polygon points="393.81 372.78 393.36 374.94 446.48 374.94 446.04 372.78 393.81 372.78" style="opacity:.3;"></polygon><path d="M404.63,370.31h-10.33c-.52,0-.94-.42-.94-.94h0c0-.52,.42-.94,.94-.94h10.33c.52,0,.94,.42,.94,.94h0c0,.52-.42,.94-.94,.94Z" style="fill:#fff; opacity:.3;"></path><path d="M408.31,370.31h-1.05c-.52,0-.94-.42-.94-.94h0c0-.52,.42-.94,.94-.94h1.05c.52,0,.94,.42,.94,.94h0c0,.52-.42,.94-.94,.94Z" style="fill:#fff; opacity:.3;"></path><path d="M455.89,439.5l-6.13-31.78-59.56,.36-6.06,31.42c-.57,2.97,1.4,5.78,4.05,5.78h63.64c2.65,0,4.63-2.81,4.05-5.78Z" style="fill:#282828;"></path><path d="M420.05,406.44c-16.48,0-29.85,.73-29.85,1.64s13.36,1.64,29.85,1.64,29.85-.73,29.85-1.64-13.36-1.64-29.85-1.64Z" style="fill:#282828;"></path><path d="M420.05,406.44c-16.48,0-29.85,.73-29.85,1.64s13.36,1.64,29.85,1.64,29.85-.73,29.85-1.64-13.36-1.64-29.85-1.64Z" style="opacity:.3;"></path></g><g style="opacity:.3;"><path d="M406.6,383.85c1.78,.92,1.29,3.36,1.14,4.34-1.09,7.03-1.43,12.23-2.91,19.23-.46,2.16-1.24,4.34-2.77,5.94-1.53,1.59-4.23,2.3-5.96,.94-1.88-1.48-1.69-4.33-1.31-6.69,.78-4.89,1.55-9.77,2.33-14.66,.31-1.97,.64-3.98,1.54-5.76,.91-1.78,2.5-3.33,4.47-3.65,0,0,2.39-.23,3.46,.32Z" style="fill:#fff;"></path></g><path d="M401.03,429.25c-.71,3.24-3.11,5.47-5.36,4.98-2.25-.49-3.49-3.52-2.78-6.76,.71-3.24,3.11-5.47,5.36-4.98,2.25,.49,3.49,3.52,2.78,6.76Z" style="fill:#fff; opacity:.3;"></path><path d="M451.8,443.61h-63.64c-2.08,0-3.74-1.73-4.08-3.91-.45,2.89,1.49,5.58,4.08,5.58h63.64c2.59,0,4.53-2.69,4.08-5.58-.34,2.18-2,3.91-4.08,3.91Z" style="fill:#fff; opacity:.5;"></path></g><g><path d="M75.34,312.92c-.72-8.91-1.44-17.82-2.16-26.73-.67-8.33-1.67-16.71-1.93-25.07-.2-6.49,.86-14.19,7.23-17.54,2.61-1.37,6.12-1.89,8.62,.01s3.01,5.45,3.37,8.33,.62,6.69-1.81,8.91c-2.17,1.98-5.49,1.75-8.07,.79-6.5-2.43-8.32-9.93-6.25-16.03,2.35-6.93,8.97-11.7,15.09-15.12,6.88-3.84,14.4-6.46,22.14-7.89,3.65-.67,7.42-1.19,11.13-.95,3.19,.2,6.75,1.12,8.65,3.91s1.86,6.41,1.8,9.65c-.08,4.4-.49,8.79-1.24,13.12-.37,2.16-.83,4.31-1.35,6.44-.46,1.87,2.43,2.67,2.89,.8,1.17-4.78,1.98-9.64,2.39-14.54,.36-4.21,.75-8.77-.22-12.93-.88-3.77-3.3-6.7-6.88-8.17s-7.66-1.5-11.46-1.13c-8.91,.87-17.66,3.31-25.71,7.21-7.3,3.53-14.98,8.45-18.85,15.83-3.48,6.63-3.12,15.78,3.21,20.61,5.44,4.15,14.87,4.27,17.23-3.37,1.05-3.4,.47-7.39-.28-10.8s-2.62-6.88-6.16-8.26-7.33-.47-10.37,1.34c-3.27,1.95-5.51,5.15-6.77,8.7s-1.46,7.63-1.32,11.46c.17,4.6,.67,9.2,1.04,13.79,.81,10.07,1.63,20.13,2.44,30.2l.6,7.43c.15,1.91,3.16,1.93,3,0h0Z" style="fill:#282828;"></path><path d="M74.22,312.92c-.72-8.91-1.44-17.82-2.16-26.73-.67-8.33-1.67-16.71-1.93-25.07-.22-6.89,1.06-14.97,7.79-18.51,2.98-1.57,6.89-2.09,9.75,.01s3.52,6,3.93,9.3,.53,7.26-2.14,9.71c-2.47,2.27-6.19,2.18-9.16,1.08-7.07-2.63-9.32-10.69-7.04-17.42,2.45-7.23,9.21-12.21,15.61-15.79,6.96-3.89,14.58-6.56,22.41-8,6.38-1.18,16.73-2.95,21.05,3.47,2,2.97,2.02,6.77,1.96,10.22-.09,4.5-.51,8.99-1.28,13.42-.37,2.16-.83,4.31-1.35,6.44-.12,.47,.61,.67,.72,.2,1.15-4.68,1.95-9.44,2.35-14.24,.35-4.1,.76-8.58-.18-12.63-.8-3.43-2.95-6.11-6.23-7.44-3.45-1.4-7.37-1.39-11.02-1.03-8.7,.84-17.28,3.25-25.15,7.06-7.13,3.45-14.66,8.21-18.45,15.43-3.19,6.07-2.97,14.57,2.81,19.07,4.78,3.73,13.44,4.22,15.58-2.7,.99-3.21,.43-6.98-.28-10.2s-2.23-6.2-5.37-7.47-6.72-.43-9.51,1.23c-3.01,1.79-5.1,4.76-6.25,8.03-1.26,3.56-1.42,7.42-1.28,11.16,.17,4.6,.67,9.2,1.04,13.79,.81,10.07,1.63,20.13,2.44,30.2l.6,7.43c.04,.48,.79,.48,.75,0h0Z" style="fill:#fff;"></path></g><g><g><g><g><path d="M84.46,344.5l1.03-33.4-10.28-2.06-10.28,2.06,1.03,33.4s-21.32,8.73-20.04,30.32c.97,16.28,11.22,22.74,22.49,24.88,4.48,.85,9.11,.85,13.59,0,11.27-2.14,21.52-8.6,22.49-24.88,1.28-21.58-20.04-30.32-20.04-30.32Z" style="fill:#282828;"></path><path d="M84.46,344.5l1.03-33.4-10.28-2.06-10.28,2.06,1.03,33.4s-21.32,8.73-20.04,30.32c.97,16.28,11.22,22.74,22.49,24.88,4.48,.85,9.11,.85,13.59,0,11.27-2.14,21.52-8.6,22.49-24.88,1.28-21.58-20.04-30.32-20.04-30.32Z" style="fill:#fff; opacity:.3;"></path><path d="M82.64,345.74l.45-33.15-8.2-.42-7.9,.38,.84,33.3s-20.61,8.63-19.43,28.39c.94,15.75,11.36,21.45,22.36,23.07,2.95,.43,5.95,.43,8.9,0,10.99-1.62,21.42-7.32,22.36-23.07,1.18-19.75-19.38-28.5-19.38-28.5Z" style="fill:#fff; opacity:.3;"></path><path d="M85.55,312.59h-21.32c-1.67,0-3.02-1.35-3.02-3.02h0c0-1.67,1.35-3.02,3.02-3.02h21.32c1.67,0,3.02,1.35,3.02,3.02h0c0,1.67-1.35,3.02-3.02,3.02Z" style="fill:#282828;"></path><path d="M85.55,312.59h-21.32c-1.67,0-3.02-1.35-3.02-3.02h0c0-1.67,1.35-3.02,3.02-3.02h21.32c1.67,0,3.02,1.35,3.02,3.02h0c0,1.67-1.35,3.02-3.02,3.02Z" style="fill:#fff; opacity:.3;"></path><polygon points="64.98 312.59 65.03 314.42 85.38 314.42 85.44 312.59 64.98 312.59" style="opacity:.3;"></polygon><path d="M73.78,309.66h-7.78c-.43,0-.79-.35-.79-.79h0c0-.43,.35-.79,.79-.79h7.78c.43,0,.79,.35,.79,.79h0c0,.43-.35,.79-.79,.79Z" style="fill:#fff; opacity:.3;"></path><path d="M48.4,374.24c.94,15.75,11.36,21.45,22.36,23.07,2.95,.43,5.95,.43,8.9,0,10.99-1.62,21.42-7.32,22.36-23.07H48.4Z" style="fill:#282828;"></path><path d="M79.66,395.75c-2.95,.43-5.95,.43-8.9,0-10.62-1.56-20.72-6.94-22.23-21.52h-.13c.94,15.75,11.36,21.45,22.36,23.07,2.95,.43,5.95,.43,8.9,0,10.99-1.62,21.42-7.32,22.36-23.07h-.13c-1.51,14.57-11.61,19.95-22.23,21.52Z" style="fill:#fff; opacity:.5;"></path><path d="M101.69,374.24c0,.86-11.94,1.56-26.67,1.56s-26.67-.7-26.67-1.56,11.94-1.56,26.67-1.56,26.67,.7,26.67,1.56Z" style="fill:#282828;"></path><path d="M101.69,374.24c0,.86-11.94,1.56-26.67,1.56s-26.67-.7-26.67-1.56,11.94-1.56,26.67-1.56,26.67,.7,26.67,1.56Z" style="opacity:.3;"></path></g><g style="opacity:.3;"><path d="M66.64,352.54c1.26,.49,2.23,1.62,2.31,2.97,.08,1.35-.51,2.65-1.26,3.77s-1.69,2.11-2.43,3.24c-.88,1.34-1.48,2.85-2.22,4.27-.74,1.43-1.67,2.82-3.01,3.7-1.34,.88-3.19,1.15-4.56,.3-1.67-1.02-2.11-3.26-2-5.21,.33-5.81,4.47-11.23,10-13.07,0,0,1.77-.52,3.17,.03Z" style="fill:#fff;"></path></g></g><g><path d="M83.9,392.21c6.64-2.2,12.04-7.5,14.36-14.09-1.29,7-7.35,12.93-14.36,14.09h0Z" style="fill:#fff;"></path><path d="M99.17,375.8c1.45,0,1.45-2.25,0-2.25s-1.45,2.25,0,2.25h0Z" style="fill:#fff;"></path></g></g><rect x="41.74" y="385.85" width="69.51" height="5.04" style="fill:#263238;"></rect><rect x="45.67" y="389.75" width="5.36" height="58.64" style="fill:#263238;"></rect><rect x="100.61" y="389.75" width="5.36" height="58.64" style="fill:#263238;"></rect><g><path d="M62.8,440.22h23.91c1.53,0,2.78,1.25,2.78,2.78v5.26h-29.47v-5.26c0-1.53,1.25-2.78,2.78-2.78Z" style="fill:#263238;"></path><path d="M75.29,414.98c-.91-.38-2.22-.5-2.66,.38-.47,.93,.5,1.9,.86,2.87,.57,1.52-.43,3.2-1.64,4.28-1.21,1.08-2.7,1.9-3.61,3.24-1.25,1.84-1.13,4.42,.07,6.3s3.53,3.65,5.74,3.92c5.86-.76,8.04-6.06,8.12-10.5,.08-4.44-2.77-8.79-6.88-10.49Z" style="fill:#282828;"></path><g style="opacity:.3;"><path d="M75.92,424.39c-.46-.36-1.16-.14-1.36,.41-.36,.99-1.12,2.23-1.53,2.59-.59,.53-1.32,.93-1.77,1.59-.61,.9-.56,2.17,.03,3.09,.56,.87,1.62,1.7,2.65,1.9,.11,.02,.22,.02,.33,0,2.75-.45,3.78-2.99,3.82-5.12,.03-1.71-.83-3.4-2.18-4.45Z"></path></g><rect x="70.08" y="437.43" width="9.35" height="3.33" style="fill:#263238;"></rect><rect x="73.17" y="433.97" width="1.87" height="3.73" style="fill:#263238;"></rect></g></g><g><polygon points="240.87 441.42 240.87 313.47 221.09 313.47 210.67 313.47 205.79 313.47 210.67 321.67 210.67 441.42 205.05 448.39 206.02 448.39 246.33 448.39 240.87 441.42" style="fill:#282828;"></polygon><polygon points="240.87 441.42 240.87 313.47 221.09 313.47 210.67 313.47 205.79 313.47 210.67 321.67 210.67 441.42 205.05 448.39 206.02 448.39 246.33 448.39 240.87 441.42" style="fill:#fff; opacity:.3;"></polygon><path d="M225.68,440.47h0c-6.85,0-12.4-5.55-12.4-12.4v-114.61h24.79v114.61c0,6.85-5.55,12.4-12.4,12.4Z" style="fill:#fff; opacity:.3;"></path><path d="M242.42,314.38h-37.47c-.86,0-1.55-.69-1.55-1.55h0c0-.86,.69-1.55,1.55-1.55h37.47c.86,0,1.55,.69,1.55,1.55h0c0,.86-.69,1.55-1.55,1.55Z" style="fill:#282828;"></path><path d="M242.42,314.38h-37.47c-.86,0-1.55-.69-1.55-1.55h0c0-.86,.69-1.55,1.55-1.55h37.47c.86,0,1.55,.69,1.55,1.55h0c0,.86-.69,1.55-1.55,1.55Z" style="fill:#fff; opacity:.3;"></path><polygon points="206.33 314.38 207.31 316.03 240.87 316.03 240.87 314.38 206.33 314.38" style="opacity:.3;"></polygon><path d="M225.68,440.47h0c-6.85,0-12.4-5.55-12.4-12.4v-47.49h24.79v47.49c0,6.85-5.55,12.4-12.4,12.4Z" style="fill:#282828;"></path><ellipse cx="225.68" cy="380.58" rx="12.4" ry="1.4" style="fill:#282828;"></ellipse><ellipse cx="225.68" cy="380.58" rx="12.4" ry="1.4" style="opacity:.3;"></ellipse><path d="M225.69,438.24h0c-6.85,0-12.4-5.55-12.4-12.4v2.23c0,6.85,5.55,12.4,12.4,12.4h0c6.85,0,12.4-5.55,12.4-12.4v-2.23c0,6.85-5.55,12.4-12.4,12.4Z" style="fill:#fff; opacity:.5;"></path><g style="opacity:.5;"><path d="M216.87,356.88c-.11,11.32-.21,22.63-.32,33.95-.02,1.68-.02,3.43,.51,4.96,.53,1.54,1.77,2.81,3.06,2.56,1.01-.19,1.81-1.26,2.22-2.46,.41-1.21,.48-2.55,.55-3.86,.48-9.53,.34-19.02,.33-28.56,0-2.94-.3-5.77-.74-8.65-.3-1.95-1.69-3.24-3.2-3.12s-2.44,1.72-2.41,5.19" style="fill:#fff;"></path></g><path d="M221.95,344.04c0,2.2-1.21,3.98-2.7,3.98s-2.7-1.78-2.7-3.98,1.21-3.98,2.7-3.98,2.7,1.78,2.7,3.98Z" style="fill:#fff; opacity:.5;"></path><path d="M231.42,334.01c3.15-.34,6.31-.34,9.46,0-3.15,.34-6.31,.34-9.46,0h0Z" style="fill:#263238;"></path><path d="M231.42,355.88c3.15-.34,6.31-.34,9.46,0-3.15,.34-6.31,.34-9.46,0h0Z" style="fill:#263238;"></path><path d="M236.9,345.52c1.32-.34,2.66-.34,3.98,0-1.32,.34-2.66,.34-3.98,0h0Z" style="fill:#263238;"></path><path d="M231.42,375.8c3.15-.34,6.31-.34,9.46,0-3.15,.34-6.31,.34-9.46,0h0Z" style="fill:#263238;"></path><path d="M236.9,365.44c1.32-.34,2.66-.34,3.98,0-1.32,.34-2.66,.34-3.98,0h0Z" style="fill:#263238;"></path><path d="M231.42,395.73c3.15-.34,6.31-.34,9.46,0-3.15,.34-6.31,.34-9.46,0h0Z" style="fill:#263238;"></path><path d="M236.9,385.37c1.32-.34,2.66-.34,3.98,0-1.32,.34-2.66,.34-3.98,0h0Z" style="fill:#263238;"></path><path d="M231.42,415.65c3.15-.34,6.31-.34,9.46,0-3.15,.34-6.31,.34-9.46,0h0Z" style="fill:#263238;"></path><path d="M236.9,405.29c1.32-.34,2.66-.34,3.98,0-1.32,.34-2.66,.34-3.98,0h0Z" style="fill:#263238;"></path></g><g><g><g><path d="M132.37,338.32h0c-5.88,0-10.65-4.77-10.65-10.65v-85.3c0-2.33,1.89-4.22,4.22-4.22h12.85c2.33,0,4.22,1.89,4.22,4.22v85.3c0,5.88-4.77,10.65-10.65,10.65Z" style="fill:#282828;"></path><path d="M132.37,338.32h0c-5.88,0-10.65-4.77-10.65-10.65v-85.3c0-2.33,1.89-4.22,4.22-4.22h12.85c2.33,0,4.22,1.89,4.22,4.22v85.3c0,5.88-4.77,10.65-10.65,10.65Z" style="fill:#fff; opacity:.3;"></path><path d="M123.54,237.36v89.43c0,4.93,3.99,8.92,8.92,8.92s8.92-3.99,8.92-8.92v-89.43h-17.85Z" style="fill:#fff; opacity:.3;"></path><path d="M123.54,289.69v37.1c0,4.93,3.99,8.92,8.92,8.92s8.92-3.99,8.92-8.92v-37.1h-17.85Z" style="fill:#282828;"></path><path d="M132.46,334.41c-5.66-.11-8.92-4.74-8.92-9.67v2.05c0,4.93,3.99,8.92,8.92,8.92s8.92-3.99,8.92-8.92v-2.05c0,4.93-3.42,9.77-8.92,9.67Z" style="fill:#fff; opacity:.5;"></path><path d="M143.23,241.85h-21.71c-1.7,0-3.08-1.38-3.08-3.08h0c0-1.7,1.38-3.08,3.08-3.08h21.71c1.7,0,3.08,1.38,3.08,3.08h0c0,1.7-1.38,3.08-3.08,3.08Z" style="fill:#282828;"></path><path d="M143.23,241.85h-21.71c-1.7,0-3.08-1.38-3.08-3.08h0c0-1.7,1.38-3.08,3.08-3.08h21.71c1.7,0,3.08,1.38,3.08,3.08h0c0,1.7-1.38,3.08-3.08,3.08Z" style="fill:#fff; opacity:.3;"></path><rect x="121.72" y="241.85" width="21.29" height="1.19" style="opacity:.3;"></rect><path d="M141.39,289.69c0,.68-3.99,1.23-8.92,1.23s-8.92-.55-8.92-1.23,3.99-1.23,8.92-1.23,8.92,.55,8.92,1.23Z" style="fill:#282828;"></path><path d="M141.39,289.69c0,.68-3.99,1.23-8.92,1.23s-8.92-.55-8.92-1.23,3.99-1.23,8.92-1.23,8.92,.55,8.92,1.23Z" style="opacity:.3;"></path><path d="M127.98,307.12h0c-1.01,0-1.82-.82-1.82-1.82v-21.51c0-.88,.62-1.63,1.48-1.79h0c1.12-.21,2.17,.65,2.17,1.79v21.51c0,1.01-.82,1.82-1.82,1.82Z" style="fill:#fff; opacity:.3;"></path><circle cx="128.14" cy="313.27" r="1.99" style="fill:#fff; opacity:.3;"></circle><path d="M138.9,299.87c.15,6.77,.16,13.55,0,20.32-.16-6.77-.15-13.55,0-20.32h0Z" style="fill:#fff;"></path></g><rect x="118.43" y="273.27" width="28.87" height="5.59" style="fill:#263238;"></rect></g><g><g><path d="M177.07,338.32h0c-5.88,0-10.65-4.77-10.65-10.65v-85.3c0-2.33,1.89-4.22,4.22-4.22h12.85c2.33,0,4.22,1.89,4.22,4.22v85.3c0,5.88-4.77,10.65-10.65,10.65Z" style="fill:#282828;"></path><path d="M177.07,338.32h0c-5.88,0-10.65-4.77-10.65-10.65v-85.3c0-2.33,1.89-4.22,4.22-4.22h12.85c2.33,0,4.22,1.89,4.22,4.22v85.3c0,5.88-4.77,10.65-10.65,10.65Z" style="fill:#fff; opacity:.3;"></path><path d="M168.23,237.36v89.43c0,4.93,3.99,8.92,8.92,8.92s8.92-3.99,8.92-8.92v-89.43h-17.85Z" style="fill:#fff; opacity:.3;"></path><path d="M168.23,289.69v37.1c0,4.93,3.99,8.92,8.92,8.92s8.92-3.99,8.92-8.92v-37.1h-17.85Z" style="fill:#282828;"></path><path d="M177.16,334.41c-5.66-.11-8.92-4.74-8.92-9.67v2.05c0,4.93,3.99,8.92,8.92,8.92s8.92-3.99,8.92-8.92v-2.05c0,4.93-3.42,9.77-8.92,9.67Z" style="fill:#fff; opacity:.5;"></path><path d="M187.92,241.85h-21.71c-1.7,0-3.08-1.38-3.08-3.08h0c0-1.7,1.38-3.08,3.08-3.08h21.71c1.7,0,3.08,1.38,3.08,3.08h0c0,1.7-1.38,3.08-3.08,3.08Z" style="fill:#282828;"></path><path d="M187.92,241.85h-21.71c-1.7,0-3.08-1.38-3.08-3.08h0c0-1.7,1.38-3.08,3.08-3.08h21.71c1.7,0,3.08,1.38,3.08,3.08h0c0,1.7-1.38,3.08-3.08,3.08Z" style="fill:#fff; opacity:.3;"></path><rect x="166.42" y="241.85" width="21.29" height="1.19" style="opacity:.3;"></rect><path d="M186.08,289.69c0,.68-3.99,1.23-8.92,1.23s-8.92-.55-8.92-1.23,3.99-1.23,8.92-1.23,8.92,.55,8.92,1.23Z" style="fill:#282828;"></path><path d="M186.08,289.69c0,.68-3.99,1.23-8.92,1.23s-8.92-.55-8.92-1.23,3.99-1.23,8.92-1.23,8.92,.55,8.92,1.23Z" style="opacity:.3;"></path><path d="M172.68,307.12h0c-1.01,0-1.82-.82-1.82-1.82v-21.51c0-.88,.62-1.63,1.48-1.79h0c1.12-.21,2.17,.65,2.17,1.79v21.51c0,1.01-.82,1.82-1.82,1.82Z" style="fill:#fff; opacity:.3;"></path><circle cx="172.84" cy="313.27" r="1.99" style="fill:#fff; opacity:.3;"></circle><path d="M183.59,299.87c.15,6.77,.16,13.55,0,20.32-.16-6.77-.15-13.55,0-20.32h0Z" style="fill:#fff;"></path></g><rect x="163.13" y="273.27" width="28.87" height="5.59" style="fill:#263238;"></rect></g><g><circle cx="155.22" cy="219.4" r="7.48" style="fill:#263238;"></circle><g><rect x="152.78" y="224.05" width="4.87" height="223.74" style="fill:#263238;"></rect><path d="M195.33,447.79H115.11c0-2.81,2.28-5.09,5.09-5.09h70.03c2.81,0,5.09,2.28,5.09,5.09h0Z" style="fill:#263238;"></path></g></g><path d="M142.36,276.52h23.46c.97,0,.97-1.5,0-1.5h-23.46c-.97,0-.97,1.5,0,1.5h0Z" style="fill:#263238;"></path></g></g></svg>
