<svg xmlns="http://www.w3.org/2000/svg" viewBox="0 0 500 500"><g id="freepik--background-complete--inject-202"><g><rect x="305.99" y="78.24" width="96.17" height="134.38" transform="translate(118.84 447.4) rotate(-74.41)" style="fill:#e0e0e0;"></rect><path d="M341.27,191.33l26.34-94.4s18.11-1.18,62.21,11.13l-27.95,100.18-60.6-16.91Z" style="fill:#fafafa;"></path><path d="M341.27,191.33l26.34-94.4s-14.88-10.38-58.98-22.69l-27.95,100.18,60.6,16.91Z" style="fill:#f0f0f0;"></path><path d="M369.61,108c-.43-.13-.69-.57-.62-1.01,.05-.51,.49-.88,1-.85,17.2,2.15,34.22,5.56,50.93,10.18,.49,.19,.74,.73,.55,1.23-.16,.43-.61,.68-1.06,.6-16.62-4.6-33.55-7.98-50.66-10.12-.05,0-.09-.02-.14-.03Z" style="fill:#f0f0f0;"></path><path d="M367.72,114.77c-.44-.14-.7-.58-.62-1.03,.06-.5,.51-.86,1.01-.82,.26,.03,26.32,3.67,50.82,10.51,.49,.2,.71,.76,.51,1.25-.17,.4-.59,.64-1.02,.57-24.38-6.8-50.34-10.43-50.6-10.46-.04,0-.07,0-.11-.01Z" style="fill:#f0f0f0;"></path><path d="M365.83,121.56c-.45-.14-.71-.6-.61-1.06,.07-.5,.53-.85,1.04-.79,.29,.04,28.66,4.69,50.7,10.84,.49,.2,.71,.76,.51,1.25-.17,.4-.59,.64-1.02,.57-21.95-6.13-50.24-10.76-50.52-10.81h-.09Z" style="fill:#f0f0f0;"></path><path d="M363.93,128.34c-.45-.14-.72-.61-.61-1.07,.08-.5,.55-.84,1.05-.77,.31,.06,31,5.72,50.59,11.18,.49,.2,.71,.76,.51,1.25-.17,.4-.59,.64-1.02,.57-19.52-5.45-50.14-11.09-50.44-11.15h-.08Z" style="fill:#f0f0f0;"></path><path d="M362.04,135.12c-.46-.15-.72-.62-.61-1.09,.08-.5,.56-.84,1.06-.76,.33,.07,33.35,6.74,50.48,11.52,.49,.19,.74,.73,.55,1.23-.16,.43-.61,.68-1.06,.6-17.08-4.77-50.03-11.42-50.37-11.49h-.06Z" style="fill:#f0f0f0;"></path><path d="M360.15,141.9c-.46-.15-.73-.63-.61-1.1,.1-.5,.57-.83,1.07-.74,.35,.07,35.69,7.76,50.37,11.86,.49,.19,.74,.73,.55,1.23-.16,.43-.61,.68-1.06,.6-14.64-4.09-49.93-11.76-50.28-11.83h-.05Z" style="fill:#f0f0f0;"></path><path d="M358.26,148.69c-.49-.19-.73-.75-.54-1.24,.16-.41,.58-.65,1.01-.6,.37,.08,38.03,8.78,50.27,12.19,.49,.19,.74,.73,.55,1.23-.16,.43-.61,.68-1.06,.6-12.2-3.4-49.82-12.09-50.2-12.17h-.04Z" style="fill:#f0f0f0;"></path><path d="M356.37,155.47c-.49-.2-.73-.75-.53-1.24,.16-.4,.58-.65,1.01-.59,.4,.11,40.37,9.8,50.16,12.53,.49,.19,.74,.73,.55,1.23-.16,.43-.61,.68-1.06,.6-9.76-2.72-49.71-12.42-50.11-12.51h-.03Z" style="fill:#f0f0f0;"></path><path d="M354.47,162.25c-.49-.18-.75-.73-.57-1.22,.16-.43,.6-.69,1.06-.61,.42,.12,42.72,10.82,50.06,12.87,.49,.2,.71,.76,.51,1.25-.17,.4-.59,.64-1.02,.57-7.32-2.04-49.6-12.75-50.03-12.86h-.02Z" style="fill:#f0f0f0;"></path><path d="M352.58,169.03c-.49-.19-.74-.73-.55-1.23,.16-.43,.61-.68,1.06-.6,.45,.13,45.07,11.84,49.96,13.2,.49,.2,.71,.76,.51,1.25-.17,.4-.59,.64-1.02,.57-4.88-1.36-49.49-13.08-49.94-13.2h-.02Z" style="fill:#f0f0f0;"></path><path d="M350.69,175.81c-.49-.2-.71-.76-.51-1.25,.17-.4,.59-.64,1.02-.57,.47,.13,47.41,12.86,49.86,13.55,.49,.2,.71,.76,.51,1.25-.17,.4-.59,.64-1.02,.57-2.44-.68-49.38-13.41-49.85-13.54h-.01Z" style="fill:#f0f0f0;"></path><path d="M398.56,196.48l-49.76-13.88c-.49-.2-.71-.76-.51-1.25,.17-.4,.59-.64,1.02-.57l49.76,13.88c.49,.2,.71,.76,.51,1.25-.17,.4-.59,.64-1.02,.57Z" style="fill:#f0f0f0;"></path><path d="M360.18,105.36c.44,.11,.89-.13,1.05-.54,.22-.46,.04-1.01-.42-1.24-15.83-7.06-32.16-12.96-48.84-17.66-.52-.1-1.01,.25-1.11,.76-.08,.45,.17,.9,.6,1.06,16.6,4.67,32.84,10.54,48.58,17.57,.04,.02,.09,.03,.14,.05Z" style="fill:#e6e6e6;"></path><path d="M358.28,112.14c.45,.11,.9-.13,1.06-.56,.21-.46,.01-1-.44-1.23-.24-.11-24.42-10.49-48.91-17.32-.52-.08-1.01,.28-1.08,.81-.06,.43,.17,.85,.57,1.02,24.38,6.8,48.47,17.14,48.71,17.24,.03,.02,.06,.03,.1,.04Z" style="fill:#e6e6e6;"></path><path d="M356.39,118.93c.46,.11,.92-.14,1.07-.59,.2-.47-.01-1-.48-1.21-.27-.11-26.95-10.82-48.99-16.97-.52-.08-1.01,.28-1.08,.81-.06,.43,.17,.85,.57,1.02,21.95,6.13,48.56,16.8,48.82,16.91l.08,.04Z" style="fill:#e6e6e6;"></path><path d="M354.5,125.71c.46,.11,.93-.15,1.08-.6,.19-.47-.03-1.01-.5-1.2-.29-.11-29.48-11.16-49.07-16.63-.52-.08-1.01,.28-1.08,.81-.06,.43,.17,.85,.57,1.02,19.52,5.45,48.64,16.47,48.93,16.58l.07,.03Z" style="fill:#e6e6e6;"></path><path d="M352.61,132.49c.47,.11,.94-.16,1.08-.61,.19-.47-.04-1-.51-1.19-.32-.12-32.02-11.5-49.15-16.28-.52-.1-1.01,.25-1.11,.76-.08,.45,.17,.9,.6,1.06,17.08,4.77,48.72,16.13,49.04,16.25l.06,.02Z" style="fill:#e6e6e6;"></path><path d="M350.72,139.27c.47,.11,.95-.16,1.09-.63,.18-.48-.06-1-.53-1.19-.34-.12-34.55-11.84-49.23-15.94-.52-.1-1.01,.25-1.11,.76-.08,.45,.17,.9,.6,1.06,14.64,4.09,48.8,15.79,49.14,15.91l.05,.02Z" style="fill:#e6e6e6;"></path><path d="M348.82,146.05c.52,.09,1.01-.26,1.1-.78,.07-.43-.16-.86-.55-1.03-.36-.12-37.08-12.18-49.32-15.59-.52-.1-1.01,.25-1.11,.76-.08,.45,.17,.9,.6,1.06,12.2,3.4,48.88,15.45,49.25,15.57h.04Z" style="fill:#e6e6e6;"></path><path d="M346.93,152.84c.52,.08,1.01-.27,1.1-.79,.07-.43-.16-.85-.56-1.03-.4-.11-39.62-12.52-49.41-15.25-.52-.1-1.01,.25-1.11,.76-.08,.45,.17,.9,.6,1.06,9.76,2.72,48.96,15.11,49.35,15.24h.03Z" style="fill:#e6e6e6;"></path><path d="M345.04,159.61c.52,.1,1.01-.24,1.12-.75,.09-.45-.16-.9-.59-1.07-.42-.12-42.15-12.86-49.49-14.91-.52-.08-1.01,.28-1.08,.81-.06,.43,.17,.85,.57,1.02,7.32,2.04,49.04,14.77,49.46,14.9h.02Z" style="fill:#e6e6e6;"></path><path d="M343.15,166.4c.52,.1,1.01-.25,1.11-.76,.08-.45-.17-.9-.6-1.06-.45-.13-44.69-13.2-49.58-14.57-.52-.08-1.01,.28-1.08,.81-.06,.43,.17,.85,.57,1.02,4.88,1.36,49.11,14.43,49.56,14.56h.02Z" style="fill:#e6e6e6;"></path><path d="M341.25,173.18c.52,.08,1.01-.28,1.08-.81,.06-.43-.17-.85-.57-1.02-.47-.13-47.22-13.54-49.67-14.22-.52-.08-1.01,.28-1.08,.81-.06,.43,.17,.85,.57,1.02,2.44,.68,49.19,14.09,49.66,14.22h.01Z" style="fill:#e6e6e6;"></path><path d="M289.6,166.08l49.76,13.88c.52,.08,1.01-.28,1.08-.81,.06-.43-.17-.85-.57-1.02l-49.76-13.88c-.52-.08-1.01,.28-1.08,.81-.06,.43,.17,.85,.57,1.02Z" style="fill:#e6e6e6;"></path><polygon points="364.02 130.89 362.05 127.19 358.45 129.34 367.76 95.98 373.63 96.44 364.02 130.89" style="fill:#e0e0e0;"></polygon><path d="M368.01,147.93c-.19-.05-.21-.3-.2-.79,0-.11,.09-.19,.2-.18,.1,0,.18,.08,.18,.18h0c.1-.22,.22-.53,.34-.84,.64-1.7,1.37-3.35,2.21-4.96,.91-1.71,1.79-2.6,2.6-2.59,.46,.03,.87,.29,1.09,.7,.05,.09,.02,.21-.07,.26-.09,.05-.21,.02-.26-.07h0c-.15-.29-.43-.48-.75-.51-.45,0-1.21,.41-2.26,2.39-.83,1.59-1.56,3.23-2.19,4.92-.51,1.3-.6,1.54-.85,1.48l-.03,.02Z" style="fill:#e0e0e0;"></path><path d="M368.9,142.75c-.11,0-.18-.1-.18-.21,0-.11,.1-.18,.21-.18l3.38-.4c.1-.01,.2,.06,.21,.17,.01,.1-.06,.2-.17,.21l-3.37,.4s-.05,.01-.08,0Z" style="fill:#e0e0e0;"></path><path d="M374.62,147.15s-.06-.03-.08-.05c-2.38-2.45,.53-5.82,.56-5.85,.07-.08,.19-.09,.27-.02,.08,.07,.09,.19,.02,.27h0c-.11,.13-2.71,3.14-.58,5.34,.07,.08,.07,.2,0,.27-.05,.05-.12,.06-.18,.05h0Z" style="fill:#e0e0e0;"></path><path d="M377.69,146.79c-.1-.03-.16-.13-.13-.23,0-.03,.02-.06,.04-.08,2.71-2.9,.45-5.21,.36-5.3-.07-.07-.08-.19,0-.26h0c.07-.08,.18-.08,.26-.01h0s2.62,2.67-.34,5.84c-.05,.05-.12,.07-.19,.05Z" style="fill:#e0e0e0;"></path><path d="M377.07,145.14s-.07-.04-.1-.07l-1.7-2.16c-.06-.08-.05-.2,.03-.27,.08-.06,.2-.05,.27,.03h0l1.71,2.16c.07,.08,.05,.2-.03,.27h0s-.11,.05-.17,.04Z" style="fill:#e0e0e0;"></path><path d="M374.81,144.95s-.07-.03-.09-.05c-.07-.08-.06-.2,.01-.27l2.42-2.2c.07-.07,.19-.07,.26,0h0c.07,.08,.06,.2-.02,.27l-2.42,2.2s-.11,.06-.18,.04Z" style="fill:#e0e0e0;"></path><path d="M291.67,155.08h0c-.1-.03-.16-.13-.13-.23,.27-1.13,1-2.1,2.01-2.68,1.95-1.08,4.43-.37,4.52-.34,.1,.03,.16,.13,.13,.23-.02,.1-.11,.16-.21,.14h-.03s-2.42-.68-4.23,.31c-.92,.53-1.58,1.42-1.82,2.45-.03,.1-.13,.16-.23,.13Z" style="fill:#e0e0e0;"></path><path d="M295.62,156.75s-.08-.04-.1-.08c-.08-.12-.1-.27-.06-.41,.15-.34,.39-.63,.69-.84-.86,.15-1.81,.1-2.22-.32-.18-.19-.34-.53-.03-1.09,.31-.67,1.08-.98,1.78-.73,.74,.24,1.38,.88,1.32,1.36-.01,.1-.1,.18-.21,.17-.1,0-.18-.1-.17-.2h0c.02-.25-.44-.77-1.06-.97-.52-.2-1.1,.04-1.33,.55-.24,.43-.08,.59-.03,.65,.46,.47,2.28,.27,3.02-.12,.08-.06,.2-.04,.26,.04s.04,.2-.04,.26c-.01,.01-.03,.02-.05,.02-.56,.31-1.48,.93-1.57,1.3-.01,.03,0,.07,0,.09,.06,.09,.03,.21-.05,.26-.05,.04-.1,.05-.16,.04Z" style="fill:#e0e0e0;"></path><path d="M295.23,157.75c-.17-.05-.33-.14-.45-.26-.08-.07-.08-.19,0-.27s.19-.08,.27,0c.49,.48,1.24-.05,1.27-.07,.08-.06,.2-.04,.27,.04,.06,.08,.04,.2-.04,.27h0c-.37,.28-.85,.39-1.31,.3Z" style="fill:#e0e0e0;"></path><path d="M298.84,159.79c-.47-.15-.87-.49-1.09-.93-.05-.09-.02-.21,.07-.26,.09-.05,.21-.02,.26,.07h0c.22,.5,.72,.82,1.27,.79,.4-.02,.76-.26,.92-.63,.09-.27,0-.57-.22-.75-.7-.68-2.53,.14-3.17,.51-.09,.05-.21,.02-.26-.07-.03-.04-.03-.1-.02-.15,.01-.05,.05-.09,.09-.11l4.9-2.83c.09-.05,.2-.02,.25,.07h0c.05,.09,.02,.21-.07,.26h0l-2.96,1.71c.53-.13,1.09,0,1.51,.33,.33,.28,.45,.74,.32,1.15-.22,.51-.7,.84-1.25,.88-.18,.02-.36,0-.54-.05Z" style="fill:#e0e0e0;"></path><path d="M297.72,160.99c-.1-.03-.16-.13-.13-.23,.03-.1,.13-.16,.23-.14,1.58,.39,2.85,.24,3.77-.44,1.41-1.04,1.54-2.99,1.54-3.01,0-.11,.1-.19,.21-.18,.11,0,.19,.1,.18,.21-.02,.08-.14,2.15-1.7,3.29-1,.76-2.39,.91-4.07,.51h-.01Z" style="fill:#e0e0e0;"></path><g><path d="M399.53,119.13h-.04c-.08-.05-.11-.14-.09-.23l1.09-4.02-1.61-.75c-.1-.04-.14-.16-.09-.25,.04-.1,.16-.14,.25-.09l1.74,.81c.08,.04,.13,.13,.1,.22l-.95,3.48,5.57-5.7c.06-.06,.14-.07,.22-.04l6.06,2.82c.09,.04,.14,.16,.09,.25h0c-.04,.1-.15,.14-.25,.1h0l-5.94-2.77-5.98,6.13s-.11,.05-.17,.04Z" style="fill:#e0e0e0;"></path><path d="M406.83,122.03c-.07-.02-.12-.07-.14-.14l-1.42-5.71c-.02-.1,.04-.2,.14-.23,.1-.02,.2,.04,.23,.14l1.44,5.72c.03,.1-.03,.2-.13,.23h0s-.08,0-.12,0Z" style="fill:#e0e0e0;"></path><path d="M402.74,120.13c-.06-.02-.1-.06-.12-.12-.03-.1,.01-.2,.11-.24l6.02-2.25c.1-.04,.21,.01,.24,.11,.04,.1-.01,.21-.11,.24h0l-6.02,2.25s-.08,.02-.12,0Z" style="fill:#e0e0e0;"></path></g><path d="M383.86,109.08h-.02c-.28-.08-.62-.34-.62-1.07-.05-.85,.56-1.6,1.4-1.72,.87-.18,1.88,.13,2.08,.63,.04,.09,0,.2-.09,.24h0c-.1,.04-.21,0-.25-.1-.11-.27-.9-.56-1.66-.4-.67,.08-1.15,.67-1.1,1.35,0,.59,.27,.67,.35,.7,.75,.24,2.49-.99,3.05-1.83,.06-.09,.17-.11,.26-.06h0c.09,.06,.11,.17,.06,.26-.4,.63-1,1.79-.88,2.23,0,.05,.04,.09,.08,.11,.09,.05,.13,.16,.08,.25h0c-.05,.1-.16,.13-.25,.09h0c-.14-.07-.23-.2-.27-.35-.04-.46,.06-.93,.28-1.34-.8,.64-1.82,1.19-2.5,1Z" style="fill:#e0e0e0;"></path><path d="M387.89,107.78s-.03,0-.05-.01c-.09-.05-.12-.17-.07-.26h0l1.21-1.99c.06-.09,.17-.12,.26-.06,.09,.06,.12,.17,.06,.26l-.53,.87c.11-.03,.23-.03,.34,0,.22,.05,.39,.22,.42,.44,.03,.27-.1,.53-.33,.68-.28,.18-.64,.16-.91-.03-.05-.03-.08-.09-.09-.15-.05,.07-.09,.13-.13,.19h0c-.05,.07-.13,.1-.21,.07Zm.58-.47l.05,.02c.14,.11,.34,.13,.49,.04,.1-.06,.17-.18,.16-.3,0-.02-.02-.1-.15-.14-.13-.04-.44,.15-.64,.38,.03,0,.05,0,.08,0h0Z" style="fill:#e0e0e0;"></path><path d="M334.42,177.18h-.04c-.14-.08-.23-.21-.27-.36-.04-.46,.06-.93,.28-1.33-.8,.65-1.83,1.21-2.51,.99-.28-.08-.62-.34-.62-1.06-.05-.85,.56-1.6,1.4-1.72,.86-.18,1.88,.13,2.08,.63,.05,.09,.02,.21-.07,.26-.09,.05-.21,.02-.26-.07,0-.02-.02-.03-.02-.05-.11-.27-.9-.55-1.66-.4-.67,.08-1.15,.67-1.1,1.34,0,.59,.27,.68,.35,.7h0c.77,.21,2.48-1,3.04-1.83,.06-.09,.18-.12,.27-.06,.09,.06,.12,.18,.06,.27h0c-.4,.63-1,1.79-.88,2.23,0,.05,.04,.09,.08,.11,.1,.04,.14,.15,.11,.25-.04,.1-.15,.15-.25,.11h0Z" style="fill:#e0e0e0;"></path><path d="M335.94,175.19h-.05c-.09-.06-.12-.18-.07-.27h0l1.21-2.01c.06-.09,.17-.12,.26-.06,.09,.05,.12,.17,.06,.25h0l-.53,.87c.11-.03,.23-.03,.34,0,.22,.05,.39,.22,.42,.44,.03,.27-.09,.53-.32,.68-.28,.18-.64,.16-.91-.03-.05-.03-.08-.09-.09-.15-.05,.07-.09,.13-.13,.19h0c-.05,.07-.13,.1-.21,.08Zm.58-.47h.05c.14,.13,.34,.14,.5,.05,.11-.06,.17-.18,.16-.31,0-.02-.02-.1-.15-.14-.13-.04-.44,.15-.63,.38,.02,0,.04,0,.06,0v.02Z" style="fill:#e0e0e0;"></path><path d="M300.55,126.22c-.05-.01-.09-.05-.12-.1l-1.94-3.83c-.03-.06-.03-.13,0-.18l2.56-4.26c.06-.09,.18-.12,.27-.07,.09,.06,.12,.18,.07,.27h0l-2.51,4.17,1.89,3.74c.05,.09,0,.21-.09,.25-.04,.02-.09,.02-.13,.01h-.01Z" style="fill:#e0e0e0;"></path><path d="M304.7,124.01s-.08-.04-.1-.08l-2.45-3.56c-.06-.09-.04-.21,.05-.27,.08-.06,.2-.04,.26,.05h0l2.45,3.57c.06,.08,.04,.2-.05,.26h0s-.1,.05-.16,.03Z" style="fill:#e0e0e0;"></path><path d="M302.3,123.42s-.05,0-.07-.02c-.08-.06-.1-.18-.04-.27h0l2.33-3.01c.06-.08,.18-.1,.27-.04h0c.08,.07,.1,.19,.03,.27l-2.33,3.01c-.05,.06-.13,.08-.2,.06Z" style="fill:#e0e0e0;"></path><path d="M305.36,124.98c-.1-.01-.18-.11-.16-.21,.01-.1,.11-.18,.21-.16,.2,0,.42-.49,.51-.84,.03-.1,.13-.16,.23-.14,.1,.03,.16,.13,.14,.23-.05,.19-.31,1.11-.87,1.13h-.06Z" style="fill:#e0e0e0;"></path><path d="M308.92,122.72s-.07-.03-.1-.07l-1.53-1.97c-.06-.08-.05-.2,.03-.27,.08-.06,.2-.05,.27,.03l1.53,1.97c.06,.08,.05,.2-.03,.27-.05,.04-.11,.05-.17,.03Z" style="fill:#e0e0e0;"></path><path d="M306.55,126.63s-.04,0-.05-.01c-.09-.05-.12-.17-.06-.25h0l3.82-6.33c.06-.09,.18-.12,.27-.07,.09,.06,.12,.18,.07,.27h0l-3.83,6.32c-.04,.07-.13,.11-.21,.08Z" style="fill:#e0e0e0;"></path><path d="M310.86,125.78s-.04,0-.06-.02c-.09-.06-.11-.18-.05-.26h0l2.32-3.37-2.07-4.27c-.05-.09-.02-.21,.07-.26,.1-.04,.21,0,.25,.09l2.12,4.37c.03,.06,.03,.13-.01,.19l-2.39,3.46c-.04,.06-.12,.09-.19,.07Z" style="fill:#e0e0e0;"></path><path d="M393.61,157.1s-.07-.03-.1-.07c-.05-.06-.06-.15,0-.22l8.19-12.08c.06-.09,.17-.11,.26-.05,.03,.02,.05,.05,.07,.08l3.74,7.57s.03,.1,0,.16c-.02,.05-.06,.09-.11,.11l-11.93,4.51s-.08,.01-.11,0Zm8.21-11.87l-7.67,11.31,11.18-4.22-3.5-7.1Z" style="fill:#e0e0e0;"></path><path d="M403.94,153.2c-.05-.02-.1-.05-.12-.1l-.78-1.63s-.02-.1,0-.15c.02-.05,.05-.08,.1-.11l1.51-.72c.1-.04,.21,0,.25,.09,.04,.09,0,.2-.09,.25h0l-1.36,.64,.7,1.46c.05,.09,.02,.21-.07,.26h0s-.09,.02-.14,0Z" style="fill:#e0e0e0;"></path><path d="M332.31,104.46c-2.62-.73-4.15-3.45-3.42-6.07,.73-2.62,3.45-4.15,6.07-3.42,2.62,.73,4.15,3.45,3.42,6.07h0c-.73,2.62-3.45,4.15-6.07,3.42Zm2.55-9.12c-2.42-.67-4.93,.74-5.6,3.16s.74,4.93,3.16,5.6,4.93-.74,5.6-3.16c.67-2.42-.74-4.92-3.16-5.6h0Z" style="fill:#e0e0e0;"></path><path d="M338.34,102.38c-2.9-.81-4.59-3.81-3.78-6.7,.81-2.9,3.81-4.59,6.7-3.78,2.9,.81,4.59,3.81,3.78,6.7h0c-.81,2.9-3.81,4.59-6.7,3.78Zm2.82-10.12c-2.69-.75-5.49,.82-6.24,3.51-.75,2.69,.82,5.49,3.51,6.24,2.69,.75,5.49-.82,6.24-3.51h0c.75-2.7-.83-5.49-3.51-6.24Z" style="fill:#e0e0e0;"></path><path d="M334.51,97.65s-.04,0-.05-.01c-.09-.05-.11-.17-.06-.26l1.22-1.97c.05-.09,.17-.12,.25-.06h0c.09,.05,.12,.16,.07,.25h0l-1.22,1.98c-.05,.07-.13,.1-.21,.08Z" style="fill:#e0e0e0;"></path><path d="M334.78,99.03s-.03,0-.05-.01c-.09-.05-.12-.17-.07-.26l1.74-2.84c.05-.09,.16-.12,.25-.07h0c.09,.06,.12,.17,.06,.26l-1.74,2.84c-.05,.07-.13,.1-.21,.08Z" style="fill:#e0e0e0;"></path><path d="M335.4,100.2h-.05c-.09-.07-.12-.18-.07-.27h0l1.89-3.24c.05-.09,.17-.12,.26-.07,.09,.05,.12,.17,.07,.26h0l-1.89,3.23c-.04,.07-.13,.11-.21,.08Z" style="fill:#e0e0e0;"></path><path d="M336.45,101.4h-.04c-.09-.06-.13-.17-.09-.27l1.58-3.13c.05-.1,.16-.13,.26-.09,.1,.05,.13,.16,.09,.26l-1.57,3.13c-.04,.08-.14,.12-.23,.09Z" style="fill:#e0e0e0;"></path><path d="M337.03,101.82h-.04c-.09-.06-.13-.18-.08-.27h0l1.26-2.3c.05-.09,.16-.13,.26-.08h0c.09,.05,.12,.16,.08,.25h0l-1.26,2.31c-.05,.07-.13,.11-.22,.09Z" style="fill:#e0e0e0;"></path><path d="M330.06,94.53c-.17-.06-.31-.17-.4-.33-.32-.4-.27-.97,.1-1.32,.33-.34,.92-.57,1.24-.38,0-.01,0-.02,0-.03,0-.11,.09-.2,.2-.2s.2,.09,.2,.2c.02,.64,.17,1.18,.28,1.23,.1-.01,.2,.06,.21,.16,0,.1-.07,.2-.17,.21-.11,.02-.22-.01-.3-.08-.12-.13-.21-.29-.24-.46-.18,.47-.46,.9-.79,1.01-.11,.04-.22,.04-.33,0Zm.72-1.71c-.28,0-.56,.12-.75,.33-.25,.21-.28,.59-.07,.84,.15,.22,.25,.18,.28,.17,.28-.09,.61-.76,.71-1.31-.05,.02-.11,0-.15-.02h-.02Z" style="fill:#e0e0e0;"></path><path d="M339.08,91.7c-.07-.02-.12-.07-.13-.14h0l-.72-3.06c-.02-.1,.04-.2,.14-.23h0c.1-.02,.2,.04,.23,.14h0l.36,1.52c.07-.19,.2-.36,.38-.46,.23-.15,.53-.14,.76,.03,.26,.22,.37,.56,.29,.89-.1,.41-.44,.71-.85,.77-.1,.02-.2-.04-.23-.14-.02-.1,.04-.2,.15-.23,.27-.03,.5-.22,.56-.48,.04-.19-.02-.38-.16-.51-.1-.07-.24-.07-.34,0-.43,.23-.28,1.32-.2,1.68h0c.02,.1-.04,.2-.14,.23-.03,0-.07,0-.1,0Z" style="fill:#e0e0e0;"></path><path d="M338.51,133.87s-.09-.05-.11-.09l-1.52-2.53c-.05-.09,0-.21,.09-.25,.08-.04,.19-.02,.24,.06l1.52,2.52c.05,.09,.02,.21-.07,.26h0s-.09,.03-.14,.02Z" style="fill:#e0e0e0;"></path><path d="M336.75,133.51s-.07-.03-.09-.06c-.07-.08-.06-.2,.02-.27l2.44-2.09c.08-.07,.2-.06,.27,.02h0c.07,.08,.06,.2-.02,.26h0l-2.45,2.1s-.11,.06-.17,.04Z" style="fill:#e0e0e0;"></path><path d="M341.02,132.72c-.08-.02-.13-.09-.14-.16-.01-.1,.07-.2,.17-.21h0l2.28-.19c.1,0,.2,.07,.21,.18,0,.1-.07,.2-.17,.2l-2.28,.19h-.06Z" style="fill:#e0e0e0;"></path><path d="M345.83,132.11s-.08-.04-.11-.08l-.95-1.44c-.07-.08-.06-.2,.02-.27s.2-.06,.27,.02c.01,.01,.02,.03,.03,.04l.95,1.44c.05,.09,.02,.2-.07,.26-.04,.03-.09,.03-.14,.02Z" style="fill:#e0e0e0;"></path><path d="M344.36,134.95h-.05c-.09-.07-.12-.18-.07-.27h0l3.11-5.01c.06-.09,.18-.12,.27-.07,.09,.06,.12,.18,.07,.27l-3.11,5.01c-.05,.07-.14,.1-.22,.07Z" style="fill:#e0e0e0;"></path><path d="M356.66,175.52s-.09-.04-.11-.09l-1.52-2.52c-.05-.09-.02-.21,.07-.26h0c.09-.05,.2-.02,.25,.07h0l1.52,2.53c.05,.09,.02,.2-.07,.25h0s-.1,.03-.15,.02Z" style="fill:#e0e0e0;"></path><path d="M354.9,175.16s-.07-.03-.09-.06c-.07-.08-.06-.2,.02-.27l2.45-2.1c.08-.07,.2-.06,.27,.02,.07,.08,.06,.2-.02,.27l-2.45,2.09s-.11,.06-.17,.04Z" style="fill:#e0e0e0;"></path><path d="M359.17,174.37c-.11,0-.18-.1-.17-.21,0-.11,.1-.18,.21-.17h0l2.28-.19c.1-.02,.2,.05,.22,.15s-.05,.2-.15,.22c-.01,0-.03,0-.04,0l-2.28,.19h-.07Z" style="fill:#e0e0e0;"></path><path d="M363.98,173.76s-.08-.04-.11-.08l-.95-1.44c-.06-.09-.04-.2,.04-.26s.2-.04,.26,.04h0l.95,1.46c.06,.09,.04,.2-.05,.26-.05,.03-.1,.04-.16,.02h0Z" style="fill:#e0e0e0;"></path><path d="M362.51,176.59h-.05c-.09-.07-.12-.19-.06-.28l3.11-5.01c.06-.09,.18-.12,.27-.07s.12,.18,.07,.27l-3.13,4.99c-.04,.07-.12,.1-.2,.09Z" style="fill:#e0e0e0;"></path><path d="M375.59,167.62c-.08-.02-.15-.05-.22-.09-.47-.25-.74-.84-.81-1.76-.12-1.77,.83-2.58,1.45-2.92l-2.44-.68-1.03,4c-.02,.1-.12,.16-.22,.14h0c-.1-.03-.16-.13-.14-.23l1.08-4.19c.03-.1,.13-.16,.23-.14h0l3.15,.88c.1,.03,.16,.14,.12,.24-.02,.06-.07,.11-.13,.13-.08,.02-1.86,.48-1.69,2.74,.05,.76,.27,1.25,.61,1.45,.31,.12,.65,.11,.94-.05,.09-.06,.2-.03,.26,.05,.06,.09,.03,.2-.05,.26,0,0-.02,.01-.03,.01-.33,.18-.71,.23-1.08,.15Z" style="fill:#e0e0e0;"></path><g><path d="M348.91,152.23h0l-4.21-1.51c-.09-.03-.14-.11-.12-.2l.85-6.29c0-.07,.06-.13,.13-.15l4.27-1.47s.08-.01,.12,0l4.65,1.66c.09,.03,.14,.13,.12,.22l-1.38,6.1c-.02,.06-.06,.11-.12,.14l-4.17,1.52s-.09,.02-.13,0Zm-3.95-1.82l4,1.44,4.01-1.46,1.32-5.83-4.43-1.58-4.1,1.41-.81,6.02Z" style="fill:#e0e0e0;"></path><path d="M344.7,150.71c-.06-.02-.11-.06-.13-.11-.03-.1,.01-.21,.11-.24l4.17-1.53s.09-.01,.13,0l4.22,1.52c.1,.04,.15,.14,.12,.24s-.14,.15-.24,.12l-4.16-1.5-4.1,1.51s-.08,.01-.11,0Z" style="fill:#e0e0e0;"></path><path d="M348.86,149.19c-.09-.03-.15-.12-.14-.21l.95-6.23c.02-.1,.11-.18,.22-.16,.1,.02,.18,.11,.16,.22l-.95,6.23c-.02,.1-.11,.17-.22,.16h-.02Z" style="fill:#e0e0e0;"></path><path d="M350.12,146.29h-.02l-4.59-1.88c-.1-.04-.14-.14-.11-.24h0c.04-.1,.15-.15,.25-.11l4.51,1.84,4.27-1.65c.1-.04,.21,.01,.25,.11,.03,.1-.01,.21-.11,.24l-4.34,1.68s-.07,.02-.11,0Z" style="fill:#e0e0e0;"></path><path d="M348.91,152.23c-.1-.03-.15-.12-.14-.22l1.22-5.95c.02-.1,.12-.17,.22-.15h0c.1,.02,.17,.12,.15,.23l-1.22,5.95c-.02,.1-.12,.17-.22,.15h-.01Z" style="fill:#e0e0e0;"></path></g><path d="M320.89,158.8s-.07-.03-.09-.06c-.04-.05-.06-.12-.04-.18l2.39-7.99c.02-.07,.08-.12,.15-.13,.07-.02,.14,0,.19,.05l5.53,6.75c.04,.05,.05,.12,.03,.19-.02,.06-.08,.11-.15,.12l-7.93,1.27s-.05,0-.07-.02Zm2.52-7.76l-2.2,7.35,7.29-1.13-5.09-6.21Z" style="fill:#e0e0e0;"></path><path d="M324.85,158.14c-.07-.02-.12-.07-.14-.14l-1.57-7.31c-.02-.1,.04-.2,.15-.23,.1-.02,.2,.04,.23,.15l1.57,7.31c.02,.1-.04,.2-.15,.23-.03,0-.06,0-.09,0Z" style="fill:#e0e0e0;"></path><path d="M325.76,158.05c-.07-.02-.12-.08-.14-.15l-.21-1.06-.74,.13c-.1,.02-.2-.05-.22-.15h0c-.02-.11,.05-.2,.15-.22h0l.92-.17c.1-.02,.2,.05,.22,.15h0l.24,1.25c.02,.1-.04,.2-.14,.22h0s-.06,0-.08,0Z" style="fill:#e0e0e0;"></path><path d="M392.64,178.43c-.05-.01-.09-.05-.12-.1l-2.05-3.93c-.05-.09-.03-.21,.06-.26,.09-.05,.21-.03,.26,.06v.02l2.06,3.93c.05,.09,.02,.2-.07,.25h0s-.1,.03-.15,.02Z" style="fill:#e0e0e0;"></path><path d="M390.28,177.55s-.07-.03-.1-.07c-.07-.08-.05-.2,.02-.26h0l3.37-2.66c.08-.06,.19-.06,.26,.02h0c.07,.09,.05,.2-.02,.27h0l-3.37,2.66s-.11,.05-.17,.04Z" style="fill:#e0e0e0;"></path><path d="M396.17,176.04l-1.64-.46c-.08-.02-.13-.09-.14-.17,0-.08,.04-.15,.12-.18,.36-.15,1.3-.66,1.34-1.17,.02-.12-.02-.25-.1-.35-.11-.09-.26-.13-.4-.11-.1,.01-.19-.06-.2-.17h0c0-.11,.07-.2,.17-.21,.25-.02,.5,.06,.69,.22,.17,.17,.24,.41,.21,.65-.04,.56-.67,.99-1.12,1.26l1.16,.32c.1,.03,.16,.13,.13,.23-.03,.1-.13,.16-.23,.13Z" style="fill:#e0e0e0;"></path><path d="M316.22,92.45c-.05-.01-.09-.05-.12-.1l-2.05-3.93c-.05-.09-.01-.21,.08-.26s.21-.01,.26,.08l2.05,3.93c.05,.09,.02,.21-.07,.26-.05,.02-.1,.03-.15,0Z" style="fill:#e0e0e0;"></path><path d="M313.86,91.58s-.07-.03-.1-.06c-.06-.08-.05-.2,.03-.27l3.37-2.66c.08-.06,.2-.05,.27,.03s.05,.2-.03,.27l-3.37,2.66s-.11,.05-.17,.03Z" style="fill:#e0e0e0;"></path><path d="M319.75,90.08l-1.64-.46c-.1-.03-.16-.13-.13-.23,.02-.05,.06-.1,.11-.12,.36-.15,1.3-.66,1.34-1.17,.02-.12-.01-.25-.1-.35-.11-.08-.25-.12-.39-.11-.1,.01-.2-.07-.21-.17h0c0-.11,.07-.2,.17-.21,.25-.02,.5,.06,.69,.22,.17,.17,.25,.41,.21,.65-.04,.56-.67,.99-1.14,1.26l1.17,.33c.1,.03,.16,.13,.13,.23-.03,.09-.12,.15-.22,.13Z" style="fill:#e0e0e0;"></path></g><g><g><g><path d="M443.92,319.9h-180.75c-3.23,0-5.86-2.63-5.86-5.86V50.77c0-3.23,2.63-5.86,5.86-5.86h180.75c3.23,0,5.86,2.63,5.86,5.86V314.04c0,3.23-2.63,5.86-5.86,5.86ZM263.17,45.15c-3.09,0-5.61,2.52-5.61,5.61V314.04c0,3.09,2.52,5.61,5.61,5.61h180.75c3.09,0,5.61-2.52,5.61-5.61V50.77c0-3.09-2.52-5.61-5.61-5.61h-180.75Z" style="fill:#e0e0e0;"></path><path d="M235.49,319.9H54.75c-3.23,0-5.86-2.63-5.86-5.86V50.77c0-3.23,2.63-5.86,5.86-5.86H235.49c3.23,0,5.86,2.63,5.86,5.86V314.04c0,3.23-2.63,5.86-5.86,5.86ZM54.75,45.15c-3.09,0-5.61,2.52-5.61,5.61V314.04c0,3.09,2.52,5.61,5.61,5.61H235.49c3.09,0,5.61-2.52,5.61-5.61V50.77c0-3.09-2.52-5.61-5.61-5.61H54.75Z" style="fill:#e0e0e0;"></path></g><rect x="0" y="380.97" width="500" height=".25" style="fill:#e0e0e0;"></rect></g><rect x="51.67" y="395.24" width="16.06" height=".25" style="fill:#e0e0e0;"></rect><rect x="170.35" y="392.53" width="53.53" height=".25" style="fill:#e0e0e0;"></rect><rect x="68.73" y="404.53" width="36.25" height=".25" style="fill:#e0e0e0;"></rect><rect x="378.35" y="392.4" width="43.19" height=".25" style="fill:#e0e0e0;"></rect><rect x="430.45" y="392.4" width="6.33" height=".25" style="fill:#e0e0e0;"></rect><rect x="316.21" y="398.63" width="53.89" height=".25" style="fill:#e0e0e0;"></rect></g><g><g><path d="M82.03,418.54c-.02-.56-1.91-56.53-11.02-65.38-8.85-8.61-19.02-.32-19.44,.04l-.91-1.09c.11-.1,11.58-9.46,21.35,.04,9.51,9.25,11.37,64.03,11.45,66.36l-1.42,.04Z" style="fill:#e0e0e0;"></path><path d="M82.81,429.54c-.07-.67-6.22-67.19,18.07-95.07l1.07,.94c-23.89,27.42-17.79,93.33-17.73,93.99l-1.42,.14Z" style="fill:#e0e0e0;"></path><path d="M81.91,422.5l-1.42-.09c.05-.75,4.75-75.62-13.06-92.01l.96-1.05c18.32,16.85,13.73,90.05,13.52,93.15Z" style="fill:#e0e0e0;"></path><path d="M84.23,422.46h-1.42c.02-2.07,.59-50.58,14.37-58.48,3.06-1.76,6.06-2.05,8.92-.87,8.33,3.45,12.46,18.27,12.63,18.9l-1.37,.38c-.04-.15-4.12-14.79-11.8-17.96-2.42-1-5-.74-7.66,.79-13.08,7.49-13.65,56.75-13.65,57.24Z" style="fill:#e0e0e0;"></path><path d="M78.87,422.49l-1.42-.08c.02-.38,2.08-38.33-8.16-51.7-2.48-3.24-5.18-4.78-8.02-4.58-6.71,.47-12.34,10.29-12.39,10.39l-1.24-.7c.24-.43,6.06-10.58,13.53-11.11,3.34-.24,6.46,1.49,9.25,5.14,10.56,13.79,8.55,51.07,8.45,52.65Z" style="fill:#e0e0e0;"></path><path d="M81.11,427.66c-.28-3.68-6.7-90.33,4.59-105.6l1.15,.85c-10.98,14.85-4.39,103.75-4.32,104.65l-1.42,.11Z" style="fill:#e0e0e0;"></path></g><path d="M109.16,371.89s-6.77,2.5-4.76,8.39c2.01,5.89,23.43,15.6,23.43,15.6,0,0,8.97-8.22,.73-21.59-8.24-13.37-19.22-6.61-19.4-2.4Z" style="fill:#ebebeb;"></path><path d="M79.72,360.67s7.21-.3,7.62,5.91c.41,6.22-15.62,23.41-15.62,23.41,0,0-11.44-4.14-8.98-19.65,2.46-15.51,15.19-13.5,16.99-9.68Z" style="fill:#ebebeb;"></path><path d="M73.61,330.92s4.81-.52,4.42-3.44c-.39-2.93-18.69-10.47-29.49,1.72,0,0,6.92,11.88,16.91,12.03,10,.16,8.16-10.31,8.16-10.31Z" style="fill:#ebebeb;"></path><path d="M82.57,323.81s-4.35,2.11-5.57-.59c-1.22-2.69,10.33-18.77,25.94-14.14,0,0,.41,13.74-7.99,19.16-8.4,5.42-12.38-4.44-12.38-4.44Z" style="fill:#ebebeb;"></path><path d="M59.81,369.53s3.32-2.68-.26-3.99c-3.58-1.31-21.15-.94-21.34,16.47,0,0,20.47,3.4,23-3.23,2.53-6.63-1.4-9.25-1.4-9.25Z" style="fill:#ebebeb;"></path><path d="M101.54,330.48s-3.32-2.68,.26-3.99c3.58-1.31,21.15-.94,21.34,16.47,0,0-20.47,3.4-23-3.23-2.53-6.63,1.4-9.25,1.4-9.25Z" style="fill:#ebebeb;"></path><path d="M90.72,344.51s-.29-3.26,2.34-1.98c2.63,1.28,11.79,11.16,2.29,20.54,0,0-12.78-9.47-10.48-14.4,2.3-4.93,5.85-4.16,5.85-4.16Z" style="fill:#ebebeb;"></path><path d="M56.84,349.15s1.98-2.6-.92-2.92c-2.91-.32-15.93,3.15-12.89,16.15,0,0,15.86-1.19,16.54-6.59,.68-5.4-2.73-6.64-2.73-6.64Z" style="fill:#ebebeb;"></path><polygon points="97.57 447.57 65.57 447.57 57.06 408.31 105.27 408.31 97.57 447.57" style="fill:#f0f0f0;"></polygon><rect x="54.16" y="407.75" width="53.89" height="11.29" style="fill:#e6e6e6;"></rect></g><g><path d="M104.79,86.38c-39.91,18.39-67.22,44.17-61.04,57.59,6.19,13.42,43.55,9.38,83.43-9.02,39.88-18.39,67.22-44.19,61.04-57.59-6.19-13.4-43.55-9.38-83.43,9.02Zm19.68,42.67c-34.91,16.09-67.27,20.25-72.32,9.3-5.04-10.95,19.16-32.84,54.04-48.92,34.88-16.09,67.25-20.27,72.32-9.33,5.07,10.95-19.16,32.86-54.04,48.95h0Z" style="fill:#e0e0e0;"></path><circle cx="119.88" cy="107.43" r="45.26" transform="translate(-.66 214.11) rotate(-83.37)" style="fill:#e6e6e6;"></circle><g style="opacity:.2;"><path d="M81.57,131.43c9.17-1.29,18.25-3.18,27.17-5.67,18.23-5.44,43.59-18.32,55.27-28.36,.61,2.58,.96,5.21,1.05,7.86-14.58,9.76-49.8,31.19-79.12,31.96-1.62-1.8-3.08-3.73-4.37-5.78Z" style="fill:#fafafa; isolation:isolate;"></path><path d="M80.89,84.58c.61-1.17,1.31-2.29,2.1-3.35,13.67-4.06,39.99-10.35,51.98-16.45,1.81,.61,3.58,1.36,5.27,2.24-14.94,3.43-45.94,14.41-59.35,17.55Z" style="fill:#fafafa; isolation:isolate;"></path><path d="M77.38,91.84c10.37-3.37,21.11-5.49,31.99-6.32,7.32,0,28.98-8.51,36.64-15.03,.61,.4,1.19,.85,1.73,1.33-18.77,7.91-41.66,27.45-52.21,33.12-6.51,3.55-13.35,6.47-20.42,8.71-.53-3.43-.64-6.92-.31-10.38,.37-3.9,1.24-7.74,2.58-11.43Z" style="fill:#fafafa; isolation:isolate;"></path></g><path d="M75.7,117.02c3.3-.78,6.55-1.73,9.76-2.84,12.39-4.2,34.74-22.26,54.5-30.57,7.43-3.09,11.68-4.88,14.18-5.84,.77,.91,1.5,1.82,2.18,2.84-5.66,3.31-11.54,6.25-17.58,8.79-12.59,5.27-26.03,12.42-33.77,18.89-5.93,4.91-20.9,11.34-27.88,13.73-.58-1.63-1.05-3.3-1.39-4.99Z" style="fill:#e0e0e0; isolation:isolate;"></path><path d="M78.23,125.02c11.4-2.83,22.96-4.96,34.63-6.38,19.62-2.27,27.05-10.97,35.08-19.26,3.99-3.9,8.56-7.17,13.56-9.67,.74,1.67,1.36,3.4,1.84,5.16-9.03,7.52-18.99,13.83-29.63,18.8-18.57,8.71-44.38,12.93-54.05,14.32-.55-.95-1.03-1.95-1.42-2.98Z" style="fill:#e0e0e0; isolation:isolate;"></path><path d="M88.46,139.91c17.01-2.19,33.56-7.14,48.97-14.66,12.62-6.21,21.61-11.12,27.59-14.52,.03,.28,.03,.57,0,.85-.14,1.33-.28,2.61-.54,3.88-14.18,7.57-46.96,23.2-75.6,24.79-.2-.03-.31-.2-.43-.34Z" style="fill:#e0e0e0; isolation:isolate;"></path><path d="M86.99,76.33c9.57-10.08,23.22-15.22,37.06-13.95,1.08,0,2.18,.26,3.23,.43-9.64,4.48-27.54,11.8-40.3,13.53Z" style="fill:#f0f0f0; isolation:isolate;"></path><path d="M100.4,148.21c11.34-2.69,40.33-9.98,52.66-16.73,2.29-1.3,4.65-2.44,7.09-3.43-.72,1.48-1.54,2.9-2.47,4.25-8.82,3.86-25.86,10.92-35.48,12.48-8.51,1.36-16.11,2.84-20.67,3.94h0c-.4-.13-.78-.3-1.13-.51Z" style="fill:#e0e0e0; isolation:isolate;"></path><path d="M138.69,70.65s-16.59,10.27-24.05,11.51c-4.53,.77-9.11,1.2-13.7,1.28,0,0,23.99-12.31,37.75-12.79Z" style="fill:#e0e0e0; isolation:isolate;"></path><path d="M173.49,75.74c2.19,.79,3.98,2.39,5.02,4.47,5.04,10.95-19.16,32.86-54.04,48.95-34.88,16.09-67.27,20.25-72.32,9.3-.85-2.13-.85-4.51,0-6.64l-8.54,3.93c-.97,2.7-.91,5.67,.19,8.33,6.19,13.42,43.55,9.38,83.43-9.02,39.88-18.39,67.22-44.19,61.04-57.59-1.3-2.56-3.52-4.54-6.21-5.54l-8.57,3.81Z" style="fill:#e0e0e0;"></path></g><g><path d="M434.68,252.94h0l-12.08-4.34c-.25-.08-.4-.33-.36-.58l2.43-18.06c.02-.21,.16-.38,.36-.44l12.26-4.21c.12-.04,.24-.03,.36,0l13.35,4.75c.26,.09,.4,.36,.34,.63l-3.96,17.5c-.05,.18-.18,.33-.35,.4l-11.97,4.36c-.12,.05-.26,.04-.38,0Zm-11.34-5.23l11.49,4.13,11.52-4.19,3.8-16.73-12.72-4.53-11.76,4.03-2.33,17.29Z" style="fill:#e0e0e0;"></path><path d="M422.61,248.6c-.17-.05-.31-.17-.37-.33-.1-.28,.04-.59,.32-.7l11.96-4.39c.12-.04,.25-.04,.37,0l12.11,4.37c.28,.1,.43,.41,.33,.7-.1,.28-.41,.43-.7,.33l-11.94-4.31-11.76,4.33c-.11,.04-.22,.04-.33,0Z" style="fill:#e0e0e0;"></path><path d="M434.56,244.22c-.26-.08-.43-.33-.39-.61l2.73-17.87c.05-.3,.33-.5,.62-.46,.3,.05,.5,.33,.46,.62l-2.73,17.87c-.05,.29-.33,.49-.62,.46l-.06-.02Z" style="fill:#e0e0e0;"></path><path d="M438.19,235.91l-.06-.02-13.18-5.37c-.27-.1-.41-.41-.31-.69v-.03c.13-.27,.44-.4,.72-.3l12.95,5.28,12.26-4.73c.28-.11,.59,.03,.7,.31,.1,.28-.04,.59-.32,.7l-12.45,4.81c-.1,.04-.21,.05-.31,.03Z" style="fill:#e0e0e0;"></path><path d="M434.68,252.94c-.27-.08-.44-.35-.39-.63l3.51-17.08c.06-.29,.34-.49,.64-.43h0c.3,.06,.49,.35,.43,.65l-3.51,17.08c-.06,.29-.35,.48-.64,.42h-.04Z" style="fill:#e0e0e0;"></path></g></g><g id="freepik--Shadow--inject-202"><path d="M458.88,448.39c0,3.39-93.52,6.13-208.88,6.13s-208.88-2.75-208.88-6.13,93.52-6.13,208.88-6.13,208.88,2.75,208.88,6.13Z" style="fill:#f5f5f5;"></path></g><g id="freepik--Books--inject-202"><g id="freepik--freepik--Books--inject-2--inject-202"><polygon points="373.89 396.23 336.85 396.23 336.85 394.52 373.85 394.52 373.89 396.23" style="isolation:isolate; opacity:.2;"></polygon><g><rect x="336.77" y="394.77" width="39.11" height="16.96" style="fill:#000000;"></rect><rect x="336.77" y="394.77" width="39.11" height="16.96" style="fill:#fff; isolation:isolate; opacity:.8;"></rect><polygon points="372.74 397.87 340.29 398.56 372.74 399.26 372.74 397.87" style="isolation:isolate; opacity:.2;"></polygon><polygon points="372.74 404.14 338.38 404.72 372.74 405.22 372.74 404.14" style="isolation:isolate; opacity:.2;"></polygon><polygon points="372.74 407.81 338.68 408.5 372.74 409.19 372.74 407.81" style="isolation:isolate; opacity:.2;"></polygon><polygon points="336.78 400.29 369.72 401.29 336.78 401.97 336.78 400.29" style="isolation:isolate; opacity:.2;"></polygon><path d="M424.04,403.16c0,4.24-3.44,7.68-7.68,7.68h-81.4c-.31,0-.56,.25-.56,.56h0v.61c0,.31,.25,.56,.56,.56h81.81c5.21,0,9.43-4.23,9.43-9.45v-.05c-.11-5.24-4.41-9.41-9.64-9.38h-81.59c-.31,0-.56,.25-.56,.56h0v.61c0,.31,.25,.57,.56,.57h81.16c4.3-.01,7.82,3.42,7.92,7.72Z" style="fill:#263238;"></path><path d="M424.04,403.16c0,4.24-3.44,7.68-7.68,7.68h-81.4c-.31,0-.56,.25-.56,.56h0v.61c0,.31,.25,.56,.56,.56h81.81c5.21,0,9.43-4.23,9.43-9.45v-.05c-.11-5.24-4.41-9.41-9.64-9.38h-81.59c-.31,0-.56,.25-.56,.56h0v.61c0,.31,.25,.57,.56,.57h81.16c4.3-.01,7.82,3.42,7.92,7.72Z" style="fill:#fff; isolation:isolate; opacity:.4;"></path><path d="M453.72,403.26h0c0,4.69-3.79,8.49-8.48,8.5h-72.52v-17h72.45c4.69-.03,8.51,3.75,8.54,8.43,0,.02,0,.04,0,.06Z" style="fill:#000000;"></path><path d="M372.73,394.77v17h72.5c4.69,0,8.5-3.8,8.5-8.5s-3.8-8.5-8.5-8.5h-72.5Z" style="fill:#fff; isolation:isolate; opacity:.7;"></path><polygon points="372.74 399.26 372.74 397.87 445 398.45 372.74 399.26" style="isolation:isolate; opacity:.2;"></polygon><polygon points="372.74 405.22 372.74 404.14 405.18 405.31 372.74 405.22" style="isolation:isolate; opacity:.2;"></polygon><polygon points="372.74 409.19 372.74 407.81 425.04 408.62 372.74 409.19" style="isolation:isolate; opacity:.2;"></polygon><path d="M445.35,396.42c1.39,0,2.74,.52,3.77,1.46-.45,.88-.81,1.8-1.06,2.76l-72.45,.56,72.32,.18c-.11,.59-.17,1.19-.17,1.79,0,.7,.08,1.41,.24,2.09l-48.82,1.07,49.28,.56c.42,1.18,.97,2.31,1.64,3.37,3.86-2.67,4.82-7.97,2.15-11.82-1.58-2.29-4.19-3.65-6.97-3.66h-72.54v1.65l72.62-.02Z" style="isolation:isolate; opacity:.2;"></path><path d="M453.05,403.16c0,4.24-3.44,7.68-7.68,7.68h-73.85c-.31,0-.56,.25-.56,.56h0v.61c0,.31,.25,.56,.56,.56h74.24c5.21,0,9.43-4.23,9.43-9.45v-.05c-.11-5.24-4.41-9.41-9.64-9.38h-74.03c-.31,0-.56,.25-.56,.56h0v.61c0,.31,.25,.57,.56,.57h73.66c4.28,.01,7.77,3.44,7.87,7.72Z" style="fill:#263238;"></path><polygon points="445 401 445 407.81 442.53 405.35 440.14 407.74 440.14 401 445 401" style="fill:#000000;"></polygon></g><rect x="348.37" y="432.62" width="91.05" height="14.66" style="fill:#000000;"></rect><rect x="348.37" y="432.62" width="91.05" height="14.66" style="fill:#fff; isolation:isolate; opacity:.7;"></rect><polygon points="348.37 436.5 348.37 435.3 410.71 435.8 348.37 436.5" style="isolation:isolate; opacity:.2;"></polygon><polygon points="348.37 441.63 348.37 440.71 376.36 441.71 348.37 441.63" style="isolation:isolate; opacity:.2;"></polygon><polygon points="348.37 445.06 348.37 443.88 393.49 444.56 348.37 445.06" style="isolation:isolate; opacity:.2;"></polygon><path d="M419.07,432.59l1.29,10.95-1.54-1.69c-.52,2-1.5,3.85-2.86,5.4-.98-1.28-1.76-2.7-2.32-4.21l-42.52-.49,42.12-.93c-.13-.59-.2-1.2-.21-1.81,0-.52,.05-1.03,.15-1.54l-62.39-.15,62.51-.49c.22-.82,.53-1.62,.92-2.37-.89-.81-2.06-1.26-3.26-1.26h-62.58v-1.42h70.7Z" style="isolation:isolate; opacity:.2;"></path><path d="M417.66,439.86c0,3.66-2.98,6.63-6.64,6.62h-63.71c-.27,0-.49,.22-.49,.49h0v.52c0,.27,.22,.49,.49,.49h99.11c4.5,0,8.14-3.65,8.13-8.15v-.05c-.11-4.52-3.82-8.12-8.34-8.07h-98.9c-.27,0-.49,.22-.49,.49v.52c0,.27,.22,.49,.49,.49h63.51c3.7,0,6.73,2.94,6.83,6.64Z" style="fill:#000000;"></path><path d="M417.66,439.86c0,3.66-2.98,6.63-6.64,6.62h-63.71c-.27,0-.49,.22-.49,.49h0v.52c0,.27,.22,.49,.49,.49h99.11c4.5,0,8.14-3.65,8.13-8.15v-.05c-.11-4.52-3.82-8.12-8.34-8.07h-98.9c-.27,0-.49,.22-.49,.49v.52c0,.27,.22,.49,.49,.49h63.51c3.7,0,6.73,2.94,6.83,6.64Z" style="isolation:isolate; opacity:.2;"></path><path d="M417.66,439.86c0,3.66-2.98,6.63-6.64,6.62h-63.71c-.27,0-.49,.22-.49,.49h0v.52c0,.27,.22,.49,.49,.49h64.05c4.49,0,8.13-3.64,8.13-8.13v-.07c-.11-4.52-3.82-8.12-8.34-8.07h-63.84c-.27,0-.49,.22-.49,.49v.52c0,.27,.22,.49,.49,.49h63.51c3.7,0,6.73,2.94,6.83,6.64Z" style="fill:#000000;"></path><path d="M417.66,439.86c0,3.66-2.98,6.63-6.64,6.62h-63.71c-.27,0-.49,.22-.49,.49h0v.52c0,.27,.22,.49,.49,.49h64.05c4.49,0,8.13-3.64,8.13-8.13v-.07c-.11-4.52-3.82-8.12-8.34-8.07h-63.84c-.27,0-.49,.22-.49,.49v.52c0,.27,.22,.49,.49,.49h63.51c3.7,0,6.73,2.94,6.83,6.64Z" style="fill:#fff; isolation:isolate; opacity:.2;"></path><rect x="344.62" y="413.79" width="108.72" height="17.5" style="fill:#000000;"></rect><rect x="344.62" y="413.79" width="108.72" height="17.5" style="fill:#fff; isolation:isolate; opacity:.8;"></rect><polygon points="344.62 418.42 344.62 416.99 419.05 417.59 344.62 418.42" style="isolation:isolate; opacity:.2;"></polygon><polygon points="344.62 424.55 344.62 423.45 378.04 424.65 344.62 424.55" style="isolation:isolate; opacity:.2;"></polygon><polygon points="344.62 428.65 344.62 427.23 398.5 428.05 344.62 428.65" style="isolation:isolate; opacity:.2;"></polygon><path d="M429.03,413.79l1.58,13.04-1.84-1.98c-.63,2.39-1.8,4.59-3.42,6.45-1.17-1.52-2.1-3.22-2.76-5.02l-50.77-.58,50.3-1.1c-.15-.71-.23-1.44-.24-2.17,0-.62,.06-1.24,.18-1.84l-74.5-.18,74.64-.58c.26-.98,.63-1.94,1.1-2.84-1.07-.96-2.45-1.5-3.89-1.49h-74.77v-1.71h84.42Z" style="isolation:isolate; opacity:.2;"></path><path d="M427.33,422.44c0,4.37-3.55,7.91-7.92,7.91h-76.04c-.32,0-.58,.27-.58,.59v.63c0,.32,.26,.58,.58,.58h112.42c5.37,0,9.72-4.36,9.71-9.73v-.06c-.16-5.4-4.62-9.67-10.02-9.59h-112.12c-.32,0-.58,.26-.58,.58h0v.63c0,.32,.26,.58,.58,.59h75.84c4.39,0,7.98,3.49,8.13,7.88Z" style="fill:#000000;"></path><path d="M427.33,422.44c0,4.37-3.55,7.91-7.92,7.91h-76.04c-.32,0-.58,.27-.58,.59v.63c0,.32,.26,.58,.58,.58h76.48c5.37,0,9.72-4.36,9.71-9.73v-.06c-.16-5.36-4.57-9.62-9.93-9.59h-76.26c-.32,0-.58,.26-.58,.58h0v.63c0,.32,.26,.58,.58,.59h75.84c4.39,0,7.98,3.49,8.13,7.88Z" style="fill:#000000;"></path><path d="M427.33,422.44c0,4.37-3.55,7.91-7.92,7.91h-76.04c-.32,0-.58,.27-.58,.59v.63c0,.32,.26,.58,.58,.58h76.48c5.37,0,9.72-4.36,9.71-9.73v-.06c-.16-5.36-4.57-9.62-9.93-9.59h-76.26c-.32,0-.58,.26-.58,.58h0v.63c0,.32,.26,.58,.58,.59h75.84c4.39,0,7.98,3.49,8.13,7.88Z" style="fill:#fff; isolation:isolate; opacity:.6;"></path><g><rect x="352.58" y="381.32" width="75.39" height="12.14" style="fill:#000000;"></rect><rect x="352.58" y="381.32" width="75.39" height="12.14" style="fill:#fff; isolation:isolate; opacity:.7;"></rect><polygon points="352.58 384.53 352.58 383.54 404.2 383.95 352.58 384.53" style="isolation:isolate; opacity:.2;"></polygon><polygon points="352.58 388.78 352.58 388.02 375.76 388.85 352.58 388.78" style="isolation:isolate; opacity:.2;"></polygon><polygon points="352.58 391.62 352.58 390.64 389.94 391.21 352.58 391.62" style="isolation:isolate; opacity:.2;"></polygon><path d="M411.12,381.32l1.09,9.05-1.28-1.38c-.43,1.65-1.25,3.19-2.37,4.47-.81-1.06-1.46-2.23-1.92-3.48l-35.21-.4,34.88-.77c-.11-.49-.16-1-.17-1.5,0-.43,.04-.86,.12-1.28l-51.67-.13,51.76-.4c.18-.68,.44-1.34,.76-1.97-.74-.67-1.7-1.03-2.7-1.04h-51.85v-1.19l58.54,.02Z" style="isolation:isolate; opacity:.2;"></path><path d="M409.96,387.31c0,3.03-2.46,5.49-5.5,5.49h-52.75c-.22,0-.4,.18-.4,.4h0v.43c0,.22,.18,.4,.4,.4h82.07c3.72,0,6.73-3.01,6.74-6.72v-.06c-.09-3.74-3.17-6.72-6.91-6.68h-81.9c-.22,0-.4,.19-.4,.41v.43c0,.22,.18,.4,.4,.4h52.59c3.06,0,5.57,2.43,5.66,5.5Z" style="fill:#263238;"></path><path d="M409.96,387.31c0,3.03-2.46,5.49-5.5,5.49h-52.75c-.22,0-.4,.18-.4,.4h0v.43c0,.22,.18,.4,.4,.4h82.07c3.72,0,6.73-3.01,6.74-6.72v-.06c-.09-3.74-3.17-6.72-6.91-6.68h-81.9c-.22,0-.4,.19-.4,.41v.43c0,.22,.18,.4,.4,.4h52.59c3.06,0,5.57,2.43,5.66,5.5Z" style="fill:#fff; isolation:isolate; opacity:.2;"></path><path d="M409.96,387.31c0,3.03-2.46,5.49-5.5,5.49h-52.75c-.22,0-.4,.18-.4,.4h0v.43c0,.22,.18,.4,.4,.4h53.04c3.72,0,6.73-3.01,6.74-6.72v-.06c-.09-3.74-3.17-6.71-6.91-6.68h-52.87c-.22,0-.4,.19-.4,.41v.43c0,.22,.18,.4,.4,.4h52.59c3.06,0,5.57,2.43,5.66,5.5Z" style="fill:#263238;"></path><path d="M409.96,387.31c0,3.03-2.46,5.49-5.5,5.49h-52.75c-.22,0-.4,.18-.4,.4h0v.43c0,.22,.18,.4,.4,.4h53.04c3.72,0,6.73-3.01,6.74-6.72v-.06c-.09-3.74-3.17-6.71-6.91-6.68h-52.87c-.22,0-.4,.19-.4,.41v.43c0,.22,.18,.4,.4,.4h52.59c3.06,0,5.57,2.43,5.66,5.5Z" style="fill:#fff; isolation:isolate; opacity:.4;"></path></g></g><g id="freepik--freepik--Books--inject-2-2--inject-202"><polygon points="117.32 430.51 80.28 430.51 80.28 428.79 117.29 428.79 117.32 430.51" style="isolation:isolate; opacity:.2;"></polygon><polygon points="117.33 433.42 117.33 431.99 191.77 432.59 117.33 433.42" style="isolation:isolate; opacity:.2;"></polygon><g><rect x="76.09" y="429.21" width="38.32" height="16.62" style="fill:#000000;"></rect><rect x="76.09" y="429.21" width="38.32" height="16.62" style="fill:#fff; isolation:isolate; opacity:.8;"></rect><polygon points="111.34 432.25 79.54 432.93 111.34 433.61 111.34 432.25" style="isolation:isolate; opacity:.2;"></polygon><polygon points="111.34 438.4 77.66 438.97 111.34 439.45 111.34 438.4" style="isolation:isolate; opacity:.2;"></polygon><polygon points="111.34 441.99 77.96 442.67 111.34 443.34 111.34 441.99" style="isolation:isolate; opacity:.2;"></polygon><polygon points="76.1 434.62 108.38 435.6 76.1 436.27 76.1 434.62" style="isolation:isolate; opacity:.2;"></polygon><path d="M161.61,437.43c0,4.16-3.37,7.52-7.53,7.53H74.32c-.3,0-.55,.25-.55,.55h0v.6c0,.31,.25,.55,.55,.55h80.17c5.11,0,9.24-4.15,9.24-9.26v-.05c-.11-5.13-4.32-9.22-9.45-9.19H74.32c-.3,0-.55,.25-.55,.55h0v.6c0,.31,.25,.56,.55,.56h79.53c4.21-.01,7.66,3.35,7.76,7.56Z" style="fill:#263238;"></path><path d="M161.61,437.43c0,4.16-3.37,7.52-7.53,7.53H74.32c-.3,0-.55,.25-.55,.55h0v.6c0,.31,.25,.55,.55,.55h80.17c5.11,0,9.24-4.15,9.24-9.26v-.05c-.11-5.13-4.32-9.22-9.45-9.19H74.32c-.3,0-.55,.25-.55,.55h0v.6c0,.31,.25,.56,.55,.56h79.53c4.21-.01,7.66,3.35,7.76,7.56Z" style="fill:#fff; isolation:isolate; opacity:.4;"></path><path d="M190.69,437.53h0c0,4.59-3.72,8.32-8.31,8.33H111.32v-16.65h71c4.59-.03,8.34,3.67,8.37,8.27,0,.02,0,.04,0,.06Z" style="fill:#000000;"></path><path d="M111.32,429.21v16.65h71.04c4.6,0,8.33-3.73,8.33-8.33s-3.73-8.33-8.33-8.33H111.32Z" style="fill:#fff; isolation:isolate; opacity:.7;"></path><polygon points="111.34 439.45 111.34 438.4 143.12 439.54 111.34 439.45" style="isolation:isolate; opacity:.2;"></polygon><polygon points="111.34 443.34 111.34 441.99 162.59 442.78 111.34 443.34" style="isolation:isolate; opacity:.2;"></polygon><path d="M182.49,430.83c1.37,0,2.68,.51,3.7,1.43-.44,.86-.79,1.77-1.04,2.7l-71,.55,70.87,.18c-.11,.58-.17,1.16-.17,1.75,0,.69,.08,1.38,.24,2.05l-47.84,1.05,48.29,.55c.41,1.16,.95,2.26,1.6,3.3,3.78-2.62,4.72-7.81,2.1-11.59-1.55-2.24-4.1-3.58-6.83-3.59H111.32v1.62l71.17-.02Z" style="isolation:isolate; opacity:.2;"></path><path d="M190.04,437.43c0,4.16-3.37,7.52-7.53,7.53H110.14c-.3,0-.55,.25-.55,.55h0v.6c0,.31,.25,.55,.55,.55h72.75c5.11,0,9.24-4.15,9.24-9.26v-.05c-.11-5.13-4.32-9.22-9.45-9.19H110.14c-.3,0-.55,.25-.55,.55h0v.6c0,.31,.25,.56,.55,.56h72.18c4.2,.01,7.62,3.37,7.71,7.56Z" style="fill:#263238;"></path><polygon points="182.15 435.32 182.15 441.99 179.73 439.58 177.39 441.92 177.39 435.32 182.15 435.32" style="fill:#000000;"></polygon></g><g><rect x="108.02" y="401.78" width="64.65" height="10.41" style="fill:#000000;"></rect><rect x="108.02" y="401.78" width="64.65" height="10.41" style="fill:#fff; isolation:isolate; opacity:.8;"></rect><polygon points="172.67 404.54 172.67 403.69 128.41 404.04 172.67 404.54" style="isolation:isolate; opacity:.2;"></polygon><polygon points="172.67 408.18 172.67 407.53 152.8 408.24 172.67 408.18" style="isolation:isolate; opacity:.2;"></polygon><polygon points="172.67 410.62 172.67 409.77 140.63 410.26 172.67 410.62" style="isolation:isolate; opacity:.2;"></polygon><path d="M122.47,401.78l-.94,7.75,1.1-1.18c.37,1.42,1.07,2.73,2.03,3.84,.7-.91,1.25-1.91,1.64-2.99l30.19-.35-29.91-.65c.09-.42,.14-.85,.14-1.29,0-.37-.04-.73-.1-1.1l44.3-.11-44.38-.35c-.15-.58-.37-1.15-.65-1.69,.63-.57,1.46-.89,2.31-.89h44.46v-1.02h-50.2Z" style="isolation:isolate; opacity:.2;"></path><path d="M123.49,406.92c0,2.6,2.11,4.7,4.71,4.7h45.22c.19,0,.35,.16,.35,.35v.37c0,.19-.15,.35-.35,.35H106.57c-3.19,0-5.78-2.59-5.78-5.79v-.03c.1-3.21,2.75-5.75,5.96-5.7h66.67c.19,0,.35,.15,.35,.35h0v.37c0,.19-.15,.35-.35,.35h-45.1c-2.61,0-4.75,2.08-4.83,4.68Z" style="fill:#000000;"></path><path d="M123.49,406.92c0,2.6,2.11,4.7,4.71,4.7h45.22c.19,0,.35,.16,.35,.35v.37c0,.19-.15,.35-.35,.35H106.57c-3.19,0-5.78-2.59-5.78-5.79v-.03c.1-3.21,2.75-5.75,5.96-5.7h66.67c.19,0,.35,.15,.35,.35h0v.37c0,.19-.15,.35-.35,.35h-45.1c-2.61,0-4.75,2.08-4.83,4.68Z" style="fill:#fff; isolation:isolate; opacity:.4;"></path><path d="M123.49,406.92c0,2.6,2.11,4.7,4.71,4.7h45.22c.19,0,.35,.16,.35,.35v.37c0,.19-.15,.35-.35,.35h-45.48c-3.19,0-5.78-2.59-5.78-5.79v-.03c.1-3.19,2.72-5.72,5.91-5.7h45.35c.19,0,.35,.15,.35,.35h0v.37c0,.19-.15,.35-.35,.35h-45.1c-2.61,0-4.75,2.08-4.83,4.68Z" style="fill:#000000;"></path><path d="M123.49,406.92c0,2.6,2.11,4.7,4.71,4.7h45.22c.19,0,.35,.16,.35,.35v.37c0,.19-.15,.35-.35,.35h-45.48c-3.19,0-5.78-2.59-5.78-5.79v-.03c.1-3.19,2.72-5.72,5.91-5.7h45.35c.19,0,.35,.15,.35,.35h0v.37c0,.19-.15,.35-.35,.35h-45.1c-2.61,0-4.75,2.08-4.83,4.68Z" style="fill:#fff; isolation:isolate; opacity:.6;"></path></g><g><rect x="87.38" y="412.87" width="89.39" height="14.39" style="fill:#000000;"></rect><rect x="87.38" y="412.87" width="89.39" height="14.39" style="fill:#fff; isolation:isolate; opacity:.7;"></rect><polygon points="87.37 416.68 87.37 415.5 148.58 416 87.37 416.68" style="isolation:isolate; opacity:.2;"></polygon><polygon points="87.37 421.72 87.37 420.82 114.85 421.8 87.37 421.72" style="isolation:isolate; opacity:.2;"></polygon><polygon points="87.37 425.09 87.37 423.93 131.67 424.6 87.37 425.09" style="isolation:isolate; opacity:.2;"></polygon><path d="M156.78,412.87l1.3,10.73-1.52-1.64c-.52,1.96-1.48,3.78-2.81,5.3-.96-1.25-1.73-2.65-2.27-4.13l-41.75-.48,41.35-.91c-.13-.59-.19-1.18-.2-1.78,0-.51,.05-1.02,.14-1.52l-61.26-.16,61.37-.48c.22-.81,.52-1.59,.9-2.33-.88-.79-2.02-1.23-3.2-1.23h-61.48v-1.41l69.41,.02Z" style="isolation:isolate; opacity:.2;"></path><path d="M155.41,419.98c0,3.6-2.92,6.51-6.52,6.51h-62.55c-.26,0-.48,.21-.48,.48h0v.52c0,.26,.21,.48,.48,.48h97.31c4.41,0,7.98-3.56,7.99-7.97v-.08c-.1-4.44-3.75-7.97-8.19-7.93H86.34c-.26,0-.48,.22-.48,.48v.52c0,.26,.21,.48,.48,.48h62.36c3.63,0,6.61,2.89,6.71,6.52Z" style="fill:#000000;"></path><path d="M155.41,419.98c0,3.6-2.92,6.51-6.52,6.51h-62.55c-.26,0-.48,.21-.48,.48h0v.52c0,.26,.21,.48,.48,.48h62.89c4.41,0,7.98-3.56,7.99-7.97,0-.03,0-.05,0-.08-.11-4.43-3.76-7.96-8.19-7.93h-62.68c-.26,0-.48,.22-.48,.48v.52c0,.26,.21,.48,.48,.48h62.36c3.63,0,6.61,2.89,6.71,6.52Z" style="fill:#000000;"></path></g></g><g id="freepik--freepik--Globe--inject-2--inject-202"><rect x="391.92" y="352.15" width="5.23" height="17.21" style="fill:#263238;"></rect><g style="opacity:.2;"><rect x="391.92" y="352.15" width="5.23" height="17.21" style="fill:#fff;"></rect></g><path d="M394.47,354.92c-8.14,0-16.16-2.01-23.33-5.86l2.48-4.61c21.61,11.55,48.49,3.39,60.04-18.22,5.62-10.52,6.77-22.86,3.19-34.24-1.4-4.51-3.53-8.76-6.3-12.58-3.96-5.5-9.12-10.02-15.09-13.22l2.47-4.61c2.75,1.48,5.36,3.21,7.8,5.17,3.44,2.78,6.49,6,9.07,9.59,3.09,4.28,5.47,9.03,7.04,14.07,8.24,26.13-6.26,53.99-32.39,62.23-4.84,1.53-9.89,2.3-14.97,2.3v-.02Z" style="fill:#263238;"></path><g style="opacity:.3;"><path d="M394.47,354.92c-8.14,0-16.16-2.01-23.33-5.86l2.48-4.61c21.61,11.55,48.49,3.39,60.04-18.22,5.62-10.52,6.77-22.86,3.19-34.24-1.4-4.51-3.53-8.76-6.3-12.58-3.96-5.5-9.12-10.02-15.09-13.22l2.47-4.61c2.75,1.48,5.36,3.21,7.8,5.17,3.44,2.78,6.49,6,9.07,9.59,3.09,4.28,5.47,9.03,7.04,14.07,8.24,26.13-6.26,53.99-32.39,62.23-4.84,1.53-9.89,2.3-14.97,2.3v-.02Z" style="fill:#fff;"></path></g><path d="M369.45,353.42c-.22,0-.43-.05-.62-.16-.62-.34-.86-1.11-.53-1.74l50.17-93.6c.34-.64,1.13-.88,1.77-.54,.64,.34,.88,1.13,.54,1.77h0l-50.18,93.56c-.22,.43-.67,.7-1.15,.71Z" style="fill:#263238;"></path><g style="opacity:.4;"><path d="M369.45,353.42c-.22,0-.43-.05-.62-.16-.62-.34-.86-1.11-.53-1.74l50.17-93.6c.34-.64,1.13-.88,1.77-.54,.64,.34,.88,1.13,.54,1.77h0l-50.18,93.56c-.22,.43-.67,.7-1.15,.71Z" style="fill:#fff;"></path></g><path d="M384.97,368.09h19.13c1.28,0,2.32,1.04,2.32,2.32h0v4.27h-23.76v-4.27c0-1.28,1.03-2.31,2.31-2.32Z" style="fill:#263238;"></path><path d="M396.5,267.1c21.1,1.08,37.34,19.07,36.25,40.17-1.08,21.1-19.07,37.34-40.17,36.25-21.1-1.08-37.34-19.07-36.25-40.17h0c1.08-21.11,19.07-37.34,40.17-36.25Z" style="fill:#000000;"></path><path d="M416.83,274.23c-.06-.03-.11-.06-.17-.1-.11-.09-.22-.17-.35-.24-1.59-.87-1.14,2.21-2.62,2.9-1.47,.7-4.07-.56-3.76-1.47,.31-.91-2.67-3.43-3.49-3.83-1.33-.48-2.79,.21-3.27,1.54-.1,.28-.15,.57-.15,.87-.12,2.62,1.32,4.17,.92,4.96-.4,.79-.39,1.04-3.03,2.3s-4.55-.35-6.15,1.09,.47,2.24-.17,5.73c-.64,3.49-1.58,.99-3.49,1.36-1.91,.37-.82-1.93-.58-3.27,.24-1.34-1.74-1.74-2.62-1.85s-3.05-.37-2.77-3.07c.28-2.7,.14-5.23-3.57-5.02-1.91,.12-2.95-2.62-3.49-5.37-9.78,4.66-17.14,13.24-20.25,23.62,.2-.04,.37,.24,.65,.93,.87,2.18,1.68,4.36,2.79,5.69,1,1.07,1.33,2.59,.87,3.98-.46,1.07-2.71,1.74-2.76,2.49-.04,.74-2.15,1.74-2.49,2.42-.06,.16-.21,.25-.37,.24,1.33,10.5,6.97,19.98,15.56,26.16,.95-2.48,2.62-4.44,3.73-4.5,2.34-.12,9.55-1.26,6.9-4.45-2.65-3.18-5.48-6.1-5.48-6.1,.55-.84,1.18-1.63,1.87-2.36,.43-.27-.96-1.06,1.47-1.33,2.43-.26,2.62-.28,1.6-1.45-1.02-1.17-2.7-.28-1.59-1.74,1.12-1.46,2.34-2.62,3.54-.99,1.2,1.62,.47,2.49,.87,2.96,.4,.48,4-.26,4-.26,0,0,.93,1.3,.53,1.59-.66,.77-1.26,1.59-1.8,2.45-.29,.81-.77,1.55-1.39,2.15-.73,.43,2.01,3.21,2.83,3.64,.82,.43,1.16,.78,1.87,.59,.71-.18,2.08-1.66,2.57-2.1,.5-.44,3.49,.65,3.49,.65,1.12,.65,2.18,1.41,3.15,2.28,.99,.99,2.54,1.16,3.72,.42,.62-.56,.58-2.08,1.74-1.55s1.55,1.06,2.35,3.88c.8,2.82,5.57,6.95,4.98,8.69,3.53-1.94,6.72-4.44,9.46-7.39-3.37-1.12-4.63-2.42-5.14-3.17-.65-.97-.27-.98,.1-2.62,.37-1.64,3.44-2.62,3.94-3.06,.5-.44,2.89-3.43,4.07-3.74s1.09-1.88,1.09-1.88c0,0,.22,.41,.7-.63s-.04-2.1,1.54-3.54c1.02-.78,2.22-1.32,3.49-1.55,.21-1.31,.34-2.64,.41-3.97,.12-2.33,.03-4.66-.28-6.98l-4.15,1.58c-.97,.02-1.94-.08-2.89-.28-.45-.26-2.62-1.66-4.29-.8-1.67,.85-1.84-.57-4.98-1.08-3.14-.51,1.54-4.95,2.28-5.62s.87-.31,2.99-1.37,1.74-2.69,1.74-2.69c-1.28-1.86-2.79-3.56-4.49-5.06-2.06-1.62,.87-1.79,5.97-3.26-2.23-2.83-4.86-5.34-7.8-7.43Zm-13.95,48.4c-.73,1.11-1.74-.22-1.74-.22-2.97-.87-3.26-3.29-2.25-4.2,1.01-.92,1.51-4.04,3.1-2.79,1.28,.95,2.62,1.83,4,2.62,0,0,1.74-4.5,1.82-.31,.08,4.19,2.46,2.91,.05,4.19-2.41,1.28-4.23-.42-4.96,.69l-.02,.03Zm11.62,1.13c.01,1.07-.11,2.14-.36,3.17l-2.23,1.14c-1.67-1.39-1.02-3.49-.11-3.68,.91-.19,2.6-1.87,2.73-.66l-.03,.03Zm-4.09-32.33c.58,1.14-1.19,1.88-3.17,4.77-1.97,2.89-3.18,.53-3.18,.53,0,0-3.99-3.19-2.69-4.59,1.3-1.4,.32-3.24,2.24-4.3,1.19-.66,2.38-.09,3.49,1.14,1.11,1.23,2.76,1.28,3.33,2.42l-.02,.03Z" style="fill:#fff; isolation:isolate; opacity:.5;"></path><path d="M406.49,269c.55,11.51-3.14,23.94-11.23,34.61-8.96,11.82-21.44,19.02-33.89,20.83-10.53-18.33-4.2-41.73,14.13-52.26,9.41-5.4,20.67-6.56,30.99-3.18Z" style="fill:#fff; isolation:isolate; opacity:.2;"></path><g style="opacity:.3;"><path d="M384.97,368.09h19.13c1.28,0,2.32,1.04,2.32,2.32h0v4.27h-23.76v-4.27c0-1.28,1.03-2.31,2.31-2.32Z" style="fill:#fff;"></path></g><path d="M374.65,373.43h39.78c1.49,0,2.7,1.21,2.7,2.7h0v4.44h-45.19v-4.44c0-1.49,1.21-2.7,2.7-2.7Z" style="fill:#263238;"></path><g style="opacity:.4;"><path d="M374.65,373.43h39.78c1.49,0,2.7,1.21,2.7,2.7h0v4.44h-45.19v-4.44c0-1.49,1.21-2.7,2.7-2.7Z" style="fill:#fff;"></path></g></g></g><g id="freepik--Exam--inject-202"><g><g><rect x="71.11" y="97.67" width="178.5" height="247.52" transform="translate(-23.89 19.45) rotate(-6.46)" style="fill:#000000;"></rect><rect x="71.11" y="97.67" width="178.5" height="247.52" transform="translate(-23.89 19.45) rotate(-6.46)" style="fill:#fff; isolation:isolate; opacity:.8;"></rect></g><g><path d="M99.26,134.48l.5,4.38-16.08,1.82-2.27-20.03,15.71-1.78,.5,4.38-10.1,1.14,.38,3.38,8.9-1.01,.48,4.23-8.9,1.01,.41,3.66,10.47-1.19Z" style="fill:#000000;"></path><path d="M115.37,137.09l-4.85-5.74-3.39,6.67-6.47,.73,6.15-10.95-8.1-9.11,6.38-.72,4.66,5.33,3.29-6.23,6.12-.69-5.89,10.46,8.61,9.51-6.52,.74Z" style="fill:#000000;"></path><path d="M135.7,130.85l-8.47,.96-1.13,4.07-5.78,.65,6.57-21.03,5.58-.63,11.14,19.02-5.89,.67-2.01-3.71Zm-2.13-3.99l-3.3-6.12-1.85,6.7,5.15-.58Z" style="fill:#000000;"></path><path d="M163.29,131.66l-1.26-10.61-4.17,9.22-2.52,.29-6.07-7.77,1.17,10.33-5.24,.59-2.27-20.03,4.66-.53,8.35,10.76,5.56-12.33,4.66-.53,2.33,20.02-5.21,.59Z" style="fill:#000000;"></path></g><rect x="176.95" y="110.57" width="38.63" height="3.45" transform="translate(-11.39 22.79) rotate(-6.46)" style="fill:#000000; opacity:.2;"></rect><rect x="91.01" y="150" width="120.21" height="4.48" transform="translate(-16.17 17.97) rotate(-6.46)" style="fill:#000000; opacity:.2;"></rect><rect x="178.29" y="117.91" width="31.03" height="3.45" transform="translate(-12.23 22.56) rotate(-6.46)" style="fill:#000000; opacity:.2;"></rect><rect x="80.47" y="156.97" width="5.22" height="5.22" transform="translate(-17.43 10.36) rotate(-6.46)" style="fill:#000000; opacity:.2;"></rect><rect x="98.99" y="220.48" width="120.21" height="4.48" transform="translate(-24.05 19.31) rotate(-6.46)" style="fill:#000000; opacity:.2;"></rect><rect x="88.45" y="227.45" width="5.22" height="5.22" transform="translate(-25.3 11.7) rotate(-6.46)" style="fill:#000000; opacity:.2;"></rect><rect x="105.84" y="280.9" width="120.21" height="4.48" transform="translate(-30.8 20.47) rotate(-6.46)" style="fill:#000000; opacity:.2;"></rect><rect x="95.29" y="287.87" width="5.22" height="5.22" transform="translate(-32.06 12.86) rotate(-6.46)" style="fill:#000000; opacity:.2;"></rect><g><rect x="107.65" y="163.19" width="106.1" height="4.48" transform="translate(-17.59 19.13) rotate(-6.46)" style="fill:#000000; opacity:.2;"></rect><rect x="109.05" y="177.31" width="42.08" height="4.48" transform="translate(-19.38 15.78) rotate(-6.46)" style="fill:#000000; opacity:.2;"></rect><path d="M94.02,177.56l-.89-7.85,7.85-.89,.89,7.85-7.85,.89Zm-.06-7.19l.72,6.36,6.36-.72-.72-6.36-6.36,.72Z" style="fill:#000000; opacity:.2;"></path></g><g><rect x="110.82" y="191.2" width="106.1" height="4.48" transform="translate(-20.72 19.67) rotate(-6.46)" style="fill:#000000; opacity:.2;"></rect><rect x="112.22" y="205.32" width="42.08" height="4.48" transform="translate(-22.51 16.31) rotate(-6.46)" style="fill:#000000; opacity:.2;"></rect><path d="M97.19,205.57l-.89-7.85,7.85-.89,.89,7.85-7.85,.89Zm-.06-7.19l.72,6.36,6.36-.72-.72-6.36-6.36,.72Z" style="fill:#000000; opacity:.2;"></path></g><g><rect x="115.97" y="236.68" width="106.1" height="4.48" transform="translate(-25.81 20.53) rotate(-6.46)" style="fill:#000000; opacity:.2;"></rect><rect x="117.49" y="251.92" width="42.08" height="4.48" transform="translate(-27.72 17.2) rotate(-6.46)" style="fill:#000000; opacity:.2;"></rect><path d="M102.34,251.05l-.89-7.85,7.85-.89,.89,7.85-7.85,.89Zm-.06-7.19l.72,6.36,6.36-.72-.72-6.36-6.36,.72Z" style="fill:#000000; opacity:.2;"></path><path d="M103.59,262.1l-.89-7.85,7.85-.89,.89,7.85-7.85,.89Zm-.06-7.19l.72,6.36,6.36-.72-.72-6.36-6.36,.72Z" style="fill:#000000; opacity:.2;"></path><rect x="118.72" y="262.09" width="66.34" height="4.48" transform="translate(-28.77 18.77) rotate(-6.46)" style="fill:#000000; opacity:.2;"></rect><path d="M104.9,273.63l-.89-7.85,7.85-.89,.89,7.85-7.85,.89Zm-.06-7.19l.72,6.36,6.36-.72-.72-6.36-6.36,.72Z" style="fill:#000000; opacity:.2;"></path></g><g><rect x="122.61" y="295.29" width="106.1" height="4.48" transform="translate(-32.36 21.65) rotate(-6.46)" style="fill:#000000; opacity:.2;"></rect><rect x="124.13" y="310.54" width="42.08" height="4.48" transform="translate(-34.27 18.32) rotate(-6.46)" style="fill:#000000; opacity:.2;"></rect><path d="M108.98,309.66l-.89-7.85,7.85-.89,.89,7.85-7.85,.89Zm-.06-7.19l.72,6.36,6.36-.72-.72-6.36-6.36,.72Z" style="fill:#000000; opacity:.2;"></path><path d="M110.23,320.71l-.89-7.85,7.85-.89,.89,7.85-7.85,.89Zm-.06-7.19l.72,6.36,6.36-.72-.72-6.36-6.36,.72Z" style="fill:#000000; opacity:.2;"></path><rect x="125.36" y="320.7" width="66.34" height="4.48" transform="translate(-35.33 19.89) rotate(-6.46)" style="fill:#000000; opacity:.2;"></rect><path d="M111.54,332.24l-.89-7.85,7.85-.89,.89,7.85-7.85,.89Zm-.06-7.19l.72,6.36,6.36-.72-.72-6.36-6.36,.72Z" style="fill:#000000; opacity:.2;"></path></g></g></g><g id="freepik--Ruler--inject-202"><g><path d="M360.4,173.91l-30.86,97.19,66.33-48.59-35.47-48.59Zm5.53,28.33l12.21,16.24-22.8,16.24,10.59-32.47Z" style="fill:#000000;"></path><path d="M360.4,173.91l-30.86,97.19,66.33-48.59-35.47-48.59Zm5.53,28.33l12.21,16.24-22.8,16.24,10.59-32.47Z" style="fill:#fff; opacity:.4;"></path><polygon points="363.69 187.2 363.55 186.99 367.86 184.31 367.99 184.52 363.69 187.2" style="fill:#263238;"></polygon><polygon points="366.62 191.38 366.49 191.17 370.79 188.48 370.92 188.69 366.62 191.38" style="fill:#263238;"></polygon><polygon points="369.95 195.55 369.82 195.34 374.12 192.66 374.25 192.87 369.95 195.55" style="fill:#263238;"></polygon><polygon points="372.94 199.73 372.8 199.51 377.11 196.83 377.24 197.04 372.94 199.73" style="fill:#263238;"></polygon><polygon points="375.89 203.79 375.75 203.57 380.06 200.89 380.19 201.1 375.89 203.79" style="fill:#263238;"></polygon><polygon points="378.83 207.85 378.7 207.64 383.01 204.95 383.14 205.16 378.83 207.85" style="fill:#263238;"></polygon><polygon points="381.78 211.91 381.65 211.7 385.96 209.01 386.09 209.23 381.78 211.91" style="fill:#263238;"></polygon><polygon points="384.73 215.97 384.6 215.76 388.9 213.07 389.04 213.29 384.73 215.97" style="fill:#263238;"></polygon><polygon points="387.68 220.03 387.55 219.82 391.85 217.13 391.98 217.35 387.68 220.03" style="fill:#263238;"></polygon><polyline points="363.53 228.88 362.48 246.96 372.77 239.42 373.48 221.79 364.64 228.08" style="fill:#fff; opacity:.4;"></polyline></g></g><g id="freepik--Speech_Bubble--inject-202"><g><g><circle cx="310.86" cy="179.55" r="18.91" style="fill:#000000;"></circle><g><path d="M324.63,162.59c-.06,0-.12-.02-.17-.07-4.74-4.47-11.89-6.33-18.21-4.74-.13,.03-.27-.05-.3-.18-.03-.13,.05-.27,.18-.3,6.48-1.64,13.81,.27,18.67,4.86,.1,.09,.1,.25,0,.35-.05,.05-.12,.08-.18,.08Z" style="fill:#000000;"></path><path d="M300.47,159.75c-.08,0-.16-.04-.21-.11-.08-.12-.04-.27,.07-.35,.87-.57,1.87-.97,2.89-1.15,.14-.03,.27,.07,.29,.2,.02,.14-.07,.27-.2,.29-.96,.17-1.89,.54-2.7,1.08-.04,.03-.09,.04-.14,.04Z" style="fill:#000000;"></path></g><path d="M300.93,200.4c0,1.15-.93,2.09-2.09,2.09s-2.09-.93-2.09-2.09,.93-2.09,2.09-2.09,2.09,.93,2.09,2.09Z" style="fill:#000000;"></path></g><g><path d="M310.89,177.01c1.34,0,2.42,1.09,2.42,2.42s-1.09,2.42-2.42,2.42-2.42-1.09-2.42-2.42,1.09-2.42,2.42-2.42Z" style="fill:#fff;"></path><g><path d="M302.58,177.01c1.34,0,2.42,1.09,2.42,2.42s-1.09,2.42-2.42,2.42-2.42-1.09-2.42-2.42,1.09-2.42,2.42-2.42Z" style="fill:#fff;"></path><path d="M318.89,177.01c1.34,0,2.42,1.09,2.42,2.42s-1.09,2.42-2.42,2.42-2.42-1.09-2.42-2.42,1.09-2.42,2.42-2.42Z" style="fill:#fff;"></path></g></g></g></g><g id="freepik--Icon--inject-202"><g><g><path d="M243.81,180.24c0,2.5-2.03,4.53-4.53,4.53s-4.53-2.03-4.53-4.53,2.03-4.53,4.53-4.53,4.53,2.03,4.53,4.53Z" style="fill:#000000;"></path><path d="M231,186c0,1.78-1.44,3.23-3.23,3.23s-3.23-1.44-3.23-3.23,1.44-3.23,3.23-3.23,3.23,1.44,3.23,3.23Z" style="fill:#000000;"></path><path d="M234.36,172.27c0,1.11-.9,2.02-2.02,2.02s-2.02-.9-2.02-2.02,.9-2.02,2.02-2.02,2.02,.9,2.02,2.02Z" style="fill:#000000;"></path><circle cx="249" cy="183.61" r="2.02" style="fill:#000000;"></circle><circle cx="249.36" cy="174.29" r="2.76" style="fill:#000000;"></circle><path d="M245.22,194.51c0,1.78-1.44,3.23-3.23,3.23s-3.23-1.44-3.23-3.23,1.44-3.23,3.23-3.23,3.23,1.44,3.23,3.23Z" style="fill:#000000;"></path><polygon points="241.75 194.13 240.69 182.04 237.91 181.31 228.47 185.42 228.27 184.97 237.87 180.78 241.16 181.65 242.24 194.09 241.75 194.13" style="fill:#000000;"></polygon><polygon points="247.96 183.7 242.83 182.49 236.37 177.99 232.14 172.43 232.54 172.12 236.74 177.65 243.08 182.06 248.08 183.22 247.96 183.7" style="fill:#000000;"></polygon></g><rect x="239.32" y="177.59" width="8.99" height=".5" transform="translate(-57.82 168.54) rotate(-34.34)" style="fill:#000000;"></rect></g></g><g id="freepik--Planet--inject-202"><g><path d="M184.11,238.32c.52-1.59,1.23-3.11,2.12-4.52,.4-.65,.83-1.27,1.31-1.87,1.22-1.57,2.65-2.97,4.26-4.14h0c.32-.23,.61-.44,.94-.65,.67-.45,1.38-.86,2.11-1.21,.46-.24,.93-.46,1.41-.65,.69-.29,1.4-.55,2.12-.76,.96-.28,1.93-.5,2.92-.64h0c1.22-.17,2.46-.25,3.7-.22,3.66,.07,7.24,1.08,10.38,2.95h.03c.91,.53,1.78,1.13,2.59,1.8,.38,.31,.75,.63,1.11,.96,.36,.33,.73,.7,1.08,1.08,.24,.25,.48,.52,.71,.81,.3,.35,.59,.72,.86,1.1,.6,.79,1.14,1.63,1.62,2.49,.13,.24,.26,.49,.37,.73,.4,.79,.74,1.61,1.03,2.45,.12,.34,.23,.68,.33,1.02,.46,1.58,.73,3.21,.81,4.85,.03,.58,.05,1.15,.03,1.73,0,.3,0,.59-.04,.87-.03,.46-.07,.92-.13,1.37-.12,.92-.3,1.84-.54,2.74-.15,.59-.33,1.16-.54,1.73-.23,.68-.5,1.35-.81,2-.56,1.18-1.23,2.3-2,3.35-.44,.63-.93,1.23-1.45,1.8-.6,.66-1.23,1.29-1.91,1.87-.71,.61-1.45,1.17-2.22,1.68-.98,.65-2.01,1.21-3.08,1.69-.8,.36-1.63,.67-2.48,.93h0c-.66,.2-1.34,.37-2.02,.51h-.02c-4.29,.86-8.75,.38-12.76-1.37h0c-.57-.24-1.12-.52-1.66-.81-.38-.21-.76-.43-1.12-.65-.46-.28-.89-.58-1.31-.89-.22-.17-.44-.33-.65-.5-.77-.61-1.5-1.27-2.18-1.98-2.3-2.4-4.01-5.31-5-8.49-.49-1.56-.8-3.17-.91-4.81-.04-.68-.06-1.37-.04-2.07,.01-.65,.06-1.3,.15-1.95,.15-1.47,.45-2.92,.92-4.32Z" style="fill:#000000;"></path><path d="M184.11,238.32c.52-1.59,1.23-3.11,2.12-4.52,.4-.65,.83-1.27,1.31-1.87,1.22-1.57,2.65-2.97,4.26-4.14h0c.32-.23,.61-.44,.94-.65,.67-.45,1.38-.86,2.11-1.21,.46-.24,.93-.46,1.41-.65,.69-.29,1.4-.55,2.12-.76,.96-.28,1.93-.5,2.92-.64h0c1.22-.17,2.46-.25,3.7-.22,3.66,.07,7.24,1.08,10.38,2.95h.03c.91,.53,1.78,1.13,2.59,1.8,.38,.31,.75,.63,1.11,.96,.36,.33,.73,.7,1.08,1.08,.24,.25,.48,.52,.71,.81,.3,.35,.59,.72,.86,1.1,.6,.79,1.14,1.63,1.62,2.49,.13,.24,.26,.49,.37,.73,.4,.79,.74,1.61,1.03,2.45,.12,.34,.23,.68,.33,1.02,.46,1.58,.73,3.21,.81,4.85,.03,.58,.05,1.15,.03,1.73,0,.3,0,.59-.04,.87-.03,.46-.07,.92-.13,1.37-.12,.92-.3,1.84-.54,2.74-.15,.59-.33,1.16-.54,1.73-.23,.68-.5,1.35-.81,2-.56,1.18-1.23,2.3-2,3.35-.44,.63-.93,1.23-1.45,1.8-.6,.66-1.23,1.29-1.91,1.87-.71,.61-1.45,1.17-2.22,1.68-.98,.65-2.01,1.21-3.08,1.69-.8,.36-1.63,.67-2.48,.93h0c-.66,.2-1.34,.37-2.02,.51h-.02c-4.29,.86-8.75,.38-12.76-1.37h0c-.57-.24-1.12-.52-1.66-.81-.38-.21-.76-.43-1.12-.65-.46-.28-.89-.58-1.31-.89-.22-.17-.44-.33-.65-.5-.77-.61-1.5-1.27-2.18-1.98-2.3-2.4-4.01-5.31-5-8.49-.49-1.56-.8-3.17-.91-4.81-.04-.68-.06-1.37-.04-2.07,.01-.65,.06-1.3,.15-1.95,.15-1.47,.45-2.92,.92-4.32Z" style="fill:#fff; isolation:isolate; opacity:.2;"></path><path d="M184.11,238.32c.68,0,1.36,.07,2.02,.21,.95,.2,1.87,.56,2.83,.74,1.21,.22,2.47,.15,3.69,.29,1.22,.14,2.51,.53,3.33,1.46-3,.15-5.98,.49-8.93,1.01-1.29,.23-2.58,.47-3.87,.59,.15-1.47,.46-2.91,.93-4.3Z" style="isolation:isolate; opacity:.2;"></path><path d="M217.91,246.7c1.82-.26,3.66-.4,5.51-.4,.83,.02,1.66,.08,2.49,.19-.03,.46-.07,.92-.13,1.37h-.21c-2.6,.13-5.21-.27-7.66-1.16Z" style="isolation:isolate; opacity:.2;"></path><path d="M207.71,239.91c.34-.09,.69-.11,1.03-.05,1.39,.1,2.78,.08,4.16-.07,1.21-.1,2.4-.23,3.59-.36,.93-.07,1.85-.23,2.75-.48,.49-.18,.99-.33,1.5-.44,.64-.06,1.28-.02,1.9,.12,.81,.14,1.62,.26,2.43,.4,.46,1.58,.73,3.21,.81,4.85-.55-.01-1.1-.08-1.64-.2-.92-.21-1.81-.61-2.76-.71-.84-.09-1.69,.05-2.54,0-.89-.09-1.78-.26-2.64-.5-3.03-.69-6.21-.69-9.12-1.75-.06-.37,.17-.73,.53-.82Z" style="isolation:isolate; opacity:.2;"></path><path d="M191.79,227.76c.32-.23,.61-.44,.94-.65,.67-.45,1.38-.86,2.11-1.21,.46-.24,.93-.46,1.41-.65,.1,0,.19,.05,.29,.07,4.8,1.29,9.69,2.22,14.63,2.77,2.65,.3,5.4,.53,7.93,1.27,.37,.35,.73,.7,1.08,1.08-2.7-.67-5.46-1.13-8.23-1.35-2.36-.15-4.75-.04-7.1-.27-2.13-.2-4.25-.68-6.38-.57-.47,.03-.95,.08-1.42,.11-1.59,.05-3.19-.11-4.74-.48-.18-.03-.35-.07-.52-.12Z" style="isolation:isolate; opacity:.2;"></path><path d="M204.86,231.1c2.1-.43,4.29-.23,6.43-.03,2.46,.28,4.93,.39,7.4,.3,.74-.04,1.46-.11,2.2-.13,.3,.35,.59,.72,.86,1.1,.6,.79,1.14,1.63,1.62,2.49,.13,.24,.26,.48,.37,.73-.22-.03-.44-.05-.63-.07-1.26-.1-2.52-.19-3.77-.38-.95-.14-1.9-.34-2.83-.59-.75-.19-1.48-.44-2.19-.75-.6-.26-1.16-.57-1.76-.81-.7-.28-1.42-.52-2.15-.73-1.81-.55-3.66-1.09-5.55-1.14Z" style="isolation:isolate; opacity:.2;"></path><path d="M216.17,233.07c.96-.22,1.96,0,2.92-.19,.37-.07,.71-.2,1.08-.3,.52-.14,1.05-.23,1.59-.25,.6,.79,1.14,1.63,1.62,2.49-1.21-.1-2.41-.27-3.61-.5-.66-.13-1.32-.27-1.98-.4-.38-.08-1.69-.18-1.9-.45-.14-.15,.1-.34,.29-.4Z" style="isolation:isolate; opacity:.2;"></path><path d="M187.53,231.91c.65-.84,1.35-1.62,2.12-2.35,1.06,.1,2.12,.3,3.14,.59,.83,.24,1.67,.41,2.53,.5,1.12,.06,2.23-.17,3.35-.19,1.12-.02,2.33,.18,3.11,.99-1.45,.09-2.9,.19-4.35,.27-2.52,.15-5.04,.25-7.56,.23-.78,0-1.56-.01-2.34-.04Z" style="isolation:isolate; opacity:.2;"></path><path d="M193.34,227.28c-.15-.05-.37-.11-.61-.16,.67-.45,1.38-.86,2.11-1.21,1.06,.27,2.14,.46,3.23,.57,1.81,.19,3.76,.19,5.25,1.26l-2.35-.25c-1.56-.23-3.14-.28-4.71-.14-.58,.11-1.17,.17-1.75,.17-.4-.03-.79-.11-1.18-.23Z" style="isolation:isolate; opacity:.2;"></path><path d="M198.38,224.49c.96-.28,1.93-.5,2.92-.64h0c1.22-.17,2.46-.25,3.7-.22,3.66,.08,7.24,1.1,10.38,2.97h.03c.91,.53,1.78,1.13,2.59,1.8-1.43,0-3.34-.56-3.96-.66-1.62-.28-3.26-.56-4.89-.86-3.61-.68-7.22-1.49-10.78-2.39Z" style="isolation:isolate; opacity:.2;"></path><path d="M201.31,223.84c1.22-.17,2.46-.25,3.7-.22,3.66,.08,7.23,1.11,10.38,2.98-.28-.08-.57-.11-.86-.11-.28,0-.56,.09-.84,.13-.36,.02-.72,.01-1.08-.02-1.36-.09-2.71-.29-4.04-.6-1.21-.31-2.34-.81-3.5-1.21-1.22-.42-2.47-.74-3.74-.96Z" style="isolation:isolate; opacity:.2;"></path><path d="M191.16,249.98c.15-.25,.49-.32,.78-.4,1.19-.3,2.18-1.09,3.29-1.59,1.78-.81,3.8-.88,5.75-.93,1.09-.05,2.18-.04,3.27,.04,.95,.11,1.9,.29,2.83,.52,2.02,.47,4,1.04,5.98,1.62,3.64,1.06,7.28,2.19,11.01,2.9,.21,.05,.42,.1,.63,.17-.23,.68-.5,1.35-.81,2-1.21,.04-2.53-.2-3.64-.23-3.31-.1-6.58,.74-9.76,1.7-.91,.32-1.86,.54-2.83,.63-1.31,.07-2.59-.3-3.84-.66-1.46-.44-2.91-.87-4.35-1.32-.76-.22-1.51-.5-2.23-.85-.61-.33-1.17-.73-1.76-1.09-.95-.57-1.99-.98-3.07-1.23-.35-.05-.68-.17-.97-.36-.31-.19-.43-.58-.29-.92Z" style="isolation:isolate; opacity:.2;"></path><path d="M210.84,253.9c-1.32,.28-2.67,.37-4.01,.27-1.74,.02-3.47-.15-5.17-.51-1.3-.36-2.56-.82-3.78-1.39-.74-.32-1.52-.68-1.95-1.36,4.02-2.43,9.13-2.05,13.7-.96,2.81,.67,5.55,1.56,8.29,2.46-.25-.08-1.47,.59-1.8,.67-.5,.09-1.01,.09-1.51,0-1.37-.08-2.49,.48-3.78,.82Z" style="isolation:isolate; opacity:.2;"></path><path d="M183.97,251.44c.49,.03,.98,.09,1.46,.19,.84,.17,1.84,.69,1.77,1.54,2.02-.03,4.21-.02,5.88,1.12-.78,.19-1.57,.38-2.35,.58l20.14,3.19c.59,.13,1.19,.17,1.79,.13,1.27-.12,2.36-.9,3.59-1.21,1.52-.36,3.87-.04,5.63,.68-.44,.63-.93,1.23-1.45,1.8-.6,.66-1.23,1.29-1.91,1.87-.71,.61-1.45,1.17-2.22,1.68-4.33-.37-8.57-1.55-12.76-2.73,1.56-.14,3.11-.27,4.67-.4,.86-.08,1.78-.17,2.43-.74-2.53-.45-5.07-.8-7.63-1.03-1.45-.13-2.91-.23-4.36-.32-2.5-.15-5-.31-7.49-.48-.23-.04-.47-.01-.68,.08-.22,.11-.31,.37-.2,.59,.1,.11,.25,.18,.4,.19l2.33,.53c.72,.16,1.62,.63,1.4,1.32-1.33,0-2.66-.04-4-.07-.47,0-.95,0-1.43-.04-2.3-2.4-4.01-5.3-5-8.47Z" style="isolation:isolate; opacity:.2;"></path><path d="M191.15,261.91c1.12-.17,2.25-.21,3.38-.13,2.52,.16,5,.74,7.46,1.24,.66,.16,1.34,.24,2.02,.24,.76-.02,1.51-.25,2.27-.25,1.19,0,2.32,.48,3.43,.89,.67,.24,2.26,.42,3.5,.81-.8,.36-1.63,.67-2.48,.93h0s-.04-.01-.06-.02c-1.53-.56-3.13-.93-4.76-1.08-3.53-.5-7.09-.99-10.63-.73-.35,.02-.69,.07-1.02,.16-.38-.21-.76-.43-1.12-.65-.46-.28-.89-.58-1.31-.89-.24-.17-.46-.33-.67-.51Z" style="isolation:isolate; opacity:.2;"></path><path d="M214.14,260.18c1.89-.98,4.13-.95,6.29-.72-.6,.66-1.23,1.29-1.91,1.87-1.5-.21-2.97-.59-4.38-1.15Z" style="isolation:isolate; opacity:.2;"></path><path d="M195.9,264.76c3.15-.55,6.4-.18,9.49,.57,1.1,.21,2.19,.48,3.27,.81-4.29,.86-8.75,.38-12.76-1.37h0Z" style="isolation:isolate; opacity:.2;"></path><path d="M191.8,262.41c.21-.04,.43-.06,.64-.08,1.48-.13,3.02-.25,4.45,.13-1.02-.25-2.43,.32-3.78,.83-.45-.28-.88-.58-1.31-.89Z" style="isolation:isolate; opacity:.2;"></path><path d="M183.16,242.61c-.08,.65-.13,1.3-.15,1.95,0,.7,0,1.39,.04,2.07,.51,.09,1.02,.1,1.54,.04,2.4-.17,4.8-.34,7.21-.51-.77-.84-2.07-.88-3.21-.76-1.14,.12-2.35,.34-3.38-.19,1.7-1.15,3.72-1.74,5.77-1.67,1.41,.04,2.8,.4,4.19,.26,1.21-.12,2.43-.62,3.64-.48,.59,.09,1.17,.24,1.73,.44,6.14,1.77,13.03-1.62,19,.68-3.69,.42-7.38,.82-11.07,1.21,1.55,1.4,3.87,1.31,5.93,1.57,2.28,.28,4.46,1.07,6.4,2.3,.64,.49,1.37,.86,2.14,1.1,.6,.1,1.21,.1,1.81,0,.16,0,.32-.04,.49-.05,.24-.9,.42-1.81,.54-2.74,.06-.45,.1-.91,.13-1.37,.02-.29,.03-.58,.04-.87,.02-.58,0-1.16-.03-1.73-.08-1.64-.35-3.27-.81-4.85-.1-.34-.21-.68-.33-1.02-1.48,0-2.99,.18-4.45-.09-.61-.11-1.21-.3-1.8-.4-.68-.1-1.36-.15-2.05-.15l-13.79-.31c-1.91-.04-3.81-.08-5.71-.31,4.23-1.05,8.6-1.45,12.95-1.18,.68,.04,1.41,.08,1.99-.27-2.07-1.51-4.93-.93-7.48-1.21-1.15-.12-2.28-.43-3.43-.4-1.06,.02-2.1,.31-3.15,.43-1.14,.11-2.28,.12-3.42,.03-2.73-.12-5.46-.25-8.21-.37-.9,1.43-1.62,2.96-2.15,4.56-.47,1.39-.79,2.83-.95,4.28Zm10.28-7.02c.86-.23,1.75-.36,2.64-.37l.32,.32c-1.43,.6-3.01,.74-4.52,.4,.51-.13,1.03-.24,1.56-.35Z" style="isolation:isolate; opacity:.2;"></path></g></g><g id="freepik--Clock--inject-202"><g><g><circle cx="252.12" cy="87.84" r="30.28" transform="translate(105.53 310.98) rotate(-75.91)" style="fill:#000000;"></circle><circle cx="252.12" cy="87.84" r="30.28" transform="translate(105.53 310.98) rotate(-75.91)" style="opacity:.3;"></circle><circle cx="252.12" cy="84.7" r="30.28" transform="translate(-10.3 41.44) rotate(-9.21)" style="fill:#000000;"></circle><circle cx="252.12" cy="84.7" r="25.16" transform="translate(80.08 287.53) rotate(-68.26)" style="fill:#fff;"></circle><path d="M255.4,106l-.92-5.9c.12-.02,.23-.04,.35-.06l1.06,5.88c-.16,.03-.33,.06-.49,.08Zm-9.8-.76c-.16-.05-.32-.1-.48-.16l1.95-5.64c.11,.04,.22,.08,.33,.11l-1.81,5.69Zm19.32-3.2l-3.56-4.8,.3-.22,3.64,4.73c-.13,.1-.26,.2-.39,.29Zm-28.12-2.17c-.12-.12-.23-.24-.35-.36l4.34-4.1,.25,.26-4.25,4.2Zm34.71-5.76l-5.38-2.6,.15-.33,5.47,2.4-.06,.14c-.04,.1-.11,.24-.18,.39Zm-39.99-3.09c-.05-.16-.1-.32-.14-.48l5.75-1.63c.03,.11,.07,.23,.1,.34l-5.71,1.76Zm36.17-6.87c0-.11,0-.22-.02-.34l5.96-.35c.01,.17,.02,.34,.02,.51l-5.97,.18Zm-30.88-2.32l-5.87-1.12,.09-.47,5.85,1.22-.07,.37Zm28.85-4.84l-.18-.31,5.13-3.06c.08,.14,.17,.28,.25,.42l-5.2,2.95Zm-25.76-1.96l-4.69-3.7c.1-.13,.2-.25,.3-.38l4.62,3.78-.23,.29Zm20.63-3.45c-.1-.06-.2-.12-.29-.18l3.1-5.11c.14,.09,.29,.18,.43,.27l-3.23,5.02Zm-14.74-1.12l-2.43-5.46c.16-.07,.31-.14,.47-.2l2.27,5.52c-.11,.04-.21,.09-.31,.13Zm7.69-1.29l-.36-.03,.38-5.96c.17,.01,.33,.02,.5,.04l-.52,5.95Z"></path></g><g><path d="M252.56,85.88s-.09,0-.14-.02l-11.44-3.23c-.27-.07-.42-.35-.35-.62,.07-.27,.35-.42,.62-.35l10.84,3.06,.67-12.91c.01-.28,.22-.49,.52-.47,.28,.01,.49,.25,.47,.53l-.7,13.54c0,.15-.08,.29-.21,.38-.09,.06-.19,.09-.29,.09Z"></path><path d="M254.15,84.79c.03,1.04-.79,1.9-1.83,1.93s-1.9-.79-1.93-1.83c-.03-1.04,.79-1.9,1.83-1.93s1.9,.79,1.93,1.83Z"></path></g></g></g><g id="freepik--Character--inject-202"><g><g><g><path d="M265.31,323.93s-6.58-43.52-8-54.11c-1.42-10.59,0-16,4-19.47s22.63-8.08,35.1-8.51c9.75-.34,14.81,1.57,23.11,23.49l-13.78,5.99s11.02,36.14,9.69,50.17l-50.12,2.44Z" style="fill:#000000;"></path><polygon points="303.18 272.45 303.18 272.45 300.93 273.36 297.44 264.35 301.14 277.07 304.22 275.71 303.18 272.45" style="opacity:.3;"></polygon></g><g><path d="M261.3,250.32s-7.82,3.4-10.85,11.09c-1.49,3.78-4.52,10.56-7.48,17.21l23.07,3.44-4.74-31.73Z" style="fill:#000000;"></path><path d="M244.9,278.95s-9.3,16.33-6.54,23.5h16.73l.66-7.19-2.98-1.74,6.09-12.84-13.95-1.74Z" style="fill:#e4897b;"></path><path d="M252.77,293.53s-4.87-1.23-8.44,.4c0,0,2.97-4.18,8.96-1.49l-.52,1.09Z" style="isolation:isolate; opacity:.3;"></path><path d="M255.61,268.24s-.97,5.21,.18,8.71c1.15,3.5,3.07,3.74,3.07,3.74l-3.24-12.45Z" style="opacity:.3;"></path></g><path d="M305.43,213.24c-1.22-.54-2.57-.75-3.77-1.32-2.58-1.24-4.09-3.96-5.16-6.61-1.07-2.66-1.93-5.5-3.84-7.63-1.81-2.02-4.51-3.22-7.23-3.21-2.72,.01-5.4,1.23-7.2,3.27l6.07,21.87c1.44,2.49,3.7,4.51,6.34,5.65,1.11,.48,2.37,.81,3.51,.43,1.15-.38,2.04-1.69,1.59-2.81,.95,1.48,3.08,2.05,4.64,1.25,1.56-.81,2.33-2.88,1.68-4.51,1.26-.03,2.56-.06,3.71-.58,1.15-.51,2.13-1.63,2.08-2.89-.06-1.33-1.21-2.38-2.43-2.92Z" style="fill:#263238;"></path><g><g><path d="M257.75,203.31c-5.05,4.94-3.16,10.34-2.33,14.34,1.74,5.29,2.43,9.07,4.88,14.06l8.41-34.43c-3.23,1.3-5.47,1.05-10.97,6.03Z" style="fill:#263238;"></path><path d="M265.02,198.99c5.14-3.68,11.24-1.63,14.87-.08,4.09,2.33,6.98,6.29,7.96,10.9,.81,4.32,1.8,9.56-.4,12.3-1.22,1.58-3.05,2.57-5.04,2.74l-25.08-15.7c1.66-3.98,4.31-7.48,7.69-10.15Z" style="fill:#263238;"></path><g><path d="M276.04,253.76c3.45-.24,3.14-.35,5.17-1.66,9.85-6.29,5.52-9.52,5.52-9.52-3.02-2.44-2.31-5.7-2.4-11.16-.01-.16,.32-2.91,.28-3.07-.14-.71-.91,2.46-1.44,1.97-1.39-1.39-3.64-1.39-5.03,0h0l-5.53,2.77h0c0,.08,0,.17,0,.26,.53,2.9,1.03,5.13,1.35,6.91,0,.22,.08,.44,.11,.65h0c0,.22,.06,.45,.1,.66,.32,2.45-2.7,4.77-2.64,8.14-.9,.77,1.09,4.06,4.53,4.06Z" style="fill:#e4897b;"></path><path d="M272.61,233.06h0c.01,.09,.01,.18,0,.27,.53,2.9,1.03,5.13,1.35,6.91,.05,.21,.09,.43,.11,.65h0c.03,.23,.04,.46,.04,.69h0c2.93-1.42,5.46-3.2,7.5-5.53,1.54-1.75,2.45-3.97,2.67-6.3h0c-.14-.7-.65,1.09-1.15,.58-1.38-1.4-3.63-1.43-5.04-.06l-5.48,2.8Z" style="isolation:isolate; opacity:.2;"></path><path d="M284.57,211.83c1.65,10.03,2.57,14.23-1.15,20.54-5.62,9.49-17.99,9.57-22.59,.28-4.07-8.37-6.13-23.34,2.42-29.69,8.56-6.35,19.66-1.18,21.32,8.87Z" style="fill:#e4897b;"></path><path d="M290.92,219.4c-.61,2.35-2.15,4.14-3.76,5.06-2.43,1.38-4.94-2.45-4.78-5.31,.15-2.58,2.29-4.85,4.97-5.04,2.64-.19,4.26,2.61,3.57,5.29Z" style="fill:#e4897b;"></path><path d="M285.26,220.65c-.12,0-.22-.08-.25-.2-.21-1.02,0-2.11,.57-2.98,.57-.87,1.48-1.49,2.5-1.71,.14-.03,.27,.06,.3,.19,.03,.14-.06,.27-.19,.3-.89,.19-1.69,.73-2.19,1.49-.5,.76-.68,1.71-.5,2.6,.03,.14-.06,.27-.19,.3-.02,0-.03,0-.05,0Z" style="opacity:.2;"></path><g><g><path d="M272.68,218.42c.24,1.06-.09,2.07-.73,2.26-.65,.19-1.36-.51-1.6-1.56-.24-1.06,.09-2.07,.73-2.26,.65-.19,1.36,.51,1.6,1.56Z" style="fill:#263238;"></path><path d="M262.94,221.08c.23,1.03-.1,2.01-.75,2.21-.64,.19-1.35-.48-1.58-1.51-.23-1.03,.1-2.01,.75-2.21,.64-.19,1.35,.48,1.58,1.51Z" style="fill:#263238;"></path><path d="M273.73,214.21c-.12,.05-.26,.05-.38-.02-1.91-.99-3.48-.02-3.5,0-.23,.14-.53,.07-.66-.17-.13-.24-.04-.56,.19-.71,.08-.05,2.06-1.27,4.43-.04,.24,.12,.33,.43,.2,.69-.06,.12-.16,.21-.28,.26Z" style="fill:#263238;"></path><path d="M258.3,217.04c-.11,0-.21-.06-.29-.15-.15-.2-.12-.51,.07-.7,1.9-1.89,3.84-1.39,3.93-1.37,.23,.06,.36,.33,.28,.6-.08,.27-.32,.43-.56,.37-.08-.02-1.59-.38-3.1,1.12-.1,.1-.22,.14-.33,.14Z" style="fill:#263238;"></path><path d="M265.46,219.87s-.52,4.12-1.62,6.91c-.19,.49,.16,1.02,.68,1.07,1.34,.11,2.66-.69,2.66-.69l-1.71-7.28Z" style="fill:#a24e3f;"></path></g><path d="M271.46,216.79l-2.41,.09s1.71,1.35,2.41-.09Z" style="fill:#263238;"></path><path d="M261.6,219.53l-2.41,.09s1.71,1.35,2.41-.09Z" style="fill:#263238;"></path></g></g><path d="M281.89,214.76s-6.93-5.45-8.16-10.99c0,0-21.71,1.24-16.52,18.51,0,0-6.84-16.35,9.38-21.97,16.22-5.62,23.75,15.52,17.62,24.53-.04-.07,1.98-6.66-2.32-10.08Z" style="fill:#263238;"></path></g><path d="M286.94,213.81c-1.54-6.68-5.24-11.31-10.33-12.48-6.89-1.58-15.02,.24-15.02,.24-.08,2-3.98,8.07-4.09,10.1,1.87-.43,7.36-4.53,9.04-5.42l-1.13,1.48s2.99-.52,4.44-2.43c3.28,8.17,14.26,8.5,17.09,8.5Z" style="fill:#263238;"></path><path d="M274.98,197.38s4.88,.41,7.61,3.63c0-.03-2.63-4.41-7.61-3.63Z" style="fill:#000000;"></path><path d="M270.8,230c-.11,0-.21-.05-.29-.13-.13-.16-.11-.4,.05-.53l.4-.33c1.03-.85,2.1-1.73,2.7-2.92,.09-.18,.32-.26,.5-.16,.18,.09,.26,.32,.16,.5-.68,1.32-1.86,2.29-2.89,3.15l-.39,.33c-.07,.06-.16,.09-.24,.09Z" style="fill:#263238;"></path></g><path d="M271.58,246.04s-5.72,9.31,4.6,9,13.41-10.13,13.87-12.85l-3.22-1.11s-1.86,8-8.84,9.59-5.34-5.57-5.34-5.57l-1.07,.94Z" style="fill:#263238;"></path><g><path d="M316.65,266.53s5.79,16.59,6.42,21.17c.25,1.78,2.06,6.24-3.48,10.17-4.86,3.44-39.84,4.58-39.84,4.58l-1.02-8.95,28.75-7.54-4.3-13.52,13.46-5.92Z" style="fill:#e4897b;"></path><g><path d="M280.59,293.15s-5.28-4.15-5.5-4.22-6.64-.38-7.54,.38-1.51,4.22-1.51,4.22c0,0-2.41,.9-2.87,2.11s.45,2.26,.45,2.26c0,0-.53,1.28,.3,2.34l.83,1.06s-.83,.98-.08,1.73,17.67-.57,17.67-.57l-1.77-9.31Z" style="fill:#e4897b;"></path><path d="M266.04,293.53l7.35-1.23s-3.31-.51-5.07,0c-1.76,.51-2.28,1.23-2.28,1.23Z" style="isolation:isolate; opacity:.3;"></path><path d="M274.65,282.71l-3.86,10.09c-.79-.16-1.72,.38-2.22,.31l4.26-11.16c.21-.51,.8-.75,1.31-.54,.51,.21,.75,.8,.54,1.31h-.03Z" style="fill:#263238;"></path></g><path d="M307.48,285.98s6.3,.29,7.22,3.97c0,0-.02-5.89-7.69-5.44l.47,1.48Z" style="isolation:isolate; opacity:.3;"></path></g><g><path d="M255.75,295.27s11.86-.86,14.65,1.42,5.36,6.16,5.36,6.16l-21.26-.39,1.25-7.19Z" style="fill:#e4897b;"></path><path d="M262.42,295.13s-.8,3.31,.62,5.66c.46,.76-.54,1.52-.21,1.82l3.2,.06-2.55-7.54h-1.06Z" style="isolation:isolate; opacity:.3;"></path></g></g><g><polygon points="212.43 436.57 213.77 428.71 229.71 429.86 225.35 441.27 215.89 441.59 212.43 436.57" style="fill:#e4897b;"></polygon><g><path d="M210.82,435.25h4.19c.95,0,1.82,.48,2.38,1.24,2.42,3.3,4.23,2.05,6.86-1.05,1.67-.19,2.12,1.72,2.26,2.24l3.13,11.39c.27,.95-.28,1.94-1.23,2.22-.17,.05-.34,.07-.52,.07h-33.19c-5.28,0-6.37-5.32-4.2-5.81,9.78-2.16,16.7-5.04,19.73-7.88,.56-.5-.02-.87,.59-2.41Z" style="fill:#000000;"></path><path d="M211.65,441.52c-.08,0-.16-.04-.21-.12-.74-1.17-2-1.99-3.38-2.18-.14-.02-.23-.15-.21-.28,.02-.14,.14-.22,.28-.21,1.52,.21,2.92,1.11,3.74,2.41,.07,.12,.04,.27-.08,.34-.04,.03-.09,.04-.13,.04Z" style="fill:#fff;"></path><path d="M208.87,442.98c-.08,0-.16-.04-.21-.12-.74-1.17-2-1.99-3.38-2.18-.14-.02-.23-.15-.21-.28,.02-.14,.15-.23,.28-.21,1.52,.21,2.92,1.11,3.74,2.41,.07,.12,.04,.27-.08,.34-.04,.03-.09,.04-.13,.04Z" style="fill:#fff;"></path><path d="M205.63,444.63c-.08,0-.16-.04-.21-.12-.74-1.17-2-1.99-3.38-2.18-.14-.02-.23-.15-.21-.28,.02-.14,.15-.23,.28-.21,1.52,.21,2.92,1.11,3.74,2.41,.07,.12,.04,.27-.08,.34-.04,.03-.09,.04-.13,.04Z" style="fill:#fff;"></path></g><polygon points="216.61 412.19 213.16 405 226.84 396.72 229.87 408.56 222.34 414.28 216.61 412.19" style="fill:#e4897b;"></polygon><g><path d="M214.54,412.04l3.42-2.42c.77-.55,1.77-.66,2.67-.36,3.88,1.3,4.64-.77,4.99-4.82,1.25-1.12,2.73,.18,3.13,.52l9.14,7.49c.77,.62,.9,1.75,.28,2.52-.11,.14-.24,.26-.38,.36-4.15,2.94-6.12,4.33-11.28,7.99l-15.8,11.19c-4.31,3.05-8.28-.66-6.79-2.32,6.73-7.42,10.72-13.77,11.54-17.83,.17-.73-.52-.7-.91-2.31Z" style="fill:#000000;"></path><path d="M214.46,416.91c-.09,0-.18-.05-.22-.13-.06-.12-.02-.27,.11-.34,1.36-.71,3.02-.78,4.44-.19,.13,.05,.19,.2,.14,.33-.05,.13-.2,.19-.33,.13-1.28-.53-2.78-.47-4.02,.18-.04,.02-.08,.03-.12,.03Z" style="fill:#fff;"></path><path d="M213.04,419.71c-.09,0-.18-.05-.22-.13-.06-.12-.02-.27,.11-.34,1.36-.71,3.02-.78,4.44-.2,.13,.05,.19,.2,.14,.33-.05,.13-.2,.19-.33,.14-1.28-.53-2.79-.47-4.02,.18-.04,.02-.08,.03-.12,.03Z" style="fill:#fff;"></path><path d="M211.35,422.93c-.09,0-.18-.05-.22-.13-.06-.12-.02-.27,.11-.34,1.36-.71,3.02-.78,4.44-.19,.13,.05,.19,.2,.14,.33s-.2,.19-.33,.13c-1.28-.53-2.78-.47-4.02,.18-.04,.02-.08,.03-.12,.03Z" style="fill:#fff;"></path></g><path d="M265.67,320.62s-50.55-6.9-65.82,7.46c0,0-11.83,7.5-7.28,32.77,2.98,15.6,11.81,35.72,21.28,48.47l13.27-11.28s-7.35-31.14-7.81-47.09l18.36-1.09,26.33-18,2.76-7.46-1.09-3.78Z" style="fill:#263238;"></path><path d="M221.26,350.84s-1.34-4.76-.07-10.56c1.28-5.8,4.62-11.48,22.71-13.79,18.08-2.32-20.71,24.35-20.71,24.35h-1.93Z" style="opacity:.3;"></path><path d="M315.36,320.07s1.4,14.4-3.17,24.94-20.72,14.4-31.61,13.7c-10.89-.7-24.94-1.6-30.91,.08,0,0-7.73,43.83-21.08,75.79l-16.16-1.4s8.78-61.86,10.19-76.23c1.41-14.37,.7-16.51,9.48-23.53,8.78-7.02,53.75-16.51,83.26-13.35Z" style="fill:#263238;"></path><path d="M221.26,368.51l-5.23,38.96s-.15-20.58,.22-26.82c.45-7.52,5.01-12.14,5.01-12.14Z" style="opacity:.3;"></path></g><g><path d="M237.03,449.37c-.1,0-.21-.01-.31-.03-.81-.17-1.33-.97-1.16-1.78l17.7-83.73c.15-.69,.76-1.19,1.47-1.19h60.02c.74,0,1.37,.54,1.48,1.26l13.29,83.73c.13,.82-.43,1.59-1.25,1.72-.83,.13-1.59-.43-1.72-1.25l-13.08-82.46h-57.52l-17.45,82.54c-.15,.71-.77,1.19-1.47,1.19Z" style="fill:#263238;"></path><path d="M237.03,449.37c-.1,0-.21-.01-.31-.03-.81-.17-1.33-.97-1.16-1.78l17.7-83.73c.15-.69,.76-1.19,1.47-1.19h60.02c.74,0,1.37,.54,1.48,1.26l13.29,83.73c.13,.82-.43,1.59-1.25,1.72-.83,.13-1.59-.43-1.72-1.25l-13.08-82.46h-57.52l-17.45,82.54c-.15,.71-.77,1.19-1.47,1.19Z" style="fill:#fff; opacity:.5;"></path><path d="M316.25,364.14h-62.94c-1.74,0-3.15-1.41-3.15-3.15h0c0-1.74,1.41-3.15,3.15-3.15h62.94c1.74,0,3.15,1.41,3.15,3.15h0c0,1.74-1.41,3.15-3.15,3.15Z" style="fill:#000000;"></path></g><g><rect x="296.04" y="309.63" width="43.1" height="18.88" style="fill:#263238;"></rect><rect x="296.04" y="309.63" width="43.1" height="18.88" style="fill:#fff; opacity:.4;"></rect><g><rect x="157.85" y="307.64" width="135.23" height="20.87" style="fill:#263238;"></rect><rect x="157.85" y="307.64" width="135.23" height="20.87" style="fill:#fff; opacity:.4;"></rect><rect x="293.08" y="306.04" width="5.01" height="141.83" style="fill:#263238;"></rect><rect x="293.08" y="306.04" width="5.01" height="141.83" style="fill:#fff; opacity:.5;"></rect><rect x="337.15" y="306.04" width="5.01" height="141.83" style="fill:#263238;"></rect><rect x="337.15" y="306.04" width="5.01" height="141.83" style="fill:#fff; opacity:.5;"></rect><rect x="155.35" y="306.04" width="5.01" height="141.83" style="fill:#263238;"></rect><rect x="155.35" y="306.04" width="5.01" height="141.83" style="fill:#fff; opacity:.5;"></rect><g><rect x="150.43" y="302.45" width="193.34" height="7.17" style="fill:#263238;"></rect><rect x="150.43" y="302.45" width="193.34" height="7.17" style="fill:#fff; opacity:.5;"></rect></g></g></g><g><rect x="226.35" y="300.77" width="55.55" height="1.9" style="fill:#000000;"></rect><rect x="226.35" y="300.77" width="55.55" height="1.9" style="fill:#fff; opacity:.5;"></rect></g></g></g></svg>
