<svg xmlns="http://www.w3.org/2000/svg" viewBox="0 0 500 500"><g id="freepik--Clouds--inject-210"><path d="M436.27,76.36S424.76,58.71,410.18,51,381,49.5,375.65,57.18s-1.54,16.88-8.44,18.41-11.51-5.37-18.42,0-6.9,13-10.74,13.81-9.21-6.9-14.58-.76-9.21,10.74-9.21,10.74-3.83-4.6-9.21.77l-5.37,5.37H471.56s1.54-14.58-6.9-22.25-13.81,1.53-19.19.76S436.27,76.36,436.27,76.36Z" style="fill:none;stroke:#263238;stroke-linecap:round;stroke-linejoin:round"></path><path d="M451.61,105.52s-8.44-26.09-30.69-30.69-22.25,16.11-26.09,20-9.21-1.54-15.35.76-10,9.21-10,9.21" style="fill:none;stroke:#263238;stroke-linecap:round;stroke-linejoin:round"></path><path d="M113.75,102.21s-7.1-10.89-16.09-15.62-18-1-21.29,3.79-1,10.41-5.21,11.35-7.1-3.31-11.36,0-4.26,8-6.62,8.52-5.68-4.26-9-.47-5.68,6.62-5.68,6.62-2.37-2.84-5.68.48l-3.31,3.31h106s.95-9-4.26-13.72-8.52.94-11.83.47S113.75,102.21,113.75,102.21Z" style="fill:none;stroke:#263238;stroke-linecap:round;stroke-linejoin:round"></path><path d="M123.22,120.19S118,104.1,104.29,101.26s-13.73,9.94-16.09,12.3-5.68-.94-9.47.48-6.15,5.68-6.15,5.68" style="fill:none;stroke:#263238;stroke-linecap:round;stroke-linejoin:round"></path><path d="M234.38,350s-7.09-10.88-16.09-15.62-18-.94-21.29,3.79-.95,10.41-5.21,11.36-7.1-3.32-11.35,0-4.26,8-6.63,8.52-5.68-4.26-9-.48-5.68,6.63-5.68,6.63-2.37-2.84-5.68.47L150.15,368h106s1-9-4.26-13.72-8.51.95-11.83.47S234.38,350,234.38,350Z" style="fill:none;stroke:#263238;stroke-linecap:round;stroke-linejoin:round"></path><path d="M243.85,368s-5.21-16.09-18.93-18.93S211.2,359,208.83,361.35s-5.68-1-9.47.47-6.15,5.68-6.15,5.68" style="fill:none;stroke:#263238;stroke-linecap:round;stroke-linejoin:round"></path></g><g id="freepik--Floor--inject-210"><line x1="14.51" y1="486.69" x2="484.7" y2="486.69" style="fill:none;stroke:#263238;stroke-linecap:round;stroke-linejoin:round"></line></g><g id="freepik--Stairs--inject-210"><rect x="102.6" y="149.12" width="60.45" height="337.57" style="fill:#263238;stroke:#263238;stroke-linecap:round;stroke-linejoin:round"></rect><rect x="105.59" y="149.12" width="60.45" height="337.57" style="fill:#5D5D5D;stroke:#263238;stroke-linecap:round;stroke-linejoin:round"></rect><rect x="87.77" y="147.11" width="215.66" height="20.32" style="fill:#263238;stroke:#263238;stroke-linecap:round;stroke-linejoin:round"></rect><rect x="166.12" y="147.11" width="137.32" height="20.32" style="fill:#fff;stroke:#263238;stroke-linecap:round;stroke-linejoin:round"></rect><rect x="206.71" y="146.92" width="60.45" height="79.26" style="fill:#263238;stroke:#263238;stroke-linecap:round;stroke-linejoin:round"></rect><rect x="209.7" y="146.92" width="60.45" height="79.26" style="fill:#5D5D5D;stroke:#263238;stroke-linecap:round;stroke-linejoin:round"></rect><rect x="212.7" y="384.89" width="215.66" height="20.32" style="fill:#263238;stroke:#263238;stroke-linecap:round;stroke-linejoin:round"></rect><rect x="291.05" y="384.89" width="137.32" height="20.32" style="fill:#fff;stroke:#263238;stroke-linecap:round;stroke-linejoin:round"></rect><rect x="329.63" y="384.89" width="60.45" height="79.26" style="fill:#263238;stroke:#263238;stroke-linecap:round;stroke-linejoin:round"></rect><rect x="332.62" y="384.89" width="60.45" height="79.26" style="fill:#5D5D5D;stroke:#263238;stroke-linecap:round;stroke-linejoin:round"></rect><rect x="129.41" y="226.37" width="215.66" height="20.32" style="fill:#263238;stroke:#263238;stroke-linecap:round;stroke-linejoin:round"></rect><rect x="207.76" y="226.37" width="137.32" height="20.32" style="fill:#fff;stroke:#263238;stroke-linecap:round;stroke-linejoin:round"></rect><rect x="247.68" y="226.37" width="60.45" height="79.26" style="fill:#263238;stroke:#263238;stroke-linecap:round;stroke-linejoin:round"></rect><rect x="250.68" y="226.37" width="60.45" height="79.26" style="fill:#5D5D5D;stroke:#263238;stroke-linecap:round;stroke-linejoin:round"></rect><rect x="171.06" y="305.63" width="215.66" height="20.32" style="fill:#263238;stroke:#263238;stroke-linecap:round;stroke-linejoin:round"></rect><rect x="249.41" y="305.63" width="137.32" height="20.32" style="fill:#fff;stroke:#263238;stroke-linecap:round;stroke-linejoin:round"></rect><rect x="288.66" y="305.63" width="60.45" height="79.26" style="fill:#263238;stroke:#263238;stroke-linecap:round;stroke-linejoin:round"></rect><rect x="291.65" y="305.63" width="60.45" height="79.26" style="fill:#5D5D5D;stroke:#263238;stroke-linecap:round;stroke-linejoin:round"></rect><rect x="236.62" y="352.74" width="2.92" height="264.98" transform="translate(-247.15 723.31) rotate(-90)" style="fill:#263238;stroke:#263238;stroke-linecap:round;stroke-linejoin:round"></rect><rect x="254.35" y="464.15" width="215.66" height="20.32" style="fill:#263238;stroke:#263238;stroke-linecap:round;stroke-linejoin:round"></rect><rect x="332.7" y="464.15" width="137.32" height="20.32" style="fill:#fff;stroke:#263238;stroke-linecap:round;stroke-linejoin:round"></rect><rect x="370.6" y="464.15" width="60.45" height="22.54" style="fill:#263238;stroke:#263238;stroke-linecap:round;stroke-linejoin:round"></rect><rect x="373.6" y="464.15" width="60.45" height="22.54" style="fill:#5D5D5D;stroke:#263238;stroke-linecap:round;stroke-linejoin:round"></rect></g><g id="freepik--Gears--inject-210"><path d="M396.89,268.86l4.22.58,1-4.45-3.92-1.26v0a10.76,10.76,0,0,0-.85-4.18l2.95-2.81-2.85-3.57-3.28,2.18a10.77,10.77,0,0,0-4-2l-.35-3.92H385.3l-.34,3.86a10.74,10.74,0,0,0-4,1.94l-3.3-2.19-2.84,3.57,2.88,2.75a10.68,10.68,0,0,0-.93,4.24l-3.92,1.26,1,4.45,4.13-.57a11.09,11.09,0,0,0,2.61,3.24l-1.51,4,4.11,2,2.19-3.69a10.68,10.68,0,0,0,4.06,0l2.23,3.74,4.11-2-1.51-4A10.74,10.74,0,0,0,396.89,268.86Zm-15.24-5.17a5.82,5.82,0,1,1,5.82,5.82A5.83,5.83,0,0,1,381.65,263.69Z" style="fill:#263238"></path><path d="M424.06,262.23l4.22.58,1-4.45-3.92-1.26v0a10.81,10.81,0,0,0-.84-4.19l2.94-2.81-2.84-3.56-3.28,2.17a10.89,10.89,0,0,0-4-2l-.34-3.92h-4.56l-.34,3.87a10.7,10.7,0,0,0-4.05,1.93l-3.29-2.19-2.85,3.57,2.89,2.75a10.72,10.72,0,0,0-.93,4.24L400,258.19l1,4.45,4.14-.57a10.62,10.62,0,0,0,2.61,3.23l-1.52,4,4.11,2,2.2-3.7a10.68,10.68,0,0,0,4.06,0l2.23,3.75,4.11-2-1.51-4A10.78,10.78,0,0,0,424.06,262.23Zm-15.24-5.16a5.82,5.82,0,1,1,5.82,5.81A5.81,5.81,0,0,1,408.82,257.07Z" style="fill:#263238"></path></g><g id="freepik--Tab--inject-210"><rect x="355.03" y="166.37" width="61.39" height="69.03" style="fill:#fff;stroke:#263238;stroke-linecap:round;stroke-linejoin:round"></rect><rect x="355.03" y="166.37" width="61.39" height="4.96" style="fill:#5D5D5D;stroke:#263238;stroke-linecap:round;stroke-linejoin:round"></rect><line x1="362.52" y1="176.01" x2="376.43" y2="176.01" style="fill:#fff;stroke:#263238;stroke-linecap:round;stroke-linejoin:round"></line><line x1="366.34" y1="179.82" x2="375.31" y2="179.82" style="fill:#fff;stroke:#263238;stroke-linecap:round;stroke-linejoin:round"></line><line x1="362.52" y1="215.23" x2="376.43" y2="215.23" style="fill:#fff;stroke:#263238;stroke-linecap:round;stroke-linejoin:round"></line><line x1="366.34" y1="219.04" x2="375.31" y2="219.04" style="fill:#fff;stroke:#263238;stroke-linecap:round;stroke-linejoin:round"></line><line x1="370.38" y1="222.63" x2="386.97" y2="222.63" style="fill:#fff;stroke:#263238;stroke-linecap:round;stroke-linejoin:round"></line><line x1="370.38" y1="226.22" x2="386.97" y2="226.22" style="fill:#fff;stroke:#263238;stroke-linecap:round;stroke-linejoin:round"></line><line x1="370.38" y1="229.8" x2="386.97" y2="229.8" style="fill:#fff;stroke:#263238;stroke-linecap:round;stroke-linejoin:round"></line><line x1="405.12" y1="183.85" x2="410.73" y2="183.85" style="fill:#fff;stroke:#263238;stroke-linecap:round;stroke-linejoin:round"></line><line x1="392.79" y1="183.85" x2="401.54" y2="183.85" style="fill:#fff;stroke:#263238;stroke-linecap:round;stroke-linejoin:round"></line><line x1="378.22" y1="183.85" x2="389.21" y2="183.85" style="fill:#fff;stroke:#263238;stroke-linecap:round;stroke-linejoin:round"></line><line x1="373.74" y1="183.85" x2="376.43" y2="183.85" style="fill:#fff;stroke:#263238;stroke-linecap:round;stroke-linejoin:round"></line><line x1="379.35" y1="187.21" x2="373.74" y2="187.21" style="fill:#fff;stroke:#263238;stroke-linecap:round;stroke-linejoin:round"></line><line x1="391.67" y1="187.21" x2="382.93" y2="187.21" style="fill:#fff;stroke:#263238;stroke-linecap:round;stroke-linejoin:round"></line><line x1="406.24" y1="187.21" x2="395.26" y2="187.21" style="fill:#fff;stroke:#263238;stroke-linecap:round;stroke-linejoin:round"></line><line x1="410.73" y1="187.21" x2="408.04" y2="187.21" style="fill:#fff;stroke:#263238;stroke-linecap:round;stroke-linejoin:round"></line><line x1="405.12" y1="190.8" x2="410.73" y2="190.8" style="fill:#fff;stroke:#263238;stroke-linecap:round;stroke-linejoin:round"></line><line x1="392.79" y1="190.8" x2="401.54" y2="190.8" style="fill:#fff;stroke:#263238;stroke-linecap:round;stroke-linejoin:round"></line><line x1="378.22" y1="190.8" x2="389.21" y2="190.8" style="fill:#fff;stroke:#263238;stroke-linecap:round;stroke-linejoin:round"></line><line x1="373.74" y1="190.8" x2="376.43" y2="190.8" style="fill:#fff;stroke:#263238;stroke-linecap:round;stroke-linejoin:round"></line><line x1="379.35" y1="194.16" x2="373.74" y2="194.16" style="fill:#fff;stroke:#263238;stroke-linecap:round;stroke-linejoin:round"></line><line x1="391.67" y1="194.16" x2="382.93" y2="194.16" style="fill:#fff;stroke:#263238;stroke-linecap:round;stroke-linejoin:round"></line><line x1="406.24" y1="194.16" x2="395.26" y2="194.16" style="fill:#fff;stroke:#263238;stroke-linecap:round;stroke-linejoin:round"></line><line x1="410.73" y1="194.16" x2="408.04" y2="194.16" style="fill:#fff;stroke:#263238;stroke-linecap:round;stroke-linejoin:round"></line><line x1="405.12" y1="197.3" x2="410.73" y2="197.3" style="fill:#fff;stroke:#263238;stroke-linecap:round;stroke-linejoin:round"></line><line x1="392.79" y1="197.3" x2="401.54" y2="197.3" style="fill:#fff;stroke:#263238;stroke-linecap:round;stroke-linejoin:round"></line><line x1="378.22" y1="197.3" x2="389.21" y2="197.3" style="fill:#fff;stroke:#263238;stroke-linecap:round;stroke-linejoin:round"></line><line x1="373.74" y1="197.3" x2="376.43" y2="197.3" style="fill:#fff;stroke:#263238;stroke-linecap:round;stroke-linejoin:round"></line><line x1="379.35" y1="200.66" x2="373.74" y2="200.66" style="fill:#fff;stroke:#263238;stroke-linecap:round;stroke-linejoin:round"></line><line x1="391.67" y1="200.66" x2="382.93" y2="200.66" style="fill:#fff;stroke:#263238;stroke-linecap:round;stroke-linejoin:round"></line><line x1="406.24" y1="200.66" x2="395.26" y2="200.66" style="fill:#fff;stroke:#263238;stroke-linecap:round;stroke-linejoin:round"></line><line x1="410.73" y1="200.66" x2="408.04" y2="200.66" style="fill:#fff;stroke:#263238;stroke-linecap:round;stroke-linejoin:round"></line><line x1="405.12" y1="204.25" x2="410.73" y2="204.25" style="fill:#fff;stroke:#263238;stroke-linecap:round;stroke-linejoin:round"></line><line x1="392.79" y1="204.25" x2="401.54" y2="204.25" style="fill:#fff;stroke:#263238;stroke-linecap:round;stroke-linejoin:round"></line><line x1="378.22" y1="204.25" x2="389.21" y2="204.25" style="fill:#fff;stroke:#263238;stroke-linecap:round;stroke-linejoin:round"></line><line x1="373.74" y1="204.25" x2="376.43" y2="204.25" style="fill:#fff;stroke:#263238;stroke-linecap:round;stroke-linejoin:round"></line><line x1="379.35" y1="207.61" x2="373.74" y2="207.61" style="fill:#fff;stroke:#263238;stroke-linecap:round;stroke-linejoin:round"></line><line x1="391.67" y1="207.61" x2="382.93" y2="207.61" style="fill:#fff;stroke:#263238;stroke-linecap:round;stroke-linejoin:round"></line><line x1="406.24" y1="207.61" x2="395.26" y2="207.61" style="fill:#fff;stroke:#263238;stroke-linecap:round;stroke-linejoin:round"></line><line x1="410.73" y1="207.61" x2="408.04" y2="207.61" style="fill:#fff;stroke:#263238;stroke-linecap:round;stroke-linejoin:round"></line></g><g id="freepik--drawign-table--inject-210"><polyline points="316.62 144.99 316.62 225.03 241.59 225.03" style="fill:none;stroke:#263238;stroke-linecap:round;stroke-linejoin:round;stroke-width:2px"></polyline><line x1="264.09" y1="160.03" x2="264.09" y2="225.03" style="fill:none;stroke:#263238;stroke-linecap:round;stroke-linejoin:round;stroke-width:2px"></line><polyline points="297.09 166.87 315.82 189.21 264.11 189.21 247.83 166.87" style="fill:none;stroke:#263238;stroke-linecap:round;stroke-linejoin:round;stroke-width:2px"></polyline><polygon points="239.68 174.16 305.46 174.16 329.24 131.31 263.47 131.31 239.68 174.16" style="fill:#a1a1a1;stroke:#263238;stroke-linecap:round;stroke-linejoin:round"></polygon><polygon points="266.94 136.49 251.88 164.3 300.66 164.3 316.21 136.03 266.94 136.49" style="fill:#fff;stroke:#263238;stroke-linecap:round;stroke-linejoin:round"></polygon><polyline points="255.72 158.36 283.14 158.36 279.02 164.13" style="fill:#fff;stroke:#263238;stroke-linecap:round;stroke-linejoin:round"></polyline><polygon points="239.68 174.16 237.89 171.94 302.74 171.94 305.46 174.16 239.68 174.16" style="fill:#fff;stroke:#263238;stroke-linecap:round;stroke-linejoin:round"></polygon></g><g id="freepik--Clipboard--inject-210"><rect x="193.95" y="21.33" width="45.77" height="59.66" style="fill:#a1a1a1;stroke:#263238;stroke-linecap:round;stroke-linejoin:round"></rect><rect x="196.26" y="24.34" width="41.16" height="53.65" style="fill:#fff;stroke:#263238;stroke-linecap:round;stroke-linejoin:round"></rect><path d="M222.83,18.35h-1.71V16.24h-8.56v2.11h-1.71A2.68,2.68,0,0,0,208.16,21v5.22h17.37V21A2.69,2.69,0,0,0,222.83,18.35Z" style="fill:#263238;stroke:#263238;stroke-linecap:round;stroke-linejoin:round"></path><rect x="199.47" y="36.88" width="7.28" height="7.28" style="fill:#fff;stroke:#263238;stroke-linecap:round;stroke-linejoin:round"></rect><rect x="199.47" y="49.82" width="7.28" height="7.28" style="fill:#fff;stroke:#263238;stroke-linecap:round;stroke-linejoin:round"></rect><rect x="199.47" y="62.76" width="7.28" height="7.28" style="fill:#fff;stroke:#263238;stroke-linecap:round;stroke-linejoin:round"></rect><line x1="210.25" y1="40.12" x2="232.63" y2="40.12" style="fill:none;stroke:#263238;stroke-linecap:round;stroke-linejoin:round"></line><line x1="210.25" y1="54.14" x2="232.63" y2="54.14" style="fill:none;stroke:#263238;stroke-linecap:round;stroke-linejoin:round"></line><line x1="210.25" y1="67.35" x2="232.63" y2="67.35" style="fill:none;stroke:#263238;stroke-linecap:round;stroke-linejoin:round"></line><polyline points="201.57 39.05 203.18 41.63 208.98 35.08" style="fill:#fff;stroke:#263238;stroke-linecap:round;stroke-linejoin:round"></polyline><polyline points="201.57 52.14 203.18 54.72 208.98 48.17" style="fill:#fff;stroke:#263238;stroke-linecap:round;stroke-linejoin:round"></polyline><polyline points="201.57 65.23 203.18 67.81 208.98 61.26" style="fill:#fff;stroke:#263238;stroke-linecap:round;stroke-linejoin:round"></polyline><line x1="193.18" y1="58.51" x2="180.37" y2="58.51" style="fill:none;stroke:#263238;stroke-linecap:round;stroke-linejoin:round"></line></g><g id="freepik--character-5--inject-210"><polygon points="447.63 359.76 451.14 382.22 450.29 401.38 447.18 401.38 445.39 384.21 447.63 359.76" style="fill:#fff;stroke:#263238;stroke-linecap:round;stroke-linejoin:round"></polygon><polygon points="444.55 390.93 420.51 390.93 419.21 456.36 425.04 456.36 432.53 406.62 440.02 456.36 445.85 456.36 444.55 390.93" style="fill:#263238;stroke:#263238;stroke-linecap:round;stroke-linejoin:round"></polygon><polygon points="436.82 355.53 432.56 356.43 428.3 355.53 417.6 359.76 420.51 390.93 444.6 390.93 447.51 359.76 436.82 355.53" style="fill:#fff;stroke:#263238;stroke-linecap:round;stroke-linejoin:round"></polygon><polygon points="429.9 362 431.64 366.3 430.27 384.86 432.46 388.89 435.03 384.68 432.92 366.49 434.75 362.73 432.36 359.25 429.9 362" style="fill:#263238;stroke:#263238;stroke-linecap:round;stroke-linejoin:round"></polygon><polygon points="436.7 355.53 432.43 360.92 428.43 355.53 428.43 350.67 436.7 350.67 436.7 355.53" style="fill:#263238;stroke:#263238;stroke-linecap:round;stroke-linejoin:round"></polygon><path d="M426.92,345.6s-1-1.42-1.24-.18,1.5,3.47,1.5,3.47Z" style="fill:#fff;stroke:#263238;stroke-linecap:round;stroke-linejoin:round"></path><path d="M438.08,345.6s1-1.42,1.25-.18-1.5,3.47-1.5,3.47Z" style="fill:#fff;stroke:#263238;stroke-linecap:round;stroke-linejoin:round"></path><path d="M436.43,353.52l-.85,1.09a3.6,3.6,0,0,1-2.84,1.39h0a3.6,3.6,0,0,1-2.68-1.19L429,353.62a7.06,7.06,0,0,1-1.81-4.73V343.1a5.36,5.36,0,0,1,5.37-5.37h0a5.37,5.37,0,0,1,5.38,5.37v6.07A7.06,7.06,0,0,1,436.43,353.52Z" style="fill:#fff;stroke:#263238;stroke-linecap:round;stroke-linejoin:round"></path><path d="M431.13,349.65s-.37.77,0,1.09a3,3,0,0,0,2.28.27c.8-.24.36-1.51.36-1.51" style="fill:none;stroke:#263238;stroke-linecap:round;stroke-linejoin:round;stroke-width:0.5px"></path><path d="M431.13,352.5a4.11,4.11,0,0,0,2.81-.08" style="fill:none;stroke:#263238;stroke-linecap:round;stroke-linejoin:round;stroke-width:0.5px"></path><path d="M431.24,345.85a2.25,2.25,0,0,0-2.35.24" style="fill:none;stroke:#263238;stroke-linecap:round;stroke-linejoin:round;stroke-width:0.5px"></path><path d="M433.41,346a2.34,2.34,0,0,1,2.49.32" style="fill:none;stroke:#263238;stroke-linecap:round;stroke-linejoin:round;stroke-width:0.5px"></path><path d="M430.78,347.57a.52.52,0,1,1-.51-.6A.56.56,0,0,1,430.78,347.57Z" style="fill:#263238"></path><path d="M435.35,347.57a.52.52,0,1,1-.51-.6A.56.56,0,0,1,435.35,347.57Z" style="fill:#263238"></path><path d="M437.93,343.1a5.38,5.38,0,0,0-10.75,0v2l.37.5s.62,0,.62-.44v-2.31a15.67,15.67,0,0,0,4.09,0,6.55,6.55,0,0,0,4.17-1.78s-.44,1.87,0,2.58,1,1.77,1,1.77l.36,1.16.16-1Z" style="fill:#263238;stroke:#263238;stroke-linecap:round;stroke-linejoin:round"></path><polygon points="427.98 354.77 426.84 356.17 428.13 364.13 432.43 360.92 437.12 364 437.88 356.17 436.76 355.05 432.36 359.25 427.98 354.77" style="fill:#fff;stroke:#263238;stroke-linecap:round;stroke-linejoin:round"></polygon><path d="M419.21,456.36s-2.47,7.64-2.1,7.76,8.32,0,8.32,0l-.39-7.76Z" style="fill:#fff;stroke:#263238;stroke-linecap:round;stroke-linejoin:round"></path><path d="M446,456.36s2.47,7.64,2.1,7.76-8.31,0-8.31,0l.38-7.76Z" style="fill:#fff;stroke:#263238;stroke-linecap:round;stroke-linejoin:round"></path><path d="M450.23,401.38l.45,5.31a20.08,20.08,0,0,1-2.44,1c-.3,0-.8-.81-.8-.81h0a1.14,1.14,0,0,1-1.19-1.38l.88-4.08Z" style="fill:#fff;stroke:#263238;stroke-linecap:round;stroke-linejoin:round"></path><polygon points="417.6 359.76 397.76 393.3 398.6 397.66 418.44 374.44 417.6 359.76" style="fill:#fff;stroke:#263238;stroke-linecap:round;stroke-linejoin:round"></polygon><path d="M395.13,392.72s-2.75,3.48-2.61,4.64,3.34,5.8,3.48,5.22S395.13,392.72,395.13,392.72Z" style="fill:#fff;stroke:#263238;stroke-linecap:round;stroke-linejoin:round"></path><rect x="395.69" y="353.12" width="14.88" height="77.84" style="fill:#fff;stroke:#263238;stroke-linecap:round;stroke-linejoin:round"></rect><path d="M412.28,326l.13,14.66-9.06,5.95-8.86-6.24.7-14.9a16.62,16.62,0,1,0,17.09.53Z" style="fill:#fff;stroke:#263238;stroke-linecap:round;stroke-linejoin:round"></path><path d="M412.58,458l0-1.27-.2-13.71-9.06-5.95-8.86,6.25.25,13.7,0,1.18a16.19,16.19,0,0,1-8.08-14.47,16.61,16.61,0,0,1,33.22,0A16.87,16.87,0,0,1,412.58,458Z" style="fill:#fff;stroke:#263238;stroke-linecap:round;stroke-linejoin:round"></path><rect x="399.84" y="369.03" width="6.57" height="47.74" rx="2.54" style="fill:#fff;stroke:#263238;stroke-linecap:round;stroke-linejoin:round;stroke-width:0.75px"></rect></g><g id="freepik--character-4--inject-210"><polygon points="271.53 281.16 271.31 282.2 269.5 298.67 260.81 296.54 257.57 300.24 272.82 305.78 273.62 302.76 271.53 281.16" style="fill:#fff;stroke:#263238;stroke-linecap:round;stroke-linejoin:round"></polygon><polygon points="296.72 312.01 272.93 312.01 271.64 376.79 277.41 376.79 284.82 327.55 292.24 376.79 298.01 376.79 296.72 312.01" style="fill:#263238;stroke:#263238;stroke-linecap:round;stroke-linejoin:round"></polygon><polygon points="289.07 276.96 284.85 277.85 280.63 276.96 271.53 281.16 272.93 312.01 296.77 312.01 298.18 281.16 289.07 276.96" style="fill:#fff;stroke:#263238;stroke-linecap:round;stroke-linejoin:round"></polygon><polygon points="282.22 283.37 283.94 287.63 282.58 306 284.76 309.99 287.3 305.82 285.21 287.81 287.02 284.1 284.66 280.65 282.22 283.37" style="fill:#263238;stroke:#263238;stroke-linecap:round;stroke-linejoin:round"></polygon><polygon points="280.32 276.21 279.19 277.6 280.46 285.48 284.73 282.3 289.36 285.35 290.13 277.6 289.02 276.49 284.66 280.65 280.32 276.21" style="fill:#fff;stroke:#263238;stroke-linecap:round;stroke-linejoin:round"></polygon><path d="M271.64,376.78s-2.45,7.56-2.08,7.68,8.23,0,8.23,0l-.38-7.68Z" style="fill:#fff;stroke:#263238;stroke-linecap:round;stroke-linejoin:round"></path><path d="M298.11,376.78s2.45,7.56,2.08,7.68-8.23,0-8.23,0l.38-7.68Z" style="fill:#fff;stroke:#263238;stroke-linecap:round;stroke-linejoin:round"></path><polygon points="288.95 276.96 284.73 282.3 280.77 276.96 280.77 272.15 288.95 272.15 288.95 276.96" style="fill:#263238;stroke:#263238;stroke-linecap:round;stroke-linejoin:round"></polygon><path d="M279.27,267.14s-1-1.41-1.23-.18,1.48,3.43,1.48,3.43Z" style="fill:#a1a1a1;stroke:#263238;stroke-linecap:round;stroke-linejoin:round"></path><path d="M290.32,267.14s1-1.41,1.23-.18-1.48,3.43-1.48,3.43Z" style="fill:#a1a1a1;stroke:#263238;stroke-linecap:round;stroke-linejoin:round"></path><path d="M288.69,275l-.85,1.08a3.58,3.58,0,0,1-2.81,1.37h0a3.58,3.58,0,0,1-2.65-1.18l-1.06-1.17a7,7,0,0,1-1.8-4.69v-5.72a5.33,5.33,0,0,1,5.33-5.33h0a5.33,5.33,0,0,1,5.32,5.33v6A7,7,0,0,1,288.69,275Z" style="fill:#a1a1a1;stroke:#263238;stroke-linecap:round;stroke-linejoin:round"></path><path d="M283.65,270.92s-.38.77,0,1.09a3,3,0,0,0,2.29.27c.8-.24.35-1.51.35-1.51" style="fill:none;stroke:#263238;stroke-linecap:round;stroke-linejoin:round;stroke-width:0.5px"></path><path d="M283.65,273.77a4.08,4.08,0,0,0,2.8-.08" style="fill:none;stroke:#263238;stroke-linecap:round;stroke-linejoin:round;stroke-width:0.5px"></path><path d="M283.75,267.12a2.27,2.27,0,0,0-2.35.24" style="fill:none;stroke:#263238;stroke-linecap:round;stroke-linejoin:round;stroke-width:0.5px"></path><path d="M285.93,267.31a2.32,2.32,0,0,1,2.48.32" style="fill:none;stroke:#263238;stroke-linecap:round;stroke-linejoin:round;stroke-width:0.5px"></path><path d="M283.29,268.84a.56.56,0,0,1-.51.6.61.61,0,0,1,0-1.2A.56.56,0,0,1,283.29,268.84Z" style="fill:#263238"></path><path d="M287.87,268.84a.52.52,0,1,1-.52-.6A.56.56,0,0,1,287.87,268.84Z" style="fill:#263238"></path><path d="M214.81,251.32a28.47,28.47,0,1,0,40.25-.95A28.46,28.46,0,0,0,214.81,251.32Zm36.61,34.92a22.13,22.13,0,1,1-.74-31.29A22.13,22.13,0,0,1,251.42,286.24Z" style="fill:#263238;stroke:#263238;stroke-linecap:round;stroke-linejoin:round"></path><path d="M292.17,325.44h0a5.78,5.78,0,0,1-8.36,0l-30.44-32.05,4.95-5.19,33.45,28.9A5.77,5.77,0,0,1,292.17,325.44Z" style="fill:#a1a1a1;stroke:#263238;stroke-linecap:round;stroke-linejoin:round"></path><polygon points="298.18 281.16 295.76 301.44 277.65 312.47 278.64 315.44 300.93 308.76 303.03 305.13 298.18 281.16" style="fill:#fff;stroke:#263238;stroke-linecap:round;stroke-linejoin:round"></polygon><path d="M277.65,312.47l-2.71-.66s-2.16,1.67-2.41,2.43a1.2,1.2,0,0,0,.76,1.51s1.51,1.77,2.14,1.77,3.21-2.08,3.21-2.08Z" style="fill:#a1a1a1;stroke:#263238;stroke-linecap:round;stroke-linejoin:round"></path><rect x="254.52" y="295.8" width="4.74" height="3.29" transform="translate(261.31 -95.55) rotate(41.46)" style="fill:#a1a1a1;stroke:#263238;stroke-linecap:round;stroke-linejoin:round"></rect></g><g id="freepik--character-3--inject-210"><polygon points="356.2 232.62 332.32 232.62 331.03 297.63 336.82 297.63 344.26 248.21 351.71 297.63 357.5 297.63 356.2 232.62" style="fill:#263238;stroke:#263238;stroke-linecap:round;stroke-linejoin:round"></polygon><polygon points="348.52 197.44 344.29 195.24 340.06 197.44 329.43 201.65 332.32 232.62 356.25 232.62 359.15 201.65 348.52 197.44" style="fill:#fff;stroke:#263238;stroke-linecap:round;stroke-linejoin:round"></polygon><path d="M338.69,187.57s-1-1.41-1.24-.17,1.49,3.44,1.49,3.44Z" style="fill:#fff;stroke:#263238;stroke-linecap:round;stroke-linejoin:round"></path><path d="M349.78,187.57s1-1.41,1.23-.17-1.48,3.44-1.48,3.44Z" style="fill:#fff;stroke:#263238;stroke-linecap:round;stroke-linejoin:round"></path><path d="M349.63,185.09a5.35,5.35,0,0,0-10.69,0v5.75a7.06,7.06,0,0,0,1.25,4v2.61l4-.6,4.24.6v-2.37a7,7,0,0,0,1.22-3.95Z" style="fill:#fff;stroke:#263238;stroke-linecap:round;stroke-linejoin:round"></path><path d="M331,297.63s-2.46,7.58-2.09,7.7,8.26,0,8.26,0l-.38-7.7Z" style="fill:#fff;stroke:#263238;stroke-linecap:round;stroke-linejoin:round"></path><path d="M357.6,297.63s2.45,7.58,2.09,7.7-8.27,0-8.27,0l.39-7.7Z" style="fill:#fff;stroke:#263238;stroke-linecap:round;stroke-linejoin:round"></path><path d="M337.3,198.43l3-3.18,7.51-.09,3.17,3.17A120.37,120.37,0,0,0,337.3,198.43Z" style="fill:#fff;stroke:#263238;stroke-linecap:round;stroke-linejoin:round"></path><path d="M344.29,179.75a5.34,5.34,0,0,0-5.35,5.34v5.75c0,.22,0,.44.05.66l2.17,2.82h6.08l2.39-3.2v-6A5.34,5.34,0,0,0,344.29,179.75Z" style="fill:#263238;stroke:#263238;stroke-linecap:round;stroke-linejoin:round"></path><path d="M329.43,201.65S318,220.44,317.68,221s10.49,12.67,10.49,12.67l1-3.7-2.76-10,4.13-4.3Z" style="fill:#fff;stroke:#263238;stroke-linecap:round;stroke-linejoin:round"></path><polygon points="329.21 229.93 333 232.72 331.26 237.4 329.07 237.01 329 236.11 328.17 233.63 329.21 229.93" style="fill:#fff;stroke:#263238;stroke-linecap:round;stroke-linejoin:round"></polygon><polygon points="359.15 201.65 365.29 207.3 372.48 195.16 376.71 196.43 367.4 221.05 357.93 215.19 359.15 201.65" style="fill:#fff;stroke:#263238;stroke-linecap:round;stroke-linejoin:round"></polygon><polygon points="372.48 195.16 374.17 190.3 378.61 186.07 379.67 187.45 377.79 190.16 379.67 191.63 379.56 194.24 376.71 196.43 372.48 195.16" style="fill:#fff;stroke:#263238;stroke-linecap:round;stroke-linejoin:round"></polygon></g><g id="freepik--character-2--inject-210"><polygon points="205.33 122.17 205.1 123.21 201.86 138.38 195.99 137.43 196.3 141.08 206.62 146.8 207.42 143.78 205.33 122.17" style="fill:#fff;stroke:#263238;stroke-linecap:round;stroke-linejoin:round"></polygon><polygon points="231.98 122.17 236.78 139.49 241.71 139.49 240.28 143.62 230.75 144.89 231.98 122.17" style="fill:#fff;stroke:#263238;stroke-linecap:round;stroke-linejoin:round"></polygon><polygon points="230.52 153.03 206.73 153.03 205.44 217.8 211.21 217.8 218.63 168.56 226.04 217.8 231.81 217.8 230.52 153.03" style="fill:#263238;stroke:#263238;stroke-linecap:round;stroke-linejoin:round"></polygon><polygon points="222.87 117.98 218.65 118.87 214.43 117.98 205.33 122.17 206.73 153.03 230.57 153.03 231.98 122.17 222.87 117.98" style="fill:#fff;stroke:#263238;stroke-linecap:round;stroke-linejoin:round"></polygon><polygon points="216.02 124.39 217.74 128.65 216.38 147.02 218.56 151.01 221.09 146.84 219.01 128.83 220.82 125.11 218.46 121.67 216.02 124.39" style="fill:#263238;stroke:#263238;stroke-linecap:round;stroke-linejoin:round"></polygon><polygon points="214.12 117.23 212.99 118.61 214.26 126.5 218.53 123.32 223.16 126.37 223.93 118.61 222.82 117.5 218.46 121.67 214.12 117.23" style="fill:#fff;stroke:#263238;stroke-linecap:round;stroke-linejoin:round"></polygon><path d="M205.44,217.8s-2.45,7.56-2.08,7.68,8.23,0,8.23,0l-.38-7.68Z" style="fill:#fff;stroke:#263238;stroke-linecap:round;stroke-linejoin:round"></path><path d="M231.91,217.8s2.45,7.56,2.08,7.68-8.23,0-8.23,0l.38-7.68Z" style="fill:#fff;stroke:#263238;stroke-linecap:round;stroke-linejoin:round"></path><polygon points="222.75 117.98 218.53 123.32 214.57 117.98 214.57 113.17 222.75 113.17 222.75 117.98" style="fill:#263238;stroke:#263238;stroke-linecap:round;stroke-linejoin:round"></polygon><path d="M213.07,108.15s-1-1.4-1.23-.17,1.48,3.43,1.48,3.43Z" style="fill:#a1a1a1;stroke:#263238;stroke-linecap:round;stroke-linejoin:round"></path><path d="M224.12,108.15s1-1.4,1.23-.17-1.48,3.43-1.48,3.43Z" style="fill:#a1a1a1;stroke:#263238;stroke-linecap:round;stroke-linejoin:round"></path><path d="M222.49,116l-.85,1.09a3.58,3.58,0,0,1-2.81,1.37h0a3.58,3.58,0,0,1-2.65-1.18l-1.06-1.18a7,7,0,0,1-1.8-4.68v-5.73a5.33,5.33,0,0,1,5.33-5.32h0a5.32,5.32,0,0,1,5.32,5.32v6A7,7,0,0,1,222.49,116Z" style="fill:#a1a1a1;stroke:#263238;stroke-linecap:round;stroke-linejoin:round"></path><path d="M215.57,110.7a1.71,1.71,0,0,0,1.92.06" style="fill:none;stroke:#263238;stroke-linecap:round;stroke-linejoin:round;stroke-width:0.5px"></path><path d="M220,110.82a1.44,1.44,0,0,0,1.75,0" style="fill:none;stroke:#263238;stroke-linecap:round;stroke-linejoin:round;stroke-width:0.5px"></path><path d="M217.45,113s-.38.78,0,1.1a3,3,0,0,0,2.28.26c.8-.24.35-1.5.35-1.5" style="fill:none;stroke:#263238;stroke-linecap:round;stroke-linejoin:round;stroke-width:0.5px"></path><path d="M217.45,115.64a4.08,4.08,0,0,0,2.8-.08" style="fill:none;stroke:#263238;stroke-linecap:round;stroke-linejoin:round;stroke-width:0.5px"></path><path d="M217.55,109.5a2.25,2.25,0,0,0-2.35.24" style="fill:none;stroke:#263238;stroke-linecap:round;stroke-linejoin:round;stroke-width:0.5px"></path><path d="M219.73,109.69a2.32,2.32,0,0,1,2.48.32" style="fill:none;stroke:#263238;stroke-linecap:round;stroke-linejoin:round;stroke-width:0.5px"></path><path d="M218.65,100.36a5.33,5.33,0,0,0-5.33,5.32v2.47h.9v-2.83l2.31-2.06,2.31.41,2.31-.41,2.31,2.06v2.83H224v-2.47A5.32,5.32,0,0,0,218.65,100.36Z" style="fill:#263238;stroke:#263238;stroke-linecap:round;stroke-linejoin:round"></path><path d="M194,127.58s14.19,6.59,22.05,7.86,28.88-6.59,28.88-6.59l-5.57,24.83s-15.2,2.53-22.55,3-21.28-4.56-21.28-4.56S195.25,131.64,194,127.58Z" style="fill:#fff;stroke:#263238;stroke-linecap:round;stroke-linejoin:round"></path><line x1="219.12" y1="139.39" x2="218.05" y2="154.28" style="fill:none;stroke:#263238;stroke-linecap:round;stroke-linejoin:round;stroke-width:0.5px"></line><path d="M241.45,137s-3.19,3.72-7.18,8.51" style="fill:none;stroke:#263238;stroke-linecap:round;stroke-linejoin:round;stroke-width:0.5px"></path><path d="M196,137.43s4.78,3.56,6.91,8.08" style="fill:none;stroke:#263238;stroke-linecap:round;stroke-linejoin:round;stroke-width:0.5px"></path><path d="M243.14,137.43s1.27.32,1.27,1.43-.16,4.28-1.43,4.76-1.91.32-1.59-1.9S241.07,137.91,243.14,137.43Z" style="fill:#a1a1a1;stroke:#263238;stroke-linecap:round;stroke-linejoin:round"></path><path d="M194.56,137.43s-1.27.32-1.27,1.43.16,4.28,1.43,4.76,1.9.32,1.58-1.9S196.62,137.91,194.56,137.43Z" style="fill:#a1a1a1;stroke:#263238;stroke-linecap:round;stroke-linejoin:round"></path></g><g id="freepik--character-1--inject-210"><path d="M156.68,39.28a6,6,0,1,0,6-6A6,6,0,0,0,156.68,39.28Z" style="fill:#263238;stroke:#263238;stroke-linecap:round;stroke-linejoin:round"></path><polygon points="173.64 100.66 173.34 111.47 173.05 139.29 168.82 139.29 165.84 111.77 165.08 100.51 173.64 100.66" style="fill:#fff;stroke:#263238;stroke-linecap:round;stroke-linejoin:round"></polygon><path d="M173.05,139.29s1.79,7.46,1.53,7.58-6,0-6,0l.28-7.58Z" style="fill:#fff;stroke:#263238;stroke-linecap:round;stroke-linejoin:round"></path><path d="M174.58,146.87c-.27.12-6,0-6,0l.1-2.81h5.49A11.65,11.65,0,0,1,174.58,146.87Z" style="fill:#263238;stroke:#263238;stroke-linecap:round;stroke-linejoin:round"></path><polygon points="151.57 100.66 151.87 111.47 152.16 139.29 156.39 139.29 159.38 111.77 160.13 100.51 151.57 100.66" style="fill:#fff;stroke:#263238;stroke-linecap:round;stroke-linejoin:round"></polygon><path d="M152.16,139.29s-1.79,7.46-1.52,7.58,6,0,6,0l-.28-7.58Z" style="fill:#fff;stroke:#263238;stroke-linecap:round;stroke-linejoin:round"></path><path d="M150.64,146.87c.26.12,6,0,6,0l-.1-2.81h-5.49A11.34,11.34,0,0,0,150.64,146.87Z" style="fill:#263238;stroke:#263238;stroke-linecap:round;stroke-linejoin:round"></path><path d="M153.88,62.06l-4.33-14.8,9-4.13,4.16-1.43,4.16,1.43,9,4.13L171.54,62l.14,2.43,2.76,7.84a13,13,0,0,1,.74,4.32v7.58l-12.39,3.27L150.4,84.19V76.61a13.24,13.24,0,0,1,.73-4.32l2.77-7.84Z" style="fill:#fff;stroke:#263238;stroke-linecap:round;stroke-linejoin:round"></path><polygon points="157.11 43.78 158.54 43.13 158.68 43.16 158.66 43.13 159.6 36.07 166 36.07 166.73 43.13 166.65 43.24 167.19 43.27 168.08 43.68 168.93 50.08 156.44 50.08 157.11 43.78" style="fill:#fff;stroke:#263238;stroke-linecap:round;stroke-linejoin:round"></polygon><path d="M168.21,31.13s.95-1.39,1.21-.18S168,34.34,168,34.34Z" style="fill:#a1a1a1;stroke:#263238;stroke-linecap:round;stroke-linejoin:round"></path><path d="M157.31,31.13s-1-1.39-1.22-.18,1.47,3.39,1.47,3.39Z" style="fill:#a1a1a1;stroke:#263238;stroke-linecap:round;stroke-linejoin:round"></path><path d="M158.92,38.86l.84,1.07a3.5,3.5,0,0,0,2.77,1.35h0a3.51,3.51,0,0,0,2.61-1.16L166.19,39A6.93,6.93,0,0,0,168,34.34V28.69a5.25,5.25,0,0,0-5.25-5.25h0a5.25,5.25,0,0,0-5.25,5.25v5.92A6.88,6.88,0,0,0,158.92,38.86Z" style="fill:#fff;stroke:#263238;stroke-linecap:round;stroke-linejoin:round"></path><path d="M161.13,37.05a3,3,0,0,0,2.9,0" style="fill:#fff;stroke:#263238;stroke-linecap:round;stroke-linejoin:round;stroke-width:0.5px"></path><path d="M163.15,34.41s.14,1.22-.27,1.29S162,35,162,35" style="fill:#fff;stroke:#263238;stroke-linecap:round;stroke-linejoin:round;stroke-width:0.5px"></path><path d="M159.5,33.19a1.83,1.83,0,0,0,2.23.07" style="fill:#fff;stroke:#263238;stroke-linecap:round;stroke-linejoin:round;stroke-width:0.5px"></path><path d="M163.76,33.19a1.83,1.83,0,0,0,2.23.07" style="fill:#fff;stroke:#263238;stroke-linecap:round;stroke-linejoin:round;stroke-width:0.5px"></path><path d="M161.87,32.32a3.14,3.14,0,0,0-3-.27" style="fill:#fff;stroke:#263238;stroke-linecap:round;stroke-linejoin:round;stroke-width:0.5px"></path><path d="M163.69,32.25a3.14,3.14,0,0,1,2.64.07" style="fill:#fff;stroke:#263238;stroke-linecap:round;stroke-linejoin:round;stroke-width:0.5px"></path><path d="M162.71,23.44A5.25,5.25,0,0,1,168,28.69V31c-1.16-.42-6.21-2.35-8.46-5.05l-2,4.79V28.69A5.25,5.25,0,0,1,162.71,23.44Z" style="fill:#263238;stroke:#263238;stroke-linecap:round;stroke-linejoin:round"></path><path d="M150.4,76.61a13.24,13.24,0,0,1,.73-4.32l2.48-7H172l2.48,7a13,13,0,0,1,.74,4.32l-.06,25.1H150.48Z" style="fill:#263238;stroke:#263238;stroke-linecap:round;stroke-linejoin:round"></path><path d="M179.14,61.35s.87,3.85.68,4.9-1.24,2.42-2.23,2.36-3.39-4-3.39-4l.38-2.28Z" style="fill:#fff;stroke:#263238;stroke-linecap:round;stroke-linejoin:round"></path><line x1="175.92" y1="62.28" x2="178.52" y2="63.65" style="fill:none;stroke:#263238;stroke-linecap:round;stroke-linejoin:round"></line><polygon points="175.85 47.27 180.37 61.2 173.1 62.87 172.69 58.17 175.85 47.27" style="fill:#fff;stroke:#263238;stroke-linecap:round;stroke-linejoin:round"></polygon><path d="M146,61.79s-.62,3.53-.12,4.52,3,2.11,4.47,1.93,2-5,2-5Z" style="fill:#fff;stroke:#263238;stroke-linecap:round;stroke-linejoin:round"></path><polygon points="149.62 47.27 145.8 61.2 153.03 63.19 152.78 58.17 149.62 47.27" style="fill:#fff;stroke:#263238;stroke-linecap:round;stroke-linejoin:round"></polygon><path d="M148.44,63.58l10.05-4.65s2.23-2.66,2.6-2.6,4.41,4.28,4,4.46a2.46,2.46,0,0,1-1.42.38l-2.17-.69a10.77,10.77,0,0,1-1.74,1.12,2.25,2.25,0,0,1-1,.19s-6.05,6-6.79,6.28-3.09,1.39-4.67,0a2.68,2.68,0,0,1-.88-1.45" style="fill:#fff;stroke:#263238;stroke-linecap:round;stroke-linejoin:round"></path><rect x="160.2" y="52.11" width="13.37" height="16.48" transform="translate(322.18 146.24) rotate(-170.94)" style="fill:#5D5D5D;stroke:#263238;stroke-linecap:round;stroke-linejoin:round"></rect><polygon points="171.38 51.59 170.88 54.13 164.81 53.13 165.31 50.64 171.38 51.59" style="fill:#fff;stroke:#263238;stroke-linecap:round;stroke-linejoin:round"></polygon><path d="M175.59,62.33c-.19-1.38-.53-2.91-.53-3-.76-.28-3.13-.09-3.42.33a6,6,0,0,0-.38,1.81l2.13.54a20.73,20.73,0,0,0,.81,2.59c.29.47.86.42,1.38,0a.52.52,0,0,0,.12-.28" style="fill:#fff;stroke:#263238;stroke-linecap:round;stroke-linejoin:round"></path></g><g id="freepik--Plant--inject-210"><path d="M128.83,398.11C125.26,399.17,117,398,117,398s2.45-5.2,2.65-5.51c2.29-3.57,8.82-9.12,13.42-7.91a5.63,5.63,0,0,1,3.6,7.55C135.49,395.22,131.87,397.21,128.83,398.11Z" style="fill:#263238"></path><path d="M51.77,394.66c-.08,0-.82-5.69-.82-6.06-.06-4.24,2.32-12.47,6.82-14a5.62,5.62,0,0,1,7.17,4.31c.75,3.27-1.17,6.93-3.21,9.35C59.34,391.12,51.78,394.66,51.77,394.66Z" style="fill:#263238"></path><path d="M34.11,379.34c2.49,1.4,8.37,2,9.83,2.14.73,1,1.49,2.07,2.31,3.28,1.43,2.13,3,4.55,4.58,7.3.41.74.83,1.54,1.25,2.31-1-1.15-2.34-2.72-2.49-2.86-2.74-2.52-9.52-5.8-13.16-3.74A4.94,4.94,0,0,0,35,395c1.7,2.41,5.23,3.29,8,3.38s8.53-2.15,9.76-2.65c.9,1.72,1.78,3.51,2.6,5.43A63.6,63.6,0,0,1,59,411.92l-.22.09c-.77-1.18-2.44-3.61-2.6-3.79-2.45-2.82-8.83-6.81-12.67-5.17a4.94,4.94,0,0,0-2.18,7c1.43,2.59,4.83,3.85,7.59,4.25,3.18.45,10-1.56,10.22-1.64a88.49,88.49,0,0,1,1.61,11.18c.23,2.78.35,5.6.44,8.44-.52-.84-2.71-4-2.9-4.25-2.44-2.81-8.83-6.81-12.67-5.17a5,5,0,0,0-2.17,7c1.43,2.58,4.83,3.85,7.59,4.24,3.1.45,9.61-1.46,10.16-1.62,0,1.29.09,2.58.12,3.87.11,4.21.19,8.44.41,12.6.07,1.45.2,2.87.32,4.29-.82-1.23-2.35-3.45-2.5-3.63-2.45-2.81-8.83-6.81-12.67-5.17a4.94,4.94,0,0,0-2.17,7c1.42,2.58,4.83,3.85,7.58,4.24s8.28-1.08,9.83-1.52c.21,2.37.48,4.71.86,7,.18,1,.3,2,.53,2.94l.63,2.82c.49,1.9.94,3.68,1.45,5.44.25.9.5,1.73.76,2.6-.64-1.38-1.69-3.54-1.81-3.72-2-3.16-7.7-8.08-11.74-7a4.94,4.94,0,0,0-3.21,6.61c1,2.77,4.19,4.54,6.85,5.35,2.94.89,9.45.05,10.24-.06.64,2.11,1.27,4.17,1.9,6.08.51,1.56,1,3,1.5,4.42h2.74c-.61-1.63-1.25-3.37-1.9-5.22s-1.22-3.54-1.83-5.42c.73-.29,6.39-2.6,8.69-4.76a51.51,51.51,0,0,0,5.5,3.09c-.63,2.12-1.24,4.18-1.77,6.12q-.9,3.3-1.61,6.19H82.6c.4-1.75.83-3.59,1.33-5.57.44-1.76.93-3.62,1.46-5.53.8.17,7.22,1.46,10.21.77,2.71-.62,6-2.16,7.21-4.85a5,5,0,0,0-2.74-6.83c-4-1.32-10,3.19-12.21,6.2-.14.19-1.55,2.66-2.25,3.93.33-1.15.64-2.3,1-3.49.5-1.72,1.08-3.52,1.64-5.27.32-.9.65-1.8,1-2.72s.72-1.77,1.09-2.68c.55-1.31,1.19-2.64,1.83-4,1.72.62,6.8,2.33,9.49,2.13s6.26-1.23,7.87-3.7a4.94,4.94,0,0,0-1.68-7.16c-3.72-1.91-10.36,1.64-13,4.27-.09.09-.59.71-1.17,1.44.66-1.27,1.31-2.55,2-3.82,2-3.61,4.19-7.22,6.35-10.84.46-.76.89-1.52,1.34-2.28,1.45.53,6.93,2.43,9.75,2.23s6.26-1.23,7.87-3.71a4.94,4.94,0,0,0-1.68-7.16c-3.72-1.91-10.36,1.64-13,4.28-.1.09-.69.83-1.35,1.66,1.15-2,2.27-4,3.31-6A86.27,86.27,0,0,0,113,417.36c.51.19,6.9,2.55,10,2.32,2.78-.2,6.26-1.23,7.87-3.7a4.94,4.94,0,0,0-1.68-7.16c-3.72-1.91-10.36,1.64-13,4.27-.19.19-2.32,2.87-3,3.85,0,0,0-.08,0-.13A65.47,65.47,0,0,0,116,405.68a90.43,90.43,0,0,0,1-10.2c.15-3.17.1-6.07,0-8.65,0-1.39-.12-2.66-.2-3.85l.07.06c.06,0,1.81-4.72,1.89-5,.88-3.63.44-11.15-3.12-13.33a5,5,0,0,0-7,2.3c-1.28,2.66-.34,6.17.93,8.64s5.88,6.29,7,7.21c.05,1.23.1,2.55.12,4,0,2.57,0,5.47-.22,8.62-.06.84-.15,1.74-.23,2.61-.18-1.5-.45-3.56-.49-3.75-.9-3.62-4.75-10.1-8.91-10.39a4.94,4.94,0,0,0-5.15,5.26c.09,2.95,2.54,5.63,4.81,7.24s8.31,2.91,9.61,3.17c-.2,1.93-.45,3.91-.83,6a64.57,64.57,0,0,1-2.93,11l-.23-.05c0-1.4-.05-4.35-.08-4.6-.49-3.69-3.61-10.55-7.72-11.3a5,5,0,0,0-5.69,4.66c-.23,2.94,1.91,5.88,4,7.73,2.4,2.13,9.17,4.19,9.43,4.27a86.61,86.61,0,0,1-4.83,10.21c-1.34,2.44-2.8,4.87-4.28,7.28,0-1,0-4.86-.08-5.14-.49-3.69-3.6-10.55-7.71-11.3A5,5,0,0,0,89.46,423c-.24,2.94,1.9,5.88,4,7.73,2.35,2.08,8.83,4.09,9.37,4.25-.67,1.1-1.34,2.2-2,3.29-2.23,3.58-4.49,7.15-6.61,10.74-.74,1.25-1.41,2.5-2.1,3.75,0-1.47,0-4.17-.08-4.4-.49-3.7-3.61-10.55-7.72-11.3a4.94,4.94,0,0,0-5.69,4.66c-.23,2.94,1.91,5.88,4,7.73s7.5,3.66,9,4.15c-1.13,2.09-2.2,4.19-3.15,6.31-.39.92-.85,1.84-1.18,2.75s-.69,1.8-1,2.69c-.64,1.86-1.24,3.59-1.79,5.34-.29.89-.53,1.73-.8,2.59.22-1.5.54-3.88.54-4.1.08-3.73-2-11-5.91-12.34A4.93,4.93,0,0,0,72,460.54a6.65,6.65,0,0,0-.15,1.09,19.26,19.26,0,0,0-3.24,9.12c0,.24.17,3.08.29,4.52-.36-1.14-.73-2.27-1.09-3.46-.53-1.71-1-3.53-1.54-5.3-.23-.92-.45-1.86-.69-2.8s-.37-1.88-.57-2.84c-.26-1.4-.46-2.86-.66-4.32,1.77-.44,7-1.81,9.09-3.46s4.54-4.48,4.52-7.43a4.94,4.94,0,0,0-5.35-5c-4.16.46-7.74,7.08-8.49,10.74,0,.12-.1.9-.18,1.84-.15-1.43-.31-2.86-.42-4.31-.3-4.12-.48-8.33-.67-12.55-.05-.88-.1-1.75-.14-2.63,1.49-.36,7.12-1.8,9.36-3.52s4.54-4.49,4.51-7.44a4.94,4.94,0,0,0-5.35-5c-4.15.46-7.74,7.08-8.48,10.74,0,.13-.12,1.07-.21,2.12-.14-2.28-.31-4.57-.55-6.82A86.78,86.78,0,0,0,60,412.23c.53-.12,7.16-1.67,9.65-3.59,2.21-1.7,4.54-4.48,4.51-7.43a4.94,4.94,0,0,0-5.35-5c-4.15.46-7.73,7.09-8.48,10.74,0,.26-.35,3.67-.42,4.89l0-.13A64,64,0,0,0,56,400.88a87.27,87.27,0,0,0-4.81-9.05c-1.62-2.73-3.27-5.12-4.74-7.23-.81-1.13-1.57-2.16-2.29-3.1h.09c.07,0-1.1-4.93-1.21-5.23-1.26-3.51-5.77-9.54-10-9.39a4.94,4.94,0,0,0-4.56,5.77C29,375.57,31.68,378,34.11,379.34Z" style="fill:#263238"></path></g></svg>
