<svg xmlns="http://www.w3.org/2000/svg" viewBox="0 0 500 500"><g id="freepik--background-complete--inject-73"><path d="M412,99.52c.68-5-6.34-9.07-11.62-9.5-2.52-.2-5.13.18-7.52-.65-5.17-1.8-7.23-8.48-12.27-10.6-3.77-1.59-8.11-.18-11.77,1.66s-7.26,4.16-11.34,4.42c-3.56.23-7.41-1.09-10.52.64-2.32,1.3-3.53,4-5.66,5.54s-4.81,1.86-7.4,2-5.28.17-7.63,1.25-4.31,3.58-3.83,6.12Z" style="fill:#f5f5f5"></path><rect x="296.45" y="190.71" width="33.65" height="142.31" style="fill:#ebebeb"></rect><rect x="302.73" y="200.69" width="10.23" height="19.71" style="fill:#fff"></rect><path d="M308.13,220.4c-.08,0-.14-4.41-.14-9.86s.06-9.85.14-9.85.14,4.41.14,9.85S308.2,220.4,308.13,220.4Z" style="fill:#e0e0e0"></path><path d="M313,207.54a100.5,100.5,0,0,1-10.22,0,93.33,93.33,0,0,1,10.22,0Z" style="fill:#e0e0e0"></path><path d="M313,214.59c0,.07-2.31.13-5.16.13s-5.15-.06-5.15-.13a95,95,0,0,1,10.31,0Z" style="fill:#e0e0e0"></path><rect x="302.73" y="226.43" width="10.23" height="19.71" style="fill:#fff"></rect><path d="M308.13,246.14c-.08,0-.14-4.41-.14-9.85s.06-9.86.14-9.86.14,4.42.14,9.86S308.2,246.14,308.13,246.14Z" style="fill:#e0e0e0"></path><path d="M313,233.28a93.33,93.33,0,0,1-10.22,0,100.5,100.5,0,0,1,10.22,0Z" style="fill:#e0e0e0"></path><path d="M313,240.33a95,95,0,0,1-10.31,0,95,95,0,0,1,10.31,0Z" style="fill:#e0e0e0"></path><rect x="302.73" y="252.18" width="10.23" height="19.71" style="fill:#fff"></rect><path d="M308.13,271.89c-.08,0-.14-4.41-.14-9.86s.06-9.85.14-9.85.14,4.41.14,9.85S308.2,271.89,308.13,271.89Z" style="fill:#e0e0e0"></path><path d="M313,259a100.5,100.5,0,0,1-10.22,0A93.33,93.33,0,0,1,313,259Z" style="fill:#e0e0e0"></path><path d="M313,266.08c0,.07-2.31.13-5.16.13s-5.15-.06-5.15-.13a95,95,0,0,1,10.31,0Z" style="fill:#e0e0e0"></path><rect x="302.73" y="277.92" width="10.23" height="19.71" style="fill:#fff"></rect><path d="M308.13,297.63c-.08,0-.14-4.41-.14-9.85s.06-9.86.14-9.86.14,4.42.14,9.86S308.2,297.63,308.13,297.63Z" style="fill:#e0e0e0"></path><path d="M313,284.77a93.33,93.33,0,0,1-10.22,0,100.5,100.5,0,0,1,10.22,0Z" style="fill:#e0e0e0"></path><path d="M313,291.82a95,95,0,0,1-10.31,0,95,95,0,0,1,10.31,0Z" style="fill:#e0e0e0"></path><rect x="319.9" y="190.71" width="24.52" height="142.31" style="fill:#e0e0e0"></rect><rect x="327.51" y="200.69" width="10.23" height="19.71" style="fill:#fff"></rect><path d="M332.91,220.4c-.07,0-.13-4.41-.13-9.86s.06-9.85.13-9.85.14,4.41.14,9.85S333,220.4,332.91,220.4Z" style="fill:#e0e0e0"></path><path d="M337.74,207.54a100.69,100.69,0,0,1-10.23,0,93.51,93.51,0,0,1,10.23,0Z" style="fill:#e0e0e0"></path><path d="M337.79,214.59c0,.07-2.3.13-5.15.13s-5.16-.06-5.16-.13a95,95,0,0,1,10.31,0Z" style="fill:#e0e0e0"></path><rect x="327.51" y="226.65" width="10.23" height="19.71" style="fill:#fff"></rect><path d="M332.91,246.36c-.07,0-.13-4.42-.13-9.86s.06-9.85.13-9.85.14,4.41.14,9.85S333,246.36,332.91,246.36Z" style="fill:#e0e0e0"></path><path d="M337.74,233.49a93.51,93.51,0,0,1-10.23,0,100.69,100.69,0,0,1,10.23,0Z" style="fill:#e0e0e0"></path><path d="M337.79,240.54a95,95,0,0,1-10.31,0c0-.07,2.31-.13,5.16-.13S337.79,240.47,337.79,240.54Z" style="fill:#e0e0e0"></path><rect x="327.51" y="252.6" width="10.23" height="19.71" style="fill:#fff"></rect><path d="M332.91,272.31c-.07,0-.13-4.41-.13-9.85s.06-9.86.13-9.86.14,4.41.14,9.86S333,272.31,332.91,272.31Z" style="fill:#e0e0e0"></path><path d="M337.74,259.45a93.51,93.51,0,0,1-10.23,0,93.51,93.51,0,0,1,10.23,0Z" style="fill:#e0e0e0"></path><path d="M337.79,266.5c0,.07-2.3.13-5.15.13s-5.16-.06-5.16-.13a95,95,0,0,1,10.31,0Z" style="fill:#e0e0e0"></path><rect x="327.51" y="278.56" width="10.23" height="19.71" style="fill:#fff"></rect><path d="M332.91,298.27c-.07,0-.13-4.41-.13-9.86s.06-9.85.13-9.85.14,4.41.14,9.85S333,298.27,332.91,298.27Z" style="fill:#e0e0e0"></path><path d="M337.74,285.41a100.69,100.69,0,0,1-10.23,0,93.51,93.51,0,0,1,10.23,0Z" style="fill:#e0e0e0"></path><path d="M337.79,292.45a95,95,0,0,1-10.31,0c0-.07,2.31-.13,5.16-.13S337.79,292.38,337.79,292.45Z" style="fill:#e0e0e0"></path><rect x="302.73" y="303.67" width="10.23" height="19.71" style="fill:#fff"></rect><path d="M308.13,323.38c-.08,0-.14-4.41-.14-9.86s.06-9.85.14-9.85.14,4.41.14,9.85S308.2,323.38,308.13,323.38Z" style="fill:#e0e0e0"></path><path d="M313,310.52a100.5,100.5,0,0,1-10.22,0,93.33,93.33,0,0,1,10.22,0Z" style="fill:#e0e0e0"></path><path d="M313,317.57c0,.07-2.31.13-5.16.13s-5.15-.06-5.15-.13a95,95,0,0,1,10.31,0Z" style="fill:#e0e0e0"></path><rect x="327.51" y="304.51" width="10.23" height="19.71" style="fill:#fff"></rect><path d="M332.91,324.22c-.07,0-.13-4.41-.13-9.85s.06-9.86.13-9.86.14,4.42.14,9.86S333,324.22,332.91,324.22Z" style="fill:#e0e0e0"></path><path d="M337.74,311.36a93.51,93.51,0,0,1-10.23,0,93.51,93.51,0,0,1,10.23,0Z" style="fill:#e0e0e0"></path><path d="M337.79,318.41a95,95,0,0,1-10.31,0,95,95,0,0,1,10.31,0Z" style="fill:#e0e0e0"></path><rect x="420.93" y="232.76" width="23.75" height="100.43" style="fill:#ebebeb"></rect><rect x="425.35" y="239.8" width="7.22" height="13.91" style="fill:#fff"></rect><path d="M429.16,253.71c-.05,0-.09-3.11-.09-7s0-7,.09-7,.1,3.12.1,7S429.22,253.71,429.16,253.71Z" style="fill:#e0e0e0"></path><path d="M432.57,244.64c0,.05-1.62.09-3.61.09s-3.61,0-3.61-.09a65.21,65.21,0,0,1,7.22,0Z" style="fill:#e0e0e0"></path><path d="M432.61,249.61a66.3,66.3,0,0,1-7.28,0,66.3,66.3,0,0,1,7.28,0Z" style="fill:#e0e0e0"></path><rect x="425.35" y="257.97" width="7.22" height="13.91" style="fill:#fff"></rect><path d="M429.16,271.88c-.05,0-.09-3.11-.09-6.95s0-7,.09-7,.1,3.12.1,7S429.22,271.88,429.16,271.88Z" style="fill:#e0e0e0"></path><path d="M432.57,262.81c0,.05-1.62.09-3.61.09s-3.61,0-3.61-.09a65.21,65.21,0,0,1,7.22,0Z" style="fill:#e0e0e0"></path><path d="M432.61,267.78a66.3,66.3,0,0,1-7.28,0,66.3,66.3,0,0,1,7.28,0Z" style="fill:#e0e0e0"></path><rect x="425.35" y="276.14" width="7.22" height="13.91" style="fill:#fff"></rect><path d="M429.16,290.05c-.05,0-.09-3.11-.09-6.95s0-7,.09-7,.1,3.12.1,7S429.22,290.05,429.16,290.05Z" style="fill:#e0e0e0"></path><path d="M432.57,281a65.21,65.21,0,0,1-7.22,0c0-.05,1.62-.09,3.61-.09S432.57,280.92,432.57,281Z" style="fill:#e0e0e0"></path><path d="M432.61,286a66.3,66.3,0,0,1-7.28,0,66.3,66.3,0,0,1,7.28,0Z" style="fill:#e0e0e0"></path><rect x="425.35" y="294.31" width="7.22" height="13.91" style="fill:#fff"></rect><path d="M429.16,308.22c-.05,0-.09-3.11-.09-7s0-7,.09-7,.1,3.12.1,7S429.22,308.22,429.16,308.22Z" style="fill:#e0e0e0"></path><path d="M432.57,299.14a65.21,65.21,0,0,1-7.22,0c0-.05,1.62-.09,3.61-.09S432.57,299.09,432.57,299.14Z" style="fill:#e0e0e0"></path><path d="M432.61,304.12a66.3,66.3,0,0,1-7.28,0,66.3,66.3,0,0,1,7.28,0Z" style="fill:#e0e0e0"></path><rect x="437.47" y="232.76" width="17.3" height="100.43" style="fill:#e0e0e0"></rect><rect x="442.84" y="239.8" width="7.22" height="13.91" style="fill:#fff"></rect><path d="M446.66,253.71c-.06,0-.1-3.11-.1-7s0-7,.1-7,.09,3.12.09,7S446.71,253.71,446.66,253.71Z" style="fill:#e0e0e0"></path><path d="M450.06,244.64a36.07,36.07,0,0,1-3.61.09c-2,0-3.61,0-3.61-.09a65.21,65.21,0,0,1,7.22,0Z" style="fill:#e0e0e0"></path><path d="M450.1,249.61a66.3,66.3,0,0,1-7.28,0,66.3,66.3,0,0,1,7.28,0Z" style="fill:#e0e0e0"></path><rect x="442.84" y="258.12" width="7.22" height="13.91" style="fill:#fff"></rect><path d="M446.66,272c-.06,0-.1-3.11-.1-6.95s0-7,.1-7,.09,3.11.09,7S446.71,272,446.66,272Z" style="fill:#e0e0e0"></path><path d="M450.06,263a65.21,65.21,0,0,1-7.22,0c0-.05,1.62-.09,3.61-.09A36.07,36.07,0,0,1,450.06,263Z" style="fill:#e0e0e0"></path><path d="M450.1,267.93a66.3,66.3,0,0,1-7.28,0,66.3,66.3,0,0,1,7.28,0Z" style="fill:#e0e0e0"></path><rect x="442.84" y="276.44" width="7.22" height="13.91" style="fill:#fff"></rect><path d="M446.66,290.35c-.06,0-.1-3.11-.1-7s0-7,.1-7,.09,3.11.09,7S446.71,290.35,446.66,290.35Z" style="fill:#e0e0e0"></path><path d="M450.06,281.27a65.21,65.21,0,0,1-7.22,0s1.62-.09,3.61-.09A36.07,36.07,0,0,1,450.06,281.27Z" style="fill:#e0e0e0"></path><path d="M450.1,286.25c0,.05-1.63.09-3.64.09s-3.64,0-3.64-.09a66.3,66.3,0,0,1,7.28,0Z" style="fill:#e0e0e0"></path><rect x="442.84" y="294.76" width="7.22" height="13.91" style="fill:#fff"></rect><path d="M446.66,308.67c-.06,0-.1-3.11-.1-7s0-6.95.1-6.95.09,3.11.09,6.95S446.71,308.67,446.66,308.67Z" style="fill:#e0e0e0"></path><path d="M450.06,299.59a65.21,65.21,0,0,1-7.22,0s1.62-.09,3.61-.09A36.07,36.07,0,0,1,450.06,299.59Z" style="fill:#e0e0e0"></path><path d="M450.1,304.57c0,.05-1.63.09-3.64.09s-3.64,0-3.64-.09a66.3,66.3,0,0,1,7.28,0Z" style="fill:#e0e0e0"></path><rect x="425.35" y="312.48" width="7.22" height="13.91" style="fill:#fff"></rect><path d="M429.16,326.39c-.05,0-.09-3.11-.09-6.95s0-7,.09-7,.1,3.12.1,7S429.22,326.39,429.16,326.39Z" style="fill:#e0e0e0"></path><path d="M432.57,317.31a65.21,65.21,0,0,1-7.22,0c0-.05,1.62-.09,3.61-.09S432.57,317.26,432.57,317.31Z" style="fill:#e0e0e0"></path><path d="M432.61,322.29a66.3,66.3,0,0,1-7.28,0,66.3,66.3,0,0,1,7.28,0Z" style="fill:#e0e0e0"></path><rect x="442.84" y="313.08" width="7.22" height="13.91" style="fill:#fff"></rect><path d="M446.66,327c-.06,0-.1-3.12-.1-7s0-6.95.1-6.95.09,3.11.09,6.95S446.71,327,446.66,327Z" style="fill:#e0e0e0"></path><path d="M450.06,317.91a65.21,65.21,0,0,1-7.22,0,65.21,65.21,0,0,1,7.22,0Z" style="fill:#e0e0e0"></path><path d="M450.1,322.89c0,.05-1.63.09-3.64.09s-3.64,0-3.64-.09a66.3,66.3,0,0,1,7.28,0Z" style="fill:#e0e0e0"></path><path d="M456.83,188.82c.49-3.51-4.47-6.4-8.2-6.7-1.77-.14-3.62.13-5.3-.46-3.65-1.27-5.1-6-8.66-7.48-2.66-1.12-5.72-.12-8.3,1.18s-5.13,2.93-8,3.11c-2.51.16-5.23-.77-7.42.46-1.64.91-2.49,2.79-4,3.9a9.49,9.49,0,0,1-5.22,1.42,14.81,14.81,0,0,0-5.39.88c-1.66.76-3,2.52-2.69,4.32Z" style="fill:#ebebeb"></path><path d="M207.06,41.79a29.63,29.63,0,0,1,7.23-3.14l1.5-7.16,12.09-.22,1.75,7.11A29.66,29.66,0,0,1,237,41.27l6.11-4,8.71,8.4L248,51.91a29.69,29.69,0,0,1,3.14,7.24l7.16,1.49.21,12.1-7.1,1.74a29.36,29.36,0,0,1-2.89,7.34l4,6.12-8.4,8.7-6.26-3.79A29.49,29.49,0,0,1,230.64,96l-1.49,7.16-12.1.21-1.74-7.1A29.75,29.75,0,0,1,208,93.38l-6.12,4L193.15,89l3.79-6.25a29.56,29.56,0,0,1-3.15-7.24L186.63,74l-.21-12.1,7.1-1.74a30.06,30.06,0,0,1,2.89-7.34l-4-6.11L200.81,38l6.25,3.79Zm6.45,16.12a13,13,0,1,0,18.35-.32A13,13,0,0,0,213.51,57.91Z" style="fill:#ebebeb"></path><path d="M109.55,354.88a33.4,33.4,0,0,1,8.13-3.53l1.67-8.05,13.6-.24,2,8a33.39,33.39,0,0,1,8.25,3.24l6.87-4.5,9.78,9.44-4.26,7a33.43,33.43,0,0,1,3.54,8.13l8,1.68.24,13.59-8,2a33.42,33.42,0,0,1-3.25,8.25l4.51,6.87-9.45,9.78-7-4.26A33.12,33.12,0,0,1,136,415.8l-1.67,8.05-13.6.23-2-8a32.88,32.88,0,0,1-8.25-3.25l-6.88,4.51-9.78-9.45,4.26-7a33.4,33.4,0,0,1-3.53-8.13l-8-1.68-.24-13.59,8-2a33.23,33.23,0,0,1,3.24-8.25l-4.5-6.87,9.44-9.79,7,4.26ZM116.8,373a14.59,14.59,0,1,0,20.62-.37A14.57,14.57,0,0,0,116.8,373Z" style="fill:#e0e0e0"></path><path d="M55.41,408.76a21.1,21.1,0,0,1,5.12-2.23l1.06-5.07,8.57-.15,1.24,5a21.16,21.16,0,0,1,5.2,2.05l4.33-2.84,6.17,5.95-2.69,4.43a21.17,21.17,0,0,1,2.23,5.13l5.07,1.05.15,8.58-5,1.23a20.48,20.48,0,0,1-2,5.2l2.84,4.33-6,6.17-4.43-2.68a20.76,20.76,0,0,1-5.13,2.22l-1,5.08-8.57.15-1.24-5a21,21,0,0,1-5.2-2l-4.33,2.84-6.17-6,2.69-4.43A20.72,20.72,0,0,1,46,432.64l-5.08-1.06L40.78,423l5-1.23a20.83,20.83,0,0,1,2-5.2L45,412.24l6-6.16,4.43,2.68ZM60,420.18A9.2,9.2,0,1,0,73,420,9.18,9.18,0,0,0,60,420.18Z" style="fill:#f5f5f5"></path><rect x="343.56" y="350.66" width="69.45" height="6.77" style="fill:#ebebeb"></rect></g><g id="freepik--Table--inject-73"><path d="M445.35,463c0,.14-92.39.26-206.34.26S32.65,463.11,32.65,463s92.37-.26,206.36-.26S445.35,462.83,445.35,463Z" style="fill:#263238"></path></g><g id="freepik--Plant--inject-73"><path d="M381.56,395.75a12.62,12.62,0,0,1,6.54,7.41,22.27,22.27,0,0,1,.87,10c-.74,6.51-4.44,13.08-8.43,18.29-5.48-4.79-6.74-13.14-7.12-17.41-.59-6.76,2.45-19.34,8.14-18.33" style="fill:#5F5F5F"></path><path d="M386.92,442.24A10.76,10.76,0,0,1,390.4,432a14.26,14.26,0,0,1,10.54-3.29c1.75.13,3.64.64,4.63,2.07a4.62,4.62,0,0,1,.08,4.67,9.26,9.26,0,0,1-3.46,3.4c-4.75,3-9.9,5-15.27,3.39" style="fill:#5F5F5F"></path><path d="M379.89,462.21a6.75,6.75,0,0,1,.19-1.34c.17-.94.4-2.16.66-3.62a37.88,37.88,0,0,1,3.74-11.55,23.08,23.08,0,0,1,8.29-8.81,15.86,15.86,0,0,1,3.38-1.5c.41-.14.75-.19,1-.25s.35-.06.35,0a21.49,21.49,0,0,0-12.58,10.83c-2.3,4.12-3.13,8.39-3.82,11.39-.33,1.52-.6,2.75-.81,3.59A8.31,8.31,0,0,1,379.89,462.21Z" style="fill:#263238"></path><path d="M380.09,405.53a2.45,2.45,0,0,1,.07.58c0,.44.06,1,.1,1.68.08,1.46.16,3.57.25,6.18.17,5.22.3,12.43.26,20.4s-.23,15.18-.44,20.4c-.11,2.61-.21,4.72-.3,6.18,0,.68-.09,1.24-.12,1.67a2.49,2.49,0,0,1-.07.59,3.91,3.91,0,0,1,0-.59c0-.43,0-1,0-1.68,0-1.52.09-3.62.15-6.18.13-5.22.27-12.43.31-20.39s-.05-15.17-.13-20.39c0-2.57-.07-4.66-.1-6.18,0-.69,0-1.25,0-1.68A4.44,4.44,0,0,1,380.09,405.53Z" style="fill:#263238"></path><path d="M377.43,446.2a25.21,25.21,0,0,0-13.75-18.45c-1.84-.88-4.23-1.45-5.74-.09s-1.17,3.82-.43,5.72a21.51,21.51,0,0,0,19.79,13.36" style="fill:#5F5F5F"></path><path d="M364.56,433.93a6,6,0,0,1,1.17.51,10.92,10.92,0,0,1,1.31.7,16.41,16.41,0,0,1,1.68,1.05,21.25,21.25,0,0,1,1.91,1.44,24.21,24.21,0,0,1,2,1.85,27.6,27.6,0,0,1,3.87,5,27,27,0,0,1,2.56,5.77,23,23,0,0,1,.64,2.68,20.34,20.34,0,0,1,.33,2.37,17.87,17.87,0,0,1,.09,2,11.4,11.4,0,0,1,0,1.49A7,7,0,0,1,380,460c-.11,0,.07-1.81-.24-4.69a23.27,23.27,0,0,0-.39-2.34,22.45,22.45,0,0,0-.67-2.62,26.53,26.53,0,0,0-6.32-10.57c-.68-.68-1.32-1.32-2-1.86s-1.28-1-1.86-1.47C366.17,434.77,364.52,434,364.56,433.93Z" style="fill:#263238"></path></g><g id="freepik--coffee-shop--inject-73"><rect x="331.83" y="258.14" width="96.04" height="74.88" style="fill:#f5f5f5"></rect><path d="M427.87,333s0-.47,0-1.38,0-2.24,0-4c0-3.5,0-8.62,0-15.16,0-13.06,0-31.77-.07-54.35l.14.15-96,0h0l.18-.18c0,27,0,52.53,0,74.88l-.16-.16,69.36.08,19.66,0,5.22,0h0l-5.18,0-19.63,0-69.46.08h-.15V333c0-22.35,0-47.88,0-74.88V258h.18l96,0H428v.14c0,22.62-.06,41.36-.08,54.44,0,6.52,0,11.64,0,15.13,0,1.73,0,3.06,0,4S427.87,333,427.87,333Z" style="fill:#263238"></path><polygon points="330.12 253.75 322.31 279.15 434.72 279.15 428.37 253.75 330.12 253.75" style="fill:#5F5F5F"></polygon><path d="M322.31,279.15a6.17,6.17,0,0,0,12.33,0Z" style="fill:#5F5F5F"></path><path d="M334.82,279.15a6.17,6.17,0,0,0,12.33,0Z" style="fill:#5F5F5F"></path><path d="M347.33,279.15a6.17,6.17,0,0,0,12.33,0Z" style="fill:#5F5F5F"></path><path d="M359.84,279.15a6.17,6.17,0,0,0,12.33,0Z" style="fill:#5F5F5F"></path><path d="M372.35,279.15a6.17,6.17,0,0,0,12.33,0Z" style="fill:#5F5F5F"></path><path d="M384.86,279.15a6.17,6.17,0,0,0,12.33,0Z" style="fill:#5F5F5F"></path><path d="M397.37,279.15a6.17,6.17,0,0,0,12.33,0Z" style="fill:#5F5F5F"></path><path d="M409.88,279.15a6.17,6.17,0,0,0,12.33,0Z" style="fill:#5F5F5F"></path><path d="M422.39,279.15a6.17,6.17,0,0,0,12.33,0Z" style="fill:#5F5F5F"></path><path d="M434.67,279.2c0,.1-25.13.18-56.12.18s-56.14-.08-56.14-.18,25.13-.17,56.14-.17S434.67,279.11,434.67,279.2Z" style="fill:#263238"></path><rect x="396.78" y="289.69" width="20.27" height="43.33" style="fill:#fff"></rect><path d="M417.05,289.69a1.39,1.39,0,0,1,0,.2c0,.15,0,.35,0,.61,0,.55,0,1.35,0,2.37,0,2.1,0,5.14.05,9,0,7.71.05,18.56.08,31.19v.17H396.79c-.36-.35-.1-.11-.18-.19h0V320.75c0-4,0-7.81,0-11.47,0-7.33,0-14,0-19.59v-.13h.13l14.87.07,4,0,1,0h0l-1.06,0-4.05,0-14.79.07.13-.13c0,5.63,0,12.26,0,19.59,0,3.66,0,7.5,0,11.47V333h0c-.08-.07.17.19-.17-.16h20.26l-.16.17c0-12.59.05-23.4.07-31.08,0-3.83,0-6.88.05-9,0-1,0-1.85,0-2.41v-.63A2,2,0,0,1,417.05,289.69Z" style="fill:#263238"></path><rect x="398.81" y="306.97" width="2.7" height="8.76" style="fill:#e0e0e0"></rect><path d="M403.47,320.23a131.27,131.27,0,0,1,8.15-11.16,66.71,66.71,0,0,1-3.93,5.68C405.44,317.83,403.55,320.28,403.47,320.23Z" style="fill:#263238"></path><path d="M407.26,319.28c-.07-.07,1.34-1.61,2.9-3.66s2.69-3.8,2.77-3.75a4.82,4.82,0,0,1-.62,1.23,30.67,30.67,0,0,1-1.88,2.74,29.82,29.82,0,0,1-2.15,2.52C407.69,319,407.3,319.32,407.26,319.28Z" style="fill:#263238"></path><rect x="334.82" y="293.77" width="9.34" height="3.63" style="fill:#fafafa"></rect><rect x="332" y="297.4" width="7.66" height="3.63" style="fill:#e0e0e0"></rect><rect x="357.64" y="320.26" width="9.34" height="3.63" style="fill:#fafafa"></rect><rect x="387.85" y="311.02" width="4.47" height="3.63" style="fill:#e0e0e0"></rect><rect x="417.21" y="307.52" width="8.74" height="3.63" style="fill:#e0e0e0"></rect><rect x="379.97" y="325.49" width="8.93" height="3.63" style="fill:#e0e0e0"></rect><rect x="333.75" y="322.07" width="8.93" height="3.63" style="fill:#fafafa"></rect><rect x="391.67" y="291.57" width="4.89" height="3.63" style="fill:#fafafa"></rect><rect x="352.73" y="323.88" width="9.22" height="3.63" style="fill:#e0e0e0"></rect><rect x="344.16" y="289.69" width="43.69" height="30.57" style="fill:#fff"></rect><path d="M387.85,320.26s0-.2,0-.57,0-.92,0-1.63c0-1.43,0-3.51,0-6.16,0-5.32,0-12.95-.07-22.21l.14.14-43.69,0h0l.17-.17c0,10.93,0,21.3,0,30.57l-.16-.16,31.47.07,9,.05,2.39,0h0l-2.36,0-9,0-31.57.08H344v-.16c0-9.27,0-19.64,0-30.57v-.18h.18l43.69,0H388v.14c0,9.3-.05,16.95-.07,22.3,0,2.64,0,4.71,0,6.13,0,.69,0,1.23,0,1.6S387.85,320.26,387.85,320.26Z" style="fill:#263238"></path><path d="M365.75,312.09a2.77,2.77,0,0,1,.43-.6c.29-.36.72-.89,1.27-1.53,1.09-1.28,2.63-3,4.38-4.92s3.36-3.57,4.55-4.77c.59-.59,1.08-1.07,1.42-1.39s.54-.5.56-.48a2.81,2.81,0,0,1-.46.57l-1.35,1.48-4.47,4.83-4.44,4.84-1.36,1.46A3.05,3.05,0,0,1,365.75,312.09Z" style="fill:#263238"></path><path d="M359.57,311.55c-.07-.07,2.37-2.59,5.44-5.63s5.62-5.45,5.69-5.38-2.37,2.59-5.44,5.63S359.64,311.62,359.57,311.55Z" style="fill:#263238"></path><path d="M358.1,305.92a25.69,25.69,0,0,1,2.62-3.09A24.16,24.16,0,0,1,363.6,300a23.06,23.06,0,0,1-2.62,3.09A22.48,22.48,0,0,1,358.1,305.92Z" style="fill:#263238"></path><path d="M334.64,279.15c-.1,0,.91-5.72,2.25-12.73s2.5-12.69,2.6-12.67-.91,5.71-2.25,12.73S334.73,279.17,334.64,279.15Z" style="fill:#263238"></path><path d="M347.26,279.15c-.1,0,.91-5.72,2.25-12.73s2.5-12.69,2.6-12.67-.91,5.71-2.25,12.73S347.35,279.17,347.26,279.15Z" style="fill:#263238"></path><path d="M359.88,279.15c-.1,0,.91-5.72,2.25-12.73s2.5-12.69,2.6-12.67-.92,5.71-2.26,12.73S360,279.17,359.88,279.15Z" style="fill:#263238"></path><path d="M372.5,279.15c-.1,0,.57-5.65,1.49-12.6S375.74,254,375.84,254s-.58,5.65-1.5,12.6S372.59,279.16,372.5,279.15Z" style="fill:#263238"></path><path d="M385.11,279.15c-.09,0,.44-5.65,1.2-12.59S387.75,254,387.85,254s-.44,5.65-1.19,12.59S385.21,279.16,385.11,279.15Z" style="fill:#263238"></path><path d="M397.73,279.15c-.09,0,.2-5.64.65-12.59s.9-12.57,1-12.56-.19,5.64-.65,12.59S397.83,279.16,397.73,279.15Z" style="fill:#263238"></path><path d="M410.35,279.15c-.09,0-.48-5.61-.85-12.54s-.6-12.55-.5-12.56.48,5.61.85,12.54S410.45,279.15,410.35,279.15Z" style="fill:#263238"></path><path d="M423,279.15c-.09,0-1.18-5.59-2.42-12.52s-2.18-12.56-2.08-12.58,1.18,5.59,2.42,12.52S423.07,279.13,423,279.15Z" style="fill:#263238"></path><rect x="346.2" y="233.57" width="64.18" height="20.18" style="fill:#455a64"></rect><path d="M354,244.56a5.22,5.22,0,0,1,5.56-5.24,5.32,5.32,0,0,1,4.34,1.9l-1.82,1.64a3,3,0,0,0-2.38-1.18,2.89,2.89,0,0,0,0,5.77,3,3,0,0,0,2.38-1.18l1.82,1.64a5.32,5.32,0,0,1-4.34,1.9A5.22,5.22,0,0,1,354,244.56Z" style="fill:#fff"></path><path d="M364.28,245.69c0-2.35,1.86-4,4.41-4s4.42,1.67,4.42,4-1.83,4.05-4.42,4.05A4.1,4.1,0,0,1,364.28,245.69Zm6.06,0a1.66,1.66,0,1,0-1.65,1.87A1.65,1.65,0,0,0,370.34,245.69Z" style="fill:#fff"></path><path d="M377.36,242.08h1.86v2h-1.78v5.48H374.7v-5.48h-1.14v-2h1.14v-.2a2.93,2.93,0,0,1,3.25-3.1,3.66,3.66,0,0,1,1.82.41l-.68,1.93a1.74,1.74,0,0,0-.82-.23c-.58,0-.91.33-.91,1Z" style="fill:#fff"></path><path d="M383.22,242.08h1.86v2h-1.79v5.48h-2.74v-5.48h-1.14v-2h1.14v-.2a2.94,2.94,0,0,1,3.26-3.1,3.68,3.68,0,0,1,1.82.41l-.68,1.93a1.74,1.74,0,0,0-.82-.23c-.58,0-.91.33-.91,1Z" style="fill:#fff"></path><path d="M394,246.4h-5.68a1.81,1.81,0,0,0,1.92,1.25A2.52,2.52,0,0,0,392,247l1.44,1.5a4.22,4.22,0,0,1-3.33,1.27c-2.78,0-4.59-1.71-4.59-4.05a4,4,0,0,1,4.3-4,3.91,3.91,0,0,1,4.18,4.05C394,245.92,394,246.18,394,246.4ZM388.22,245h3.21a1.63,1.63,0,0,0-3.21,0Z" style="fill:#fff"></path><path d="M403.21,246.4h-5.68a1.81,1.81,0,0,0,1.92,1.25,2.52,2.52,0,0,0,1.8-.68l1.44,1.5a4.22,4.22,0,0,1-3.33,1.27c-2.78,0-4.59-1.71-4.59-4.05a4,4,0,0,1,4.3-4,3.91,3.91,0,0,1,4.18,4.05C403.25,245.92,403.22,246.18,403.21,246.4ZM397.48,245h3.21a1.63,1.63,0,0,0-3.21,0Z" style="fill:#fff"></path><path d="M464.45,333.2c0,.14-39.72.26-88.72.26S287,333.34,287,333.2s39.72-.26,88.73-.26S464.45,333.05,464.45,333.2Z" style="fill:#263238"></path></g><g id="freepik--Device--inject-73"><path d="M182,372.28l-113.28-.07A24.65,24.65,0,0,1,44,347.6l.06-283.2A24.65,24.65,0,0,1,68.76,39.8l113.29.07a24.64,24.64,0,0,1,24.66,24.61l-.06,283.2A24.65,24.65,0,0,1,182,372.28Z" style="fill:#455a64"></path><path d="M182.75,48.31l-22-.1a5.47,5.47,0,0,0-5.37,5.57l0,4A5.47,5.47,0,0,1,150,63.35l-43-.2a5.47,5.47,0,0,1-5.33-5.62v-4a5.48,5.48,0,0,0-5.32-5.62l-7.76,0L69.3,47.79A17.34,17.34,0,0,0,51.88,65.06L50.71,343.23A17.33,17.33,0,0,0,68,360.64l113.45.53a17.34,17.34,0,0,0,17.42-17.27L200,65.73A17.35,17.35,0,0,0,182.75,48.31Z" style="fill:#fff"></path><path d="M95.55,93.34v2.15H93.86V93.32L91.57,89.5h1.79l1.42,2.38L96.2,89.5h1.64Z" style="fill:#5F5F5F"></path><path d="M97.7,92.49A3.34,3.34,0,1,1,101,95.61,3.14,3.14,0,0,1,97.7,92.49Zm5,0A1.62,1.62,0,1,0,101,94.21,1.61,1.61,0,0,0,102.65,92.49Z" style="fill:#5F5F5F"></path><path d="M105.2,92.82V89.5h1.7v3.27c0,1,.42,1.44,1.13,1.44s1.13-.42,1.13-1.44V89.5h1.67v3.32a2.82,2.82,0,0,1-5.63,0Z" style="fill:#5F5F5F"></path><path d="M114.6,93.9h-.93v1.59H112v-6h2.74c1.63,0,2.66.85,2.66,2.21a2,2,0,0,1-1.17,1.9l1.29,1.88h-1.82Zm0-3.07h-.94v1.76h.94c.71,0,1.06-.33,1.06-.88S115.32,90.83,114.61,90.83Z" style="fill:#5F5F5F"></path><path d="M120.49,92.49a3.34,3.34,0,1,1,3.33,3.12A3.13,3.13,0,0,1,120.49,92.49Zm5,0a1.62,1.62,0,1,0-1.62,1.72A1.61,1.61,0,0,0,125.44,92.49Z" style="fill:#5F5F5F"></path><path d="M130.66,93.9h-.93v1.59H128v-6h2.74c1.63,0,2.66.85,2.66,2.21a2,2,0,0,1-1.17,1.9l1.29,1.88h-1.82Zm0-3.07h-.94v1.76h.94c.71,0,1.06-.33,1.06-.88S131.38,90.83,130.67,90.83Z" style="fill:#5F5F5F"></path><path d="M134.37,89.5h2.83c2,0,3.35,1.15,3.35,3s-1.36,3-3.35,3h-2.83Zm2.76,4.64a1.65,1.65,0,1,0,0-3.29h-1.07v3.29Z" style="fill:#5F5F5F"></path><path d="M146.25,94.18v1.31h-4.81v-6h4.7v1.31h-3v1h2.67v1.26h-2.67v1.1Z" style="fill:#5F5F5F"></path><path d="M149.81,93.9h-.93v1.59h-1.69v-6h2.73c1.64,0,2.67.85,2.67,2.21a2,2,0,0,1-1.18,1.9l1.3,1.88h-1.82Zm0-3.07h-.94v1.76h.94c.7,0,1.06-.33,1.06-.88S150.52,90.83,149.82,90.83Z" style="fill:#5F5F5F"></path><path d="M89.05,209H87.21v-1.35h5.36V209H90.74v4.64H89.05Z" style="fill:#263238"></path><path d="M92.81,210.63a3.34,3.34,0,1,1,3.33,3.11A3.13,3.13,0,0,1,92.81,210.63Zm5,0a1.62,1.62,0,1,0-1.62,1.71A1.6,1.6,0,0,0,97.76,210.63Z" style="fill:#263238"></path><path d="M101.55,209H99.71v-1.35h5.36V209h-1.83v4.64h-1.69Z" style="fill:#263238"></path><path d="M109.42,212.46h-2.53l-.47,1.16h-1.73l2.64-6H109l2.66,6h-1.77Zm-.5-1.25-.77-1.92-.77,1.92Z" style="fill:#263238"></path><path d="M112.13,207.63h1.7v4.65h2.86v1.34h-4.56Z" style="fill:#263238"></path><path d="M117.15,209.87a1,1,0,0,1,2,0,1,1,0,0,1-2,0Zm0,2.86a1,1,0,0,1,2,0,1,1,0,0,1-2,0Z" style="fill:#263238"></path><path d="M168.8,215.78v1.64H167v-1.58a7.83,7.83,0,0,1-3.73-1.12l1-2.15a6.44,6.44,0,0,0,3.4,1c1.21,0,1.68-.34,1.68-.84,0-1.63-5.86-.44-5.86-4.27,0-1.62,1.16-3,3.55-3.28v-1.62h1.76v1.59a7.11,7.11,0,0,1,3,.87l-.9,2.16a6.05,6.05,0,0,0-2.85-.8c-1.22,0-1.67.42-1.67.93,0,1.58,5.85.4,5.85,4.2C172.22,214.09,171.1,215.44,168.8,215.78Z" style="fill:#263238"></path><path d="M178.33,215.78v1.64h-1.76v-1.58a7.83,7.83,0,0,1-3.73-1.12l1-2.15a6.44,6.44,0,0,0,3.4,1c1.21,0,1.68-.34,1.68-.84,0-1.63-5.86-.44-5.86-4.27,0-1.62,1.16-3,3.55-3.28v-1.62h1.76v1.59a7.11,7.11,0,0,1,3,.87l-.9,2.16a6.05,6.05,0,0,0-2.85-.8c-1.22,0-1.67.42-1.67.93,0,1.58,5.85.4,5.85,4.2C181.75,214.09,180.63,215.44,178.33,215.78Z" style="fill:#263238"></path><circle cx="72.68" cy="91.97" r="11.4" style="fill:#5F5F5F"></circle><circle cx="72.68" cy="178.05" r="11.4" style="fill:#5F5F5F"></circle><path d="M97.74,176.54c0,1.36-1,2.21-2.66,2.21H94v1.57H92.34v-6h2.74C96.71,174.32,97.74,175.17,97.74,176.54Zm-1.71,0c0-.55-.35-.88-1-.88H94v1.75h1C95.68,177.41,96,177.09,96,176.54Z" style="fill:#5F5F5F"></path><path d="M102.28,179.15H99.74l-.47,1.17H97.54l2.65-6h1.67l2.65,6h-1.76Zm-.5-1.25L101,176l-.77,1.91Z" style="fill:#5F5F5F"></path><path d="M107.82,178.17v2.15h-1.69v-2.18l-2.29-3.82h1.79l1.42,2.38,1.42-2.38h1.64Z" style="fill:#5F5F5F"></path><rect x="84.83" y="295.49" width="52.33" height="40.8" style="fill:#ebebeb"></rect><path d="M137.16,336.28s0-.25,0-.75,0-1.22,0-2.17c0-1.91,0-4.7,0-8.26,0-7.12,0-17.31,0-29.61l.08.08H84.83l.1-.09c0,14.7,0,28.61,0,40.79l-.09-.08,37.79,0,10.71,0h2.86l-2.82,0-10.7,0-37.84,0h-.09v-.09c0-12.18,0-26.09,0-40.79v-.1h.1l52.33,0h.08v.08c0,12.32,0,22.53,0,29.66,0,3.55,0,6.34,0,8.24,0,.94,0,1.67,0,2.16S137.16,336.28,137.16,336.28Z" style="fill:#263238"></path><polygon points="83.9 293.09 79.64 306.93 140.89 306.93 137.43 293.09 83.9 293.09" style="fill:#5F5F5F"></polygon><path d="M79.64,306.93a3.36,3.36,0,0,0,6.72,0Z" style="fill:#5F5F5F"></path><path d="M86.46,306.93a3.36,3.36,0,0,0,6.71,0Z" style="fill:#5F5F5F"></path><path d="M93.27,306.93a3.36,3.36,0,0,0,6.72,0Z" style="fill:#5F5F5F"></path><path d="M100.09,306.93a3.36,3.36,0,0,0,6.72,0Z" style="fill:#5F5F5F"></path><path d="M106.91,306.93a3.36,3.36,0,0,0,6.71,0Z" style="fill:#5F5F5F"></path><path d="M113.72,306.93a3.36,3.36,0,0,0,6.72,0Z" style="fill:#5F5F5F"></path><path d="M120.54,306.93a3.36,3.36,0,0,0,6.71,0Z" style="fill:#5F5F5F"></path><path d="M127.35,306.93a3.36,3.36,0,0,0,6.72,0Z" style="fill:#5F5F5F"></path><path d="M134.17,306.93a3.36,3.36,0,0,0,6.72,0Z" style="fill:#5F5F5F"></path><path d="M140.86,307c0,.05-13.69.1-30.58.1S79.7,307,79.7,307s13.69-.09,30.58-.09S140.86,306.91,140.86,307Z" style="fill:#263238"></path><rect x="120.22" y="312.67" width="11.04" height="23.61" style="fill:#fff"></rect><path d="M131.26,312.67a.5.5,0,0,1,0,.11v.33c0,.31,0,.74,0,1.3,0,1.14,0,2.8,0,4.88,0,4.2,0,10.11,0,17v.1H120.22l-.1-.1h0V329.6c0-2.17,0-4.26,0-6.25,0-4,0-7.61,0-10.68v-.07h.07l8.1,0,2.19,0h0l-2.2,0-8.06,0,.07-.07c0,3.07,0,6.69,0,10.68v12.91h0l-.09-.09h11l-.09.09c0-6.85,0-12.74,0-16.93,0-2.09,0-3.75,0-4.9,0-.57,0-1,0-1.31,0-.15,0-.26,0-.35Z" style="fill:#263238"></path><rect x="121.32" y="322.09" width="1.47" height="4.77" style="fill:#e0e0e0"></rect><path d="M123.86,329.31s.92-1.41,2.14-3.09,2.26-3,2.3-3a32.25,32.25,0,0,1-2.14,3.1C124.93,328,123.9,329.34,123.86,329.31Z" style="fill:#263238"></path><path d="M125.93,328.8s.72-.88,1.57-2,1.47-2.07,1.52-2a3,3,0,0,1-.34.67,16.22,16.22,0,0,1-1,1.49c-.43.56-.86,1-1.18,1.38A2.55,2.55,0,0,1,125.93,328.8Z" style="fill:#263238"></path><rect x="86.46" y="314.9" width="5.09" height="1.98" style="fill:#f5f5f5"></rect><rect x="84.92" y="316.87" width="4.17" height="1.98" style="fill:#e0e0e0"></rect><rect x="98.89" y="329.33" width="5.09" height="1.98" style="fill:#f5f5f5"></rect><rect x="115.35" y="324.3" width="2.43" height="1.98" style="fill:#e0e0e0"></rect><rect x="131.35" y="322.39" width="4.76" height="1.98" style="fill:#e0e0e0"></rect><rect x="111.06" y="332.18" width="4.87" height="1.98" style="fill:#e0e0e0"></rect><rect x="85.87" y="330.32" width="4.87" height="1.98" style="fill:#f5f5f5"></rect><rect x="117.43" y="313.7" width="2.66" height="1.98" style="fill:#f5f5f5"></rect><rect x="96.22" y="331.31" width="5.02" height="1.98" style="fill:#e0e0e0"></rect><rect x="91.54" y="312.67" width="23.81" height="16.65" style="fill:#fff"></rect><path d="M115.35,329.33s0-.11,0-.31,0-.5,0-.88c0-.78,0-1.92,0-3.36,0-2.9,0-7.06,0-12.11l.08.08-23.8,0h0l.1-.1c0,6,0,11.61,0,16.66l-.09-.09,17.15,0,4.9,0h0l-4.88,0-17.21.05h-.08v-.09c0-5.05,0-10.7,0-16.66v-.09h.1l23.8,0h.08v.07c0,5.07,0,9.24,0,12.15,0,1.44,0,2.57,0,3.35,0,.37,0,.66,0,.87S115.35,329.33,115.35,329.33Z" style="fill:#263238"></path><path d="M103.31,324.88a1.47,1.47,0,0,1,.23-.32c.16-.21.4-.49.7-.84.59-.7,1.43-1.65,2.38-2.68s1.83-2,2.48-2.6l.78-.76a1.67,1.67,0,0,1,.3-.26,1.51,1.51,0,0,1-.25.31l-.73.81c-.66.7-1.5,1.62-2.44,2.63l-2.42,2.64-.74.79A1.61,1.61,0,0,1,103.31,324.88Z" style="fill:#263238"></path><path d="M99.94,324.59s1.29-1.41,3-3.07,3.06-3,3.09-2.93-1.29,1.41-3,3.07S100,324.62,99.94,324.59Z" style="fill:#263238"></path><path d="M99.14,321.52a13,13,0,0,1,1.43-1.68,13.2,13.2,0,0,1,1.57-1.56,24.69,24.69,0,0,1-3,3.24Z" style="fill:#263238"></path><path d="M86.36,306.93s.5-3.11,1.23-6.94,1.36-6.91,1.41-6.9-.5,3.12-1.23,6.94S86.41,306.94,86.36,306.93Z" style="fill:#263238"></path><path d="M93.23,306.93s.5-3.11,1.23-6.94,1.36-6.91,1.42-6.9-.5,3.12-1.23,6.94S93.29,306.94,93.23,306.93Z" style="fill:#263238"></path><path d="M100.11,306.93s.5-3.11,1.23-6.94,1.36-6.91,1.41-6.9-.5,3.12-1.23,6.94S100.16,306.94,100.11,306.93Z" style="fill:#263238"></path><path d="M107,306.93c-.06,0,.31-3.08.81-6.86s1-6.85,1-6.84-.31,3.08-.81,6.86S107,306.94,107,306.93Z" style="fill:#263238"></path><path d="M113.86,306.93s.24-3.08.65-6.86.79-6.85.84-6.84-.24,3.08-.65,6.86S113.91,306.94,113.86,306.93Z" style="fill:#263238"></path><path d="M120.74,306.93c-.06,0,.1-3.07.35-6.86s.49-6.85.54-6.84-.1,3.07-.35,6.86S120.79,306.94,120.74,306.93Z" style="fill:#263238"></path><path d="M127.61,306.93s-.26-3.05-.46-6.83-.33-6.84-.28-6.84.26,3.05.47,6.83S127.66,306.93,127.61,306.93Z" style="fill:#263238"></path><path d="M134.49,306.93c-.05,0-.65-3-1.32-6.82s-1.19-6.84-1.14-6.85.65,3,1.32,6.82S134.54,306.92,134.49,306.93Z" style="fill:#263238"></path><rect x="92.65" y="282.1" width="34.97" height="10.99" style="fill:#455a64"></rect><path d="M96.9,288.09a2.84,2.84,0,0,1,3-2.86,2.92,2.92,0,0,1,2.37,1l-1,.9a1.62,1.62,0,0,0-1.3-.64,1.57,1.57,0,0,0,0,3.14,1.63,1.63,0,0,0,1.3-.65l1,.9a2.9,2.9,0,0,1-2.37,1A2.84,2.84,0,0,1,96.9,288.09Z" style="fill:#fff"></path><path d="M102.51,288.7a2.41,2.41,0,1,1,2.41,2.21A2.22,2.22,0,0,1,102.51,288.7Zm3.3,0a.9.9,0,1,0-1.79,0,.9.9,0,1,0,1.79,0Z" style="fill:#fff"></path><path d="M109.64,286.74h1v1.11h-1v3h-1.5v-3h-.62v-1.11h.62v-.11a1.6,1.6,0,0,1,1.78-1.69,2,2,0,0,1,1,.22l-.37,1a1,1,0,0,0-.45-.13c-.31,0-.49.18-.49.56Z" style="fill:#fff"></path><path d="M112.83,286.74h1v1.11h-1v3h-1.49v-3h-.63v-1.11h.63v-.11a1.59,1.59,0,0,1,1.77-1.69,2,2,0,0,1,1,.22l-.37,1a1,1,0,0,0-.45-.13c-.31,0-.49.18-.49.56Z" style="fill:#fff"></path><path d="M118.68,289.09h-3.1a1,1,0,0,0,1,.68,1.38,1.38,0,0,0,1-.37l.78.82a2.31,2.31,0,0,1-1.81.69,2.26,2.26,0,0,1-2.5-2.21,2.2,2.2,0,0,1,2.34-2.19,2.13,2.13,0,0,1,2.28,2.21C118.7,288.83,118.68,289,118.68,289.09Zm-3.12-.79h1.74a.88.88,0,0,0-1.74,0Z" style="fill:#fff"></path><path d="M123.72,289.09h-3.09a1,1,0,0,0,1,.68,1.36,1.36,0,0,0,1-.37l.79.82a2.34,2.34,0,0,1-1.82.69,2.26,2.26,0,0,1-2.5-2.21,2.2,2.2,0,0,1,2.35-2.19,2.14,2.14,0,0,1,2.28,2.21C123.75,288.83,123.73,289,123.72,289.09Zm-3.12-.79h1.75a.89.89,0,0,0-1.75,0Z" style="fill:#fff"></path><path d="M92.15,264.4c0,1.36-1,2.21-2.66,2.21h-1v1.57H86.75v-6h2.74C91.12,262.18,92.15,263,92.15,264.4Zm-1.71,0c0-.56-.35-.88-1-.88h-1v1.75h1C90.09,265.27,90.44,265,90.44,264.4Z" style="fill:#e0e0e0"></path><path d="M93,262.18h1.69v6H93Z" style="fill:#e0e0e0"></path><path d="M95.56,265.18a3.11,3.11,0,0,1,3.3-3.12,3.18,3.18,0,0,1,2.57,1.13l-1.07,1a1.79,1.79,0,0,0-1.42-.7,1.71,1.71,0,0,0,0,3.42,1.79,1.79,0,0,0,1.42-.7l1.07,1a3.18,3.18,0,0,1-2.57,1.13A3.11,3.11,0,0,1,95.56,265.18Z" style="fill:#e0e0e0"></path><path d="M104.5,266l-.64.68v1.5h-1.68v-6h1.68v2.49l2.32-2.49h1.87l-2.45,2.66,2.58,3.34h-2Z" style="fill:#e0e0e0"></path><path d="M111.06,265.5v-3.32h1.69v3.27c0,1,.43,1.44,1.14,1.44s1.13-.41,1.13-1.44v-3.27h1.67v3.32a2.82,2.82,0,0,1-5.63,0Z" style="fill:#e0e0e0"></path><path d="M123.24,264.4c0,1.36-1,2.21-2.67,2.21h-1v1.57h-1.7v-6h2.74C122.21,262.18,123.24,263,123.24,264.4Zm-1.72,0c0-.56-.35-.88-1-.88h-.94v1.75h.94C121.17,265.27,121.52,265,121.52,264.4Z" style="fill:#e0e0e0"></path><path d="M126.63,262.18h1.69v6h-1.69Z" style="fill:#e0e0e0"></path><path d="M135.23,262.18v6h-1.39l-2.65-3.2v3.2h-1.66v-6h1.4l2.64,3.2v-3.2Z" style="fill:#e0e0e0"></path><path d="M136.06,264.42a1,1,0,1,1,1,1A.94.94,0,0,1,136.06,264.42Zm0,2.86a1,1,0,0,1,1.95,0,1,1,0,0,1-1.95,0Z" style="fill:#e0e0e0"></path><path d="M179.49,301.56c0,.14-7.38.26-16.49.26s-16.49-.12-16.49-.26,7.38-.26,16.49-.26S179.49,301.41,179.49,301.56Z" style="fill:#263238"></path><path d="M179.49,309.05c0,.14-7.38.26-16.49.26s-16.49-.12-16.49-.26,7.38-.26,16.49-.26S179.49,308.9,179.49,309.05Z" style="fill:#263238"></path><path d="M165.92,316.54a91.8,91.8,0,0,1-9.7.26,92.08,92.08,0,0,1-9.71-.26,89,89,0,0,1,9.71-.26A88.68,88.68,0,0,1,165.92,316.54Z" style="fill:#263238"></path><path d="M153.53,116.66c0,.14-6,.26-13.36.26s-13.36-.12-13.36-.26,6-.26,13.36-.26S153.53,116.51,153.53,116.66Z" style="fill:#263238"></path><path d="M147.9,123.88c0,.14-4.72.26-10.54.26s-10.55-.12-10.55-.26a104.86,104.86,0,0,1,10.55-.26A104.73,104.73,0,0,1,147.9,123.88Z" style="fill:#263238"></path><path d="M168.8,126.83v1.64H167v-1.58a7.87,7.87,0,0,1-3.73-1.12l1-2.15a6.44,6.44,0,0,0,3.4,1c1.21,0,1.68-.34,1.68-.84,0-1.63-5.86-.44-5.86-4.27,0-1.62,1.16-3,3.55-3.28v-1.62h1.76v1.59a7.11,7.11,0,0,1,3,.87l-.9,2.16a6.05,6.05,0,0,0-2.85-.8c-1.22,0-1.67.42-1.67.93,0,1.58,5.85.4,5.85,4.2C172.22,125.14,171.1,126.49,168.8,126.83Z" style="fill:#263238"></path><path d="M178.33,126.83v1.64h-1.76v-1.58a7.87,7.87,0,0,1-3.73-1.12l1-2.15a6.44,6.44,0,0,0,3.4,1c1.21,0,1.68-.34,1.68-.84,0-1.63-5.86-.44-5.86-4.27,0-1.62,1.16-3,3.55-3.28v-1.62h1.76v1.59a7.11,7.11,0,0,1,3,.87l-.9,2.16a6.05,6.05,0,0,0-2.85-.8c-1.22,0-1.67.42-1.67.93,0,1.58,5.85.4,5.85,4.2C181.75,125.14,180.63,126.49,178.33,126.83Z" style="fill:#263238"></path><rect x="93.25" y="110.1" width="26.43" height="26.43" rx="4.64" style="fill:#5F5F5F"></rect><path d="M109.47,130.32h-6.06a.51.51,0,0,1-.5-.41l-1.74-9.28a.5.5,0,0,1,.49-.59h9.55a.5.5,0,0,1,.49.59L110,129.91A.51.51,0,0,1,109.47,130.32Zm-5.65-1h5.23l1.56-8.28h-8.34Z" style="fill:#fff"></path><path d="M112.63,120.77H99.88a.51.51,0,0,1-.5-.5.5.5,0,0,1,.5-.5h12.75a.5.5,0,0,1,.5.5A.5.5,0,0,1,112.63,120.77Z" style="fill:#fff"></path><path d="M101.24,120.77a.39.39,0,0,1-.18,0,.49.49,0,0,1-.29-.64l1.31-3.44a.51.51,0,0,1,.55-.32l7.6,1.16a.52.52,0,0,1,.39.3l.87,2a.5.5,0,0,1-.26.66.5.5,0,0,1-.66-.26l-.76-1.76-6.94-1.06-1.16,3.07A.52.52,0,0,1,101.24,120.77Z" style="fill:#fff"></path><path d="M107.87,124.1a.82.82,0,0,0-1-.37,2.43,2.43,0,0,0-.93.59,1.46,1.46,0,0,0-.46,1,.94.94,0,0,0,.51.9,1.3,1.3,0,0,0,1.31-.32,1.83,1.83,0,0,0,.61-.8A1,1,0,0,0,107.87,124.1Z" style="fill:#fff"></path><path d="M105.66,126.23a.12.12,0,0,1-.09,0,.13.13,0,0,1,0-.18,18.31,18.31,0,0,1,1.57-1.48.12.12,0,0,1,.16.19c-.54.46-1.06,1-1.55,1.46A.12.12,0,0,1,105.66,126.23Z" style="fill:#5F5F5F"></path><rect x="71.34" y="91.97" width="2" height="148.7" style="fill:#5F5F5F"></rect><path d="M71.78,96.09l-4.67-3.91a.15.15,0,0,1,0-.22l1.23-1.47a.15.15,0,0,1,.22,0l3,2.55a.16.16,0,0,0,.22,0l4.82-5.14a.17.17,0,0,1,.23,0l1.39,1.31a.15.15,0,0,1,0,.22L72,96.07A.16.16,0,0,1,71.78,96.09Z" style="fill:#fff"></path><path d="M71.78,182.16l-4.67-3.9a.15.15,0,0,1,0-.22l1.23-1.47a.15.15,0,0,1,.22,0l3,2.55a.16.16,0,0,0,.22,0L76.63,174a.17.17,0,0,1,.23,0l1.39,1.31a.15.15,0,0,1,0,.22L72,182.15A.14.14,0,0,1,71.78,182.16Z" style="fill:#fff"></path><rect x="71.34" y="235.99" width="2" height="30.57" style="fill:#e0e0e0"></rect><path d="M78.36,264.05a6,6,0,1,1-6-6A6,6,0,0,1,78.36,264.05Z" style="fill:#e0e0e0"></path></g><g id="freepik--speech-bubble--inject-73"><path d="M360,133.45a36,36,0,0,0,18,64.33L384.36,208l6.14-11A36,36,0,1,0,360,133.45Z" style="fill:#fff"></path><path d="M360,133.45l.49-.37L362,132l1.09-.76,1.41-.79,1.63-.92,2-.86a39.94,39.94,0,0,1,4.75-1.68l2.81-.61a10.56,10.56,0,0,1,1.51-.23l1.58-.18a36,36,0,0,1,35.17,18.76,18.28,18.28,0,0,1,1.15,2.3c.33.79.68,1.59,1,2.39a40.67,40.67,0,0,1,1.43,5.12,36.54,36.54,0,0,1-2.25,22.05A36.92,36.92,0,0,1,399.08,194a36.25,36.25,0,0,1-8.52,3.23l.17-.12-6.15,11-.21.38-.23-.37c-2.17-3.51-4.3-6.93-6.36-10.25l.19.12a35.89,35.89,0,0,1-23-11.9,26.74,26.74,0,0,1-2.5-3.19l-1.14-1.64c-.36-.55-.64-1.14-1-1.71A35.88,35.88,0,0,1,346,165.73a36.89,36.89,0,0,1,.88-12.45c.26-.92.51-1.81.76-2.68l.95-2.46a20.23,20.23,0,0,1,1-2.25c.38-.7.68-1.42,1.09-2a37,37,0,0,1,4.53-6.1l1.92-2,1.54-1.29.94-.78.33-.25-.3.29-.92.81-1.5,1.31-1.89,2A37.2,37.2,0,0,0,351,144c-.4.62-.69,1.34-1.06,2a18.36,18.36,0,0,0-1,2.24l-.93,2.44c-.24.86-.48,1.75-.73,2.66a36.65,36.65,0,0,0-.82,12.35,35.49,35.49,0,0,0,4.36,13.69c.32.55.6,1.14,1,1.68l1.12,1.61a28.45,28.45,0,0,0,2.48,3.16,36.69,36.69,0,0,0,6.22,5.51A36,36,0,0,0,378,197.53h.12l.07.11,6.37,10.24h-.44l6.13-11,.06-.1.11,0A35.72,35.72,0,0,0,417,154.65a40,40,0,0,0-1.4-5.05l-1-2.36a15.49,15.49,0,0,0-1.13-2.27A35.67,35.67,0,0,0,393,127.88a36.76,36.76,0,0,0-14.3-1.6l-1.56.17a9.19,9.19,0,0,0-1.5.22l-2.8.58a40,40,0,0,0-4.73,1.62l-2,.84-1.64.89-1.41.77-1.1.74-1.5,1Z" style="fill:#263238"></path><path d="M382.87,184.12a21,21,0,0,1,0-41.9,20.71,20.71,0,0,1,15.13,6.5,1,1,0,0,1-1.45,1.38,18.7,18.7,0,0,0-13.68-5.88,18.92,18.92,0,1,0,17.9,12.88,1,1,0,1,1,1.9-.64,21,21,0,0,1-19.8,27.66Z" style="fill:#455a64"></path><path d="M404.51,156.86a3,3,0,1,1-2.95-3A3,3,0,0,1,404.51,156.86Z" style="fill:#455a64"></path><path d="M382,170.58l-8.38-7a.29.29,0,0,1,0-.4l2.21-2.64a.29.29,0,0,1,.4,0l5.48,4.6a.28.28,0,0,0,.39,0l8.66-9.25a.28.28,0,0,1,.4,0l2.51,2.36a.3.3,0,0,1,0,.41l-11.25,12A.29.29,0,0,1,382,170.58Z" style="fill:#455a64"></path></g><g id="freepik--Character--inject-73"><path d="M195.18,399.33C194.66,400.88,210,463,210,463h37.32l1.47-59Z" style="fill:#ae7461"></path><path d="M263,404c.52,3.1,20.26,59,20.26,59l41.71-.06-11.83-63.58Z" style="fill:#ae7461"></path><path d="M203.66,276.42a52.7,52.7,0,0,0-13.22,26.44c-1,5.29-4.68,16.45-4.42,36.69.42,32.87,1.82,80.15,1.82,80.15a1189.21,1189.21,0,0,0,134,0s-24.47-119.39-34.45-134.54l-4.28-10.46Z" style="fill:#263238"></path><path d="M203.66,276.42l1.38-.05,4.09-.12,15.76-.39,58.26-1.35h.13l.05.12,4.28,10.45v0a41,41,0,0,1,3.06,6.57l1.27,3.48c.39,1.18.79,2.37,1.19,3.56,1.55,4.81,3,9.81,4.42,14.95,2.84,10.29,5.56,21.19,8.3,32.57,5.44,22.78,10.9,47.5,16.3,73.46l.06.3h-.3c-8.18.46-16.87.87-25.66,1.18-38.92,1.36-75.85.66-108.42-1.2h-.21v-.22c-.48-21.78-.92-41.87-1.31-59.75q-.15-6.7-.29-13c-.08-4.18-.22-8.22-.13-12.12a126.83,126.83,0,0,1,2.11-21.3c.6-3.18,1.32-6.17,2-9l.9-4.1c.29-1.33.69-2.58,1-3.8A57.16,57.16,0,0,1,197.15,285a52.53,52.53,0,0,1,4.63-6.51,23.06,23.06,0,0,1,1.88-2l-.48.52c-.3.34-.76.85-1.34,1.55a54.16,54.16,0,0,0-4.56,6.54,57,57,0,0,0-5.19,11.7c-.34,1.21-.73,2.46-1,3.78s-.58,2.69-.88,4.1c-.64,2.82-1.36,5.8-1.94,9a126.52,126.52,0,0,0-2,21.25c-.08,3.88.07,7.92.16,12.11s.2,8.51.31,13c.42,17.88.88,38,1.39,59.75l-.22-.23c32.56,1.82,69.47,2.51,108.37,1.15,8.79-.31,17.47-.72,25.65-1.17l-.24.31c-5.39-26-10.84-50.68-16.26-73.45-2.72-11.39-5.44-22.29-8.26-32.57-1.42-5.15-2.85-10.14-4.39-14.94-.4-1.19-.79-2.38-1.18-3.56s-.84-2.32-1.26-3.47a40.64,40.64,0,0,0-3-6.5h0v0c-1.5-3.66-2.95-7.23-4.27-10.46l.18.12L225,276.06l-15.78.3-4.11.06Z" style="fill:#455a64"></path><path d="M258.35,409.9a5.41,5.41,0,0,1-.29-.74l-.72-2.15c-.62-1.88-1.53-4.58-2.69-7.91-2.32-6.66-5.75-15.78-10.05-25.64s-8.68-18.57-12-24.8c-1.65-3.11-3-5.62-4-7.34l-1.09-2a3.9,3.9,0,0,1-.34-.71,5.63,5.63,0,0,1,.43.66c.3.49.69,1.13,1.17,2,1,1.69,2.43,4.17,4.12,7.27,3.4,6.19,7.82,14.89,12.13,24.77s7.69,19,9.93,25.72c1.12,3.35,2,6.07,2.53,8,.26.91.48,1.63.63,2.18A4.23,4.23,0,0,1,258.35,409.9Z" style="fill:#455a64"></path><path d="M260.82,332.08c.13.06-2,5-4.75,11.09S251,354.1,250.85,354s2-5,4.75-11.08S260.69,332,260.82,332.08Z" style="fill:#455a64"></path><path d="M207.75,98.06a23,23,0,0,0-6.5,20.29c.64,3.54,2.05,7.5,0,10.46s-6.53,3.32-8.44,6.32c-2.25,3.53.42,8.16-.09,12.32a8.28,8.28,0,0,1-8.13,7,32.34,32.34,0,0,0,16.67,5.27l3.87-6.19c-1.49,2.18-.71,5.33,1.15,7.21s4.49,2.73,7.07,3.27a41.09,41.09,0,0,0,35.18-9.52" style="fill:#263238"></path><path d="M278,122.6c-1.17-2.64-2.93-5-3.83-7.76-1.91-5.91.33-13-3.17-18.14-2.48-3.66-7.12-5.09-11.46-6s-9-1.49-12.41-4.25c-2.53-2-4.16-5-6.69-7-3.59-2.9-8.53-3.49-13.14-3.3s-9.56,1.15-13.58,3.67-7.13,6.78-7.41,11.52c-.13,2.31.4,4.66-.09,6.92-.54,2.49-2.24,4.55-3.17,6.92a12.17,12.17,0,0,0,4.53,14.19l36.65,38.41c7.06,1.86,23.2-2.94,27.93-8.5S281,129.27,278,122.6Z" style="fill:#263238"></path><path d="M207.87,114c.35-9.61,6.4-21.57,16-20.81L254,99.94a5.64,5.64,0,0,1,5.19,5.58l2.21,70.38s-1.34.68,0,0a.39.39,0,0,1,.53.54c-3,5.43-17.15,29.29-34.83,24.29-4-1.12-1-13.51-1.9-17.89l-.67-11.37c-.22-5.81-.28-8.2-.29-8.15s-12.32-1.71-15.28-17.65C207.43,137.74,207.48,124.68,207.87,114Z" style="fill:#ae7461"></path><path d="M213.49,127.61a2,2,0,0,0,2,2,2,2,0,0,0,2.07-1.9,2.06,2.06,0,0,0-2-2A2,2,0,0,0,213.49,127.61Z" style="fill:#263238"></path><path d="M233.67,128.28a2,2,0,0,0,2,2,2,2,0,0,0,2.07-1.9,2,2,0,0,0-2-2A2,2,0,0,0,233.67,128.28Z" style="fill:#263238"></path><path d="M210.06,121c.26.35,2-1.05,4.43-1s4.1,1.57,4.38,1.24c.14-.15-.11-.77-.85-1.46a5.59,5.59,0,0,0-3.48-1.41,5.51,5.51,0,0,0-3.56,1.18C210.21,120.24,209.93,120.85,210.06,121Z" style="fill:#263238"></path><path d="M231.47,121.29c.32.31,2-1.23,4.6-1.39s4.53,1.1,4.78.75c.13-.16-.2-.74-1.06-1.33a6.24,6.24,0,0,0-3.85-1,6.08,6.08,0,0,0-3.64,1.52C231.55,120.53,231.32,121.15,231.47,121.29Z" style="fill:#263238"></path><path d="M225,137.14a15.42,15.42,0,0,0-3.61-.55c-.56,0-1.1-.14-1.21-.52a2.91,2.91,0,0,1,.34-1.69L222.1,130c2.16-6.17,3.7-11.25,3.45-11.33s-2.2,4.85-4.35,11c-.52,1.52-1,3-1.49,4.36a3.33,3.33,0,0,0-.23,2.23,1.42,1.42,0,0,0,1,.8,3.82,3.82,0,0,0,1,.1A14.32,14.32,0,0,0,225,137.14Z" style="fill:#263238"></path><path d="M224.19,163.32A40.77,40.77,0,0,0,245.48,157s-5.09,11.37-21.15,10.3Z" style="fill:#6f4439"></path><path d="M232.38,142.85a3.45,3.45,0,0,0-1.27-1.22,2.79,2.79,0,0,0-1.91,0,4.52,4.52,0,0,0-2.36,1.52,2.7,2.7,0,0,0-.35,2.69h0c.34.89,1.76,1.25,2.71,1.32a4.2,4.2,0,0,0,2.67-.86,2.39,2.39,0,0,0,1.21-2A2.93,2.93,0,0,0,232.38,142.85Z" style="fill:#6f4439"></path><path d="M231.61,139.81c-.36,0-.3,2.38-2.31,4.14s-4.57,1.56-4.58,1.9c0,.15.58.45,1.66.45a6,6,0,0,0,3.83-1.45,5.24,5.24,0,0,0,1.78-3.47C232.05,140.38,231.77,139.79,231.61,139.81Z" style="fill:#263238"></path><path d="M231,115.35c.23.6,2.43.25,5,.5s4.71.89,5,.34c.15-.26-.23-.81-1.09-1.37a8.33,8.33,0,0,0-3.76-1.21,8.54,8.54,0,0,0-3.92.56C231.32,114.58,230.86,115.07,231,115.35Z" style="fill:#263238"></path><path d="M211.41,112c.46.49,2.18-.08,4.27-.16s3.87.24,4.27-.3c.17-.26-.12-.75-.91-1.21a6.93,6.93,0,0,0-6.88.37C211.44,111.18,211.21,111.71,211.41,112Z" style="fill:#263238"></path><path d="M260.61,101.56c-1.7-2.1-4.45-3-7.06-3.7A147.34,147.34,0,0,0,219,92.77c-1.19,2.51.47,5.59,2.81,7.09s5.19,1.88,7.88,2.58,5.5,1.92,6.83,4.36c1.41,2.59.79,5.9,2.07,8.57,2.21,4.58,9,5.42,11.19,10,1.65,3.48,0,7.53-.17,11.37a13.74,13.74,0,0,0,15,14.17q-.94-20.59-1.88-41.2C262.62,106.86,262.41,103.79,260.61,101.56Z" style="fill:#263238"></path><path d="M291.69,133.2c-2.36-1.71-5.23-3.1-6.38-5.78-1.67-3.89,1.08-9-1.39-12.41-2.24-3.15-7.82-2.4-9.94-5.64-1.66-2.52-.32-5.05-1.08-7.34s-4.31-4-6.67-3.47l-15.84,29c-.79,9.24-2,14.25.46,19.35,1.37,2.8,3.05,5.49,3.79,8.52s.31,6.58-2,8.66c11.24-.28,21.08-7.2,30.15-13.84l9.6-7a7.49,7.49,0,0,0,2.56-2.63C296.18,137.91,294,134.91,291.69,133.2Z" style="fill:#263238"></path><path d="M282.77,147.44a5.17,5.17,0,0,1-1.16.35,10.43,10.43,0,0,1-3.5.12A10.85,10.85,0,0,1,273,145.8a10.63,10.63,0,0,1-3.87-6.19,10.92,10.92,0,0,1-.07-4.31,17.39,17.39,0,0,1,1.64-4.36,16.38,16.38,0,0,0,1.69-4.52,5.55,5.55,0,0,0-1.09-4.66c-1.15-1.25-3.07-1.39-4.89-1.91a5.14,5.14,0,0,1-2.56-1.52,5,5,0,0,1-1.07-2.84c-.19-2,.49-4,.67-5.94a6.5,6.5,0,0,0-.28-2.85,4,4,0,0,0-1.84-2.09c-1.73-1-3.8-1-5.8-.92a12.14,12.14,0,0,1-5.92-1.1,10.81,10.81,0,0,1-4.37-3.85,18,18,0,0,1-2-5.2,25,25,0,0,0-1.61-4.89,11.15,11.15,0,0,0-3-3.68,12.56,12.56,0,0,0-14.83-.54,15.17,15.17,0,0,0-3.95,3.71,19.93,19.93,0,0,0-2.26,4.08.92.92,0,0,1,.07-.3c.07-.2.15-.49.31-.86A14.28,14.28,0,0,1,219.6,88a15.39,15.39,0,0,1,4-3.87,13.13,13.13,0,0,1,6.95-2.31,13.35,13.35,0,0,1,8.41,2.73,11.53,11.53,0,0,1,3.21,3.85,25.36,25.36,0,0,1,1.69,5,17.2,17.2,0,0,0,1.94,5,10.27,10.27,0,0,0,4.13,3.61,11.49,11.49,0,0,0,5.64,1c2,0,4.18-.09,6.12,1a4.65,4.65,0,0,1,2.13,2.43,6.91,6.91,0,0,1,.31,3.14c-.2,2-.85,4-.67,5.82a4.36,4.36,0,0,0,.91,2.49,4.55,4.55,0,0,0,2.26,1.33c.87.26,1.79.41,2.69.69a5.27,5.27,0,0,1,2.46,1.41,6.12,6.12,0,0,1,1.21,5.16,16.7,16.7,0,0,1-1.77,4.67,17.47,17.47,0,0,0-1.63,4.22,10.56,10.56,0,0,0,0,4.12,10.27,10.27,0,0,0,3.63,6,10.52,10.52,0,0,0,4.93,2.14A12.15,12.15,0,0,0,282.77,147.44Z" style="fill:#455a64"></path><path d="M295.65,126.69a2.29,2.29,0,0,1,.47.87,4,4,0,0,1-.2,2.82,4.11,4.11,0,0,1-1.27,1.64,4.48,4.48,0,0,1-2.31.89,5.6,5.6,0,0,1-5.21-2.6A7.51,7.51,0,0,1,286,127a10.36,10.36,0,0,1,.4-3.77c.63-2.5,2-5,1.74-7.84a5.16,5.16,0,0,0-1.69-3.7,5.7,5.7,0,0,0-4.18-.85,13.56,13.56,0,0,1-4.88,0,4.23,4.23,0,0,1-2.16-1.46,6,6,0,0,1-1.07-2.38,20,20,0,0,1-.11-5,11.1,11.1,0,0,0-.73-4.56,11.68,11.68,0,0,0-5.9-6.27c-2.56-1.21-5.37-1.08-7.91-1a22.74,22.74,0,0,1-7.17-.38A15,15,0,0,1,243.91,84a10.75,10.75,0,0,1-1.69-3.4,20,20,0,0,0,1.9,3.25,15.09,15.09,0,0,0,8.32,5.55,22.75,22.75,0,0,0,7,.29c2.54-.13,5.45-.3,8.19,1a12.21,12.21,0,0,1,6.24,6.58,11.59,11.59,0,0,1,.79,4.82,19.53,19.53,0,0,0,.1,4.84,4.17,4.17,0,0,0,2.77,3.36,13.64,13.64,0,0,0,4.64,0,6.22,6.22,0,0,1,4.63,1,5.75,5.75,0,0,1,1.9,4.14,11.12,11.12,0,0,1-.59,4.26c-.41,1.32-.89,2.55-1.23,3.77a10,10,0,0,0-.42,3.58,7.17,7.17,0,0,0,1,3.11,5.21,5.21,0,0,0,4.79,2.48,4.21,4.21,0,0,0,2.16-.76,4.1,4.1,0,0,0,1.22-1.51,4,4,0,0,0,.3-2.67A8.52,8.52,0,0,0,295.65,126.69Z" style="fill:#263238"></path><path d="M178.86,145.52a4.5,4.5,0,0,0,.34,2.91,3.87,3.87,0,0,0,2.56,2.11,4.07,4.07,0,0,0,4-1.54,3.76,3.76,0,0,0,.72-2.44,8.06,8.06,0,0,0-.72-2.78c-.79-1.82-2.21-3.75-2.28-6.23a9,9,0,0,1,2.72-6.79,10.58,10.58,0,0,1,3.29-2.19,15.06,15.06,0,0,1,3.91-1,20.74,20.74,0,0,0,3.81-.81,5.13,5.13,0,0,0,2.81-2.17,6.32,6.32,0,0,0,.74-3.41,12.94,12.94,0,0,0-.64-3.41c-.69-2.18-1.58-4.28-1.68-6.42a9.9,9.9,0,0,1,1.43-5.62,12.59,12.59,0,0,1,3.32-3.44,24.08,24.08,0,0,0,2.69-2.31,7.63,7.63,0,0,0,1.59-2.54s0,.07,0,.2a3.23,3.23,0,0,1-.17.57,6.1,6.1,0,0,1-1.2,1.94,22.81,22.81,0,0,1-2.65,2.42,12.51,12.51,0,0,0-3.15,3.4,9.56,9.56,0,0,0-1.29,5.35c.11,2,1,4,1.71,6.27a12.92,12.92,0,0,1,.69,3.57,6.87,6.87,0,0,1-.81,3.75,5.78,5.78,0,0,1-3.14,2.46,21.52,21.52,0,0,1-3.93.84,15.24,15.24,0,0,0-3.76.94,10,10,0,0,0-3.09,2,8.45,8.45,0,0,0-2.57,6.32c0,2.27,1.36,4.12,2.17,6a8.15,8.15,0,0,1,.73,3,4.23,4.23,0,0,1-.85,2.73,4.45,4.45,0,0,1-4.43,1.61,4.11,4.11,0,0,1-2.71-2.35,4.2,4.2,0,0,1-.34-2.26A2.48,2.48,0,0,1,178.86,145.52Z" style="fill:#263238"></path><path d="M284.83,175.08l-23.33-4.64s-9.57,13.87-24.48,12.67c-8.7-.7-12.38-9-12.38-9l-24.57,6.92-.35,49.72,5.62,27-14.9,45s39.94,25.4,104.68-.77L283.81,274.7l3.07-16.16s4.1-30.51,2.48-40-4.58-20.69-4.58-20.69Z" style="fill:#5F5F5F"></path><path d="M220,253.75a9.08,9.08,0,0,0,1.56,1.17c1,.71,2.56,1.68,4.5,2.8A91.76,91.76,0,0,0,259,269c2.22.29,4,.47,5.28.53a9.73,9.73,0,0,0,1.95,0,10.47,10.47,0,0,0-1.92-.32c-1.24-.15-3-.4-5.23-.76a108.4,108.4,0,0,1-16.86-4.22,107.21,107.21,0,0,1-15.93-7c-2-1.06-3.53-1.95-4.61-2.59A10,10,0,0,0,220,253.75Z" style="fill:#263238"></path><g style="opacity:0.30000000000000004"><path d="M199.23,276.3a9.7,9.7,0,0,0,9.38-3.5c2-2.69,2.91-6,3.75-9.28q2.91-11.17,5.8-22.36a55.4,55.4,0,0,1,36.93-6.11,12.73,12.73,0,0,1,5.41,2c2.14,1.63,3.16,4.31,4.06,6.84,2.18,6.17,4.28,12.47,8.05,17.81s5.31,9.28,11.84,9.62l5.46-26.28L271.37,221.8l-46.69,1.62-17,11.07L201.89,268Z"></path></g><path d="M282.11,175s10.84-1.2,18.15,11.85c5.37,9.58,12.13,28.78,12.13,28.78l-25.73,7.15-5.56-25.12Z" style="fill:#5F5F5F"></path><path d="M200.07,181.08s-7.91,1.44-12.36,8.08-12.24,30-12.24,30l27,2.93,2.51-26.8Z" style="fill:#5F5F5F"></path><path d="M289.25,201.16a14.77,14.77,0,0,0-.64,3.25c-.36,2.3-.77,5-1.22,7.87s-.92,5.57-1.3,7.87a16,16,0,0,0-.41,3.29,14.07,14.07,0,0,0,.93-3.19c.46-2,1-4.76,1.52-7.85s.82-5.89,1-7.93A14.73,14.73,0,0,0,289.25,201.16Z" style="fill:#263238"></path><path d="M201.32,201.35c-.2,0-.63,5.7-.94,12.76s-.41,12.78-.21,12.78.63-5.7,1-12.75S201.53,201.36,201.32,201.35Z" style="fill:#263238"></path><path d="M249.83,176l4.86,38.52a2.47,2.47,0,0,1-2.14,2.7l-24.67,3.53a2.49,2.49,0,0,1-2.85-2l-6.49-40.19a2.44,2.44,0,0,1,2.3-2.79l26.31-1.88A2.49,2.49,0,0,1,249.83,176Z" style="fill:#263238"></path><path d="M239.35,197.06c.67,0,15.44,1.95,15.44,1.95L276,208.7l10.65,14L277,241.82l-6.29-15.89a26.92,26.92,0,0,1-9.45,1.69c-4.49-.23-18.7-.7-18.7-.7l-7.46-3.6s-2.5-3.59-2.54-4.62a1.66,1.66,0,0,1,2.5-1.54c1.52.76,11.76.55,14.27-.58,0,0-14.95-.43-17-2.7s-1.44-4.15.9-4.25,10.92.8,13.46.49,5.75-.44,6.34-1.7-1.37-2.2-1.37-2.2l-2.85-1.94s-10.95-1.41-11.68-3.64A2.65,2.65,0,0,1,239.35,197.06Z" style="fill:#ae7461"></path><path d="M234.34,196.54S222,199,221.2,199.78s-15.7,19.93-15.7,19.93l-3.67,3.65,10.35,12.41,1.94-1.24,13.73-7.89a23.83,23.83,0,0,1,4.41-1.57s14.08-2.72,14.93-4.4.31-2-.75-2.24-9.5,1.06-11.37,1.47a29.94,29.94,0,0,1-5.64.23s5.83-1.56,7.14-2.06,14.37-3.87,14.07-6.13-2-3-10.14-.55a60.89,60.89,0,0,1-13.81,2.72l18-6.86s7.26-2.57,4.81-4.5-18,2.88-18,2.88l-6.85,2.81,1.8-4.12s9.78-3.22,11-4.23c1.52-1.24,1.69-2.34.47-3.26S234.34,196.54,234.34,196.54Z" style="fill:#ae7461"></path><path d="M177.79,219.43l22,2.42,0,5,3.22-4.67,9.15,13.6s-2.7,9.64-4.15,15C204.17,265,197.59,281,188.72,280.59c-10.65-.53-16.22-11.37-16.35-19.21C172.25,254.25,177.79,219.43,177.79,219.43Z" style="fill:#ae7461"></path><path d="M310.87,216l-18.54,5.31-5.67,1.42-5.5-7.31-7.84,16.35s3.44,9.4,5.3,14.6c5,13.91,12.78,29.4,21.59,28.26,10.57-1.36,17.85-13.77,17.37-21.6C317.14,245.92,310.87,216,310.87,216Z" style="fill:#ae7461"></path><path d="M205.49,219.65s.12-.19.4-.55l1.21-1.6c1.1-1.41,2.69-3.47,4.72-6.1l7.51-9.58,1.13-1.41.59-.73a2.84,2.84,0,0,1,.92-.46c1.24-.41,2.53-.72,3.87-1,2.67-.64,5.5-1.24,8.48-1.84h0a6.85,6.85,0,0,1,2.31-.2,3.28,3.28,0,0,1,1.17.34,2.68,2.68,0,0,1,.9.84,1.49,1.49,0,0,1,.18,1.25,3,3,0,0,1-.65,1.06,4.48,4.48,0,0,1-1,.81c-.36.2-.74.37-1.11.54-3,1.28-6.28,2.38-9.64,3.51l.14-.12-1.81,4.12-.3-.29,6.85-2.81h0c2.95-.89,6-1.71,9.15-2.39a46.78,46.78,0,0,1,4.83-.83,17.33,17.33,0,0,1,2.51-.1,4.27,4.27,0,0,1,1.29.25,1.68,1.68,0,0,1,1,1,1.42,1.42,0,0,1-.38,1.34,5.3,5.3,0,0,1-1,.86,15.27,15.27,0,0,1-2.24,1.23c-1.56.71-3.18,1.25-4.78,1.88l-9.74,3.7-5.3,2-.1-.47a63,63,0,0,0,12.81-2.41,60.9,60.9,0,0,1,6.18-1.59,9.53,9.53,0,0,1,3.2-.13,2.38,2.38,0,0,1,1.47.79,2.74,2.74,0,0,1,.55,1.52,1.21,1.21,0,0,1-.37.81,3.8,3.8,0,0,1-.61.53,10.5,10.5,0,0,1-1.33.78c-.91.46-1.84.83-2.77,1.19-1.87.7-3.74,1.3-5.59,1.86l-2.75.82c-.89.26-1.79.6-2.69.84-1.79.52-3.56,1-5.3,1.46l0-.41a24.94,24.94,0,0,0,6.14-.32c2-.36,4-.65,5.89-.91,1-.12,1.91-.24,2.85-.33.47-.05.94-.09,1.41-.11a3.82,3.82,0,0,1,.75,0,3.27,3.27,0,0,1,.7.21,1,1,0,0,1,.56.56,1.36,1.36,0,0,1,0,.75,3.58,3.58,0,0,1-.23.65l-.14.3a1.17,1.17,0,0,1-.24.3,8.4,8.4,0,0,1-2.42,1.16,90.4,90.4,0,0,1-9.37,2.39l-2.15.44a15.69,15.69,0,0,0-2,.49,15,15,0,0,0-3.59,1.41l-9.94,5.62L215,234l-.67.37-.24.12a1,1,0,0,1,.22-.15l.66-.4,2.6-1.52c2.29-1.33,5.63-3.27,9.88-5.72,2.16-1.27,4.92-1.83,7.83-2.42a93.41,93.41,0,0,0,9.31-2.43,8.15,8.15,0,0,0,2.28-1.09.64.64,0,0,0,.16-.2l.13-.29a4,4,0,0,0,.21-.58.68.68,0,0,0-.36-.9,3.62,3.62,0,0,0-.61-.18c-.2,0-.42,0-.65,0l-1.39.12c-.93.09-1.88.21-2.83.34-1.91.26-3.88.56-5.87.92a25,25,0,0,1-6.25.34.21.21,0,0,1-.21-.22.22.22,0,0,1,.16-.2h0q2.61-.69,5.29-1.47c.9-.24,1.76-.57,2.68-.85l2.75-.82c1.84-.56,3.7-1.16,5.55-1.86.92-.35,1.84-.73,2.73-1.17a9.31,9.31,0,0,0,1.26-.75c.37-.27.79-.63.78-1a2.27,2.27,0,0,0-.44-1.23,1.88,1.88,0,0,0-1.18-.61,9.08,9.08,0,0,0-3,.13,58.21,58.21,0,0,0-6.13,1.59,63.45,63.45,0,0,1-12.93,2.43.25.25,0,0,1-.27-.23.24.24,0,0,1,.16-.24h0l5.29-2,9.75-3.7c1.6-.63,3.23-1.17,4.74-1.85a14.68,14.68,0,0,0,2.17-1.2,5,5,0,0,0,.88-.76,1,1,0,0,0,.29-.9c-.23-.62-1.07-.84-1.86-.87a15.13,15.13,0,0,0-2.42.1,47.2,47.2,0,0,0-4.78.81c-3.13.67-6.17,1.49-9.1,2.36h0l-6.86,2.79a.23.23,0,0,1-.3-.11.23.23,0,0,1,0-.18l1.81-4.11a.24.24,0,0,1,.14-.12c3.35-1.12,6.6-2.21,9.6-3.47a12,12,0,0,0,1.08-.52,4.17,4.17,0,0,0,.86-.72c.52-.54.84-1.27.43-1.84a2.26,2.26,0,0,0-1.77-1,6.44,6.44,0,0,0-2.15.18h0c-3,.59-5.81,1.18-8.47,1.79-1.33.32-2.63.63-3.84,1a2.76,2.76,0,0,0-.79.37l-.58.71-1.14,1.4c-2.94,3.71-5.49,6.9-7.57,9.53s-3.69,4.64-4.81,6l-1.26,1.57C205.65,219.48,205.49,219.65,205.49,219.65Z" style="fill:#6f4439"></path><path d="M202.4,223.07c.15.11-6,8.13-13.74,17.92s-14.15,17.63-14.3,17.51,6-8.13,13.75-17.91S202.25,223,202.4,223.07Z" style="fill:#6f4439"></path><path d="M305.48,247.28c-.11,0-.91-1.68-2.54-4.28a90.41,90.41,0,0,0-7.18-9.65c-3-3.61-5.92-6.78-7.92-9.15-1-1.18-1.79-2.16-2.32-2.85a4.89,4.89,0,0,1-.75-1.11,5.85,5.85,0,0,1,1,1l2.47,2.71c2.09,2.3,5,5.42,8.07,9.05a70.87,70.87,0,0,1,7.08,9.81A34.49,34.49,0,0,1,305,246,5.39,5.39,0,0,1,305.48,247.28Z" style="fill:#6f4439"></path></g></svg>
